<svg width="1440" height="334" viewBox="0 0 1440 334" fill="none" xmlns="http://www.w3.org/2000/svg">
<path d="M592.488 97.993L588.846 94.3364C585.204 90.6798 579.322 90.7736 575.774 94.3364L575.68 94.4302C572.038 98.0868 572.038 103.994 575.68 107.557L579.322 111.213C582.963 114.87 588.753 114.87 592.394 111.213L592.488 111.119C596.129 107.557 596.129 101.556 592.488 97.993ZM564.102 157.624H554.577C549.442 157.624 545.333 161.749 545.333 166.906V167C545.333 172.157 549.442 176.282 554.577 176.282H564.008C569.237 176.376 573.346 172.251 573.346 167.094V167C573.346 161.75 569.237 157.624 564.102 157.624ZM648.14 64.3334H648.046C642.817 64.3334 638.709 68.4588 638.709 73.6156V82.6165C638.709 87.7733 642.817 91.8987 647.953 91.8987H648.046C653.275 91.9924 657.384 87.867 657.384 82.7102V73.6156C657.384 68.4588 653.275 64.3334 648.14 64.3334ZM720.413 94.4302C716.771 90.7736 710.888 90.7736 707.247 94.3364L703.605 97.993C699.963 101.65 699.963 107.557 703.605 111.119L703.698 111.213C707.34 114.87 713.223 114.87 716.771 111.213L720.413 107.557C724.054 103.9 724.054 98.0868 720.413 94.4302ZM703.512 236.007L707.153 239.664C710.795 243.32 716.678 243.32 720.319 239.664C723.961 236.007 723.961 230.1 720.319 226.444L716.678 222.787C713.036 219.13 707.153 219.224 703.605 222.787C699.87 226.537 699.87 232.35 703.512 236.007ZM722.747 166.906V167C722.747 172.157 726.856 176.282 731.991 176.282H741.422C746.558 176.282 750.666 172.157 750.666 167V166.906C750.666 161.749 746.558 157.624 741.422 157.624H731.991C726.856 157.624 722.747 161.749 722.747 166.906ZM648.046 110.744C617.139 110.744 592.021 135.966 592.021 167C592.021 198.034 617.139 223.256 648.046 223.256C678.954 223.256 704.072 198.034 704.072 167C704.072 135.966 678.954 110.744 648.046 110.744ZM647.953 269.667H648.046C653.182 269.667 657.291 265.541 657.291 260.385V251.384C657.291 246.227 653.182 242.101 648.046 242.101H647.953C642.817 242.101 638.709 246.227 638.709 251.384V260.385C638.709 265.541 642.817 269.667 647.953 269.667ZM575.68 239.57C579.322 243.227 585.204 243.227 588.846 239.57L592.488 235.913C596.129 232.257 596.036 226.35 592.488 222.787L592.394 222.693C588.753 219.037 582.87 219.037 579.228 222.693L575.587 226.35C572.038 230.1 572.038 235.913 575.68 239.57Z" fill="url(#paint0_linear_1_952)"/>
<path d="M1256.33 138.333H1171C1162.16 138.333 1155 131.17 1155 122.333C1155 115.273 1159.57 109.281 1165.92 107.157C1165.75 106.018 1165.67 104.852 1165.67 103.667C1165.67 90.4118 1176.41 79.6667 1189.67 79.6667C1190.87 79.6667 1192.05 79.7548 1193.2 79.9251C1196.72 64.506 1210.52 53 1227 53C1245.43 53 1260.49 67.3741 1261.6 85.5203C1273.81 87.9657 1283 98.7425 1283 111.667C1283 126.394 1271.06 138.333 1256.33 138.333Z" fill="url(#paint1_linear_1_952)"/>
<path d="M0 218.025C0 218.025 119.419 114.364 164.202 114.364C201.023 114.364 306.51 218.025 306.51 218.025C306.51 218.025 442.847 92.7874 467.726 91.497C494.596 90.1034 652.329 218.025 652.329 218.025C652.329 218.025 798.12 60.6373 824.492 56.4351C852.357 51.995 1084.73 218.025 1084.73 218.025C1084.73 218.025 1440 -15.2676 1440 0.792736C1440 105.597 1440 333.119 1440 333.119L0 333.5V218.025Z" fill="url(#paint2_linear_1_952)"/>
<path d="M88.3333 106.333H3C-5.83656 106.333 -13 99.1699 -13 90.3333C-13 83.273 -8.427 77.2808 -2.08136 75.1571C-2.24738 74.0176 -2.33333 72.8522 -2.33333 71.6667C-2.33333 58.4118 8.41183 47.6667 21.6667 47.6667C22.8674 47.6667 24.0476 47.7548 25.201 47.9251C28.7181 32.506 42.5153 21 59 21C77.425 21 92.4928 35.3741 93.6013 53.5203C105.806 55.9657 115 66.7425 115 79.6667C115 94.3943 103.061 106.333 88.3333 106.333Z" fill="#E0A12E"/>
<defs>
<linearGradient id="paint0_linear_1_952" x1="648" y1="95.3252" x2="644.14" y2="275.693" gradientUnits="userSpaceOnUse">
<stop stop-color="#E0A12E"/>
<stop offset="0.150807" stop-color="#E0A12E"/>
<stop offset="0.384144" stop-color="#E0A12E" stop-opacity="0.2"/>
<stop offset="1" stop-color="#E0A12E" stop-opacity="0"/>
</linearGradient>
<linearGradient id="paint1_linear_1_952" x1="1187" y1="79.1667" x2="1245.5" y2="152.667" gradientUnits="userSpaceOnUse">
<stop stop-color="#E0A12E"/>
<stop offset="0.487161" stop-color="#E0A12E"/>
<stop offset="1" stop-color="#E0A12E" stop-opacity="0"/>
</linearGradient>
<linearGradient id="paint2_linear_1_952" x1="720" y1="50.3366" x2="721.282" y2="408.995" gradientUnits="userSpaceOnUse">
<stop stop-color="#E0A12E"/>
<stop offset="0.374578" stop-color="#E0A12E"/>
<stop offset="0.795438" stop-color="#E0A12E" stop-opacity="0"/>
<stop offset="1" stop-color="#E0A12E" stop-opacity="0"/>
</linearGradient>
</defs>
</svg>
