<svg width="270" height="270" viewBox="0 0 270 270" fill="none" xmlns="http://www.w3.org/2000/svg">
<path d="M56.25 191.25H202.5C227.353 191.25 247.5 171.103 247.5 146.25C247.5 125.143 232.969 107.43 213.365 102.57C213.619 100.29 213.75 97.973 213.75 95.625C213.75 61.4524 186.048 33.75 151.875 33.75C123.531 33.75 99.6388 52.8079 92.3126 78.8084C91.5466 78.7696 90.7756 78.75 90 78.75C65.1472 78.75 45 98.8972 45 123.75C45 124.389 45.0133 125.024 45.0397 125.656C31.9105 130.278 22.5 142.79 22.5 157.5C22.5 176.14 37.6104 191.25 56.25 191.25Z" fill="#E0A12E"/>
<path d="M56.25 213.75C50.0368 213.75 45 218.787 45 225C45 231.213 50.0368 236.25 56.25 236.25H213.75C219.963 236.25 225 231.213 225 225C225 218.787 219.963 213.75 213.75 213.75H56.25Z" fill="#E0A12E"/>
<path d="M69.1541 116.148H67.3814C67.3132 115.769 67.1863 115.436 67.0007 115.148C66.8151 114.86 66.5878 114.616 66.3189 114.415C66.05 114.214 65.7488 114.062 65.4155 113.96C65.0859 113.858 64.7356 113.807 64.3643 113.807C63.6939 113.807 63.0935 113.975 62.5632 114.312C62.0367 114.65 61.62 115.144 61.3132 115.795C61.0102 116.447 60.8587 117.242 60.8587 118.182C60.8587 119.129 61.0102 119.928 61.3132 120.58C61.62 121.231 62.0386 121.723 62.5689 122.057C63.0992 122.39 63.6958 122.557 64.3587 122.557C64.7261 122.557 65.0746 122.508 65.4041 122.409C65.7375 122.307 66.0386 122.157 66.3075 121.96C66.5765 121.763 66.8037 121.523 66.9893 121.239C67.1787 120.951 67.3094 120.621 67.3814 120.25L69.1541 120.256C69.0594 120.828 68.8757 121.354 68.603 121.835C68.334 122.312 67.9875 122.725 67.5632 123.074C67.1428 123.419 66.6617 123.686 66.12 123.875C65.5784 124.064 64.9875 124.159 64.3473 124.159C63.3397 124.159 62.442 123.92 61.6541 123.443C60.8662 122.962 60.245 122.275 59.7905 121.381C59.3397 120.487 59.1143 119.42 59.1143 118.182C59.1143 116.939 59.3416 115.873 59.7962 114.983C60.2507 114.089 60.8719 113.403 61.6598 112.926C62.4477 112.445 63.3435 112.205 64.3473 112.205C64.9647 112.205 65.5405 112.294 66.0746 112.472C66.6125 112.646 67.0954 112.903 67.5234 113.244C67.9515 113.581 68.3056 113.994 68.5859 114.483C68.8662 114.968 69.0556 115.523 69.1541 116.148ZM76.647 120.381V115.273H78.3516V124H76.6811V122.489H76.5902C76.3894 122.955 76.0675 123.343 75.6243 123.653C75.1849 123.96 74.6375 124.114 73.9822 124.114C73.4216 124.114 72.9254 123.991 72.4936 123.744C72.0656 123.494 71.7285 123.125 71.4822 122.636C71.2398 122.148 71.1186 121.544 71.1186 120.824V115.273H72.8175V120.619C72.8175 121.214 72.9822 121.687 73.3118 122.04C73.6413 122.392 74.0694 122.568 74.5959 122.568C74.9141 122.568 75.2304 122.489 75.5447 122.33C75.8629 122.17 76.1262 121.93 76.3345 121.608C76.5466 121.286 76.6508 120.877 76.647 120.381ZM87.174 117.403L85.6342 117.676C85.5698 117.479 85.4676 117.292 85.3274 117.114C85.1911 116.936 85.0054 116.79 84.7706 116.676C84.5357 116.562 84.2422 116.506 83.8899 116.506C83.4089 116.506 83.0073 116.614 82.6854 116.83C82.3634 117.042 82.2024 117.316 82.2024 117.653C82.2024 117.945 82.3104 118.18 82.5263 118.358C82.7422 118.536 83.0907 118.682 83.5717 118.795L84.9581 119.114C85.7611 119.299 86.3596 119.585 86.7536 119.972C87.1475 120.358 87.3445 120.86 87.3445 121.477C87.3445 122 87.1929 122.466 86.8899 122.875C86.5907 123.28 86.1721 123.598 85.6342 123.83C85.1001 124.061 84.4808 124.176 83.7763 124.176C82.799 124.176 82.0017 123.968 81.3842 123.551C80.7668 123.131 80.388 122.534 80.2479 121.761L81.8899 121.511C81.9922 121.939 82.2024 122.263 82.5206 122.483C82.8388 122.699 83.2536 122.807 83.7649 122.807C84.3217 122.807 84.7668 122.691 85.1001 122.46C85.4335 122.225 85.6001 121.939 85.6001 121.602C85.6001 121.33 85.4979 121.1 85.2933 120.915C85.0926 120.729 84.7839 120.589 84.3672 120.494L82.8899 120.17C82.0755 119.985 81.4732 119.689 81.0831 119.284C80.6967 118.879 80.5036 118.366 80.5036 117.744C80.5036 117.229 80.6475 116.778 80.9354 116.392C81.2232 116.006 81.621 115.705 82.1286 115.489C82.6361 115.269 83.2176 115.159 83.8729 115.159C84.8161 115.159 85.5585 115.364 86.1001 115.773C86.6418 116.178 86.9998 116.722 87.174 117.403ZM93.2862 115.273V116.636H88.5192V115.273H93.2862ZM89.7976 113.182H91.4964V121.438C91.4964 121.767 91.5457 122.015 91.6442 122.182C91.7427 122.345 91.8696 122.456 92.0249 122.517C92.1839 122.574 92.3563 122.602 92.5419 122.602C92.6783 122.602 92.7976 122.593 92.8999 122.574C93.0021 122.555 93.0817 122.54 93.1385 122.528L93.4453 123.932C93.3468 123.97 93.2067 124.008 93.0249 124.045C92.843 124.087 92.6158 124.11 92.343 124.114C91.8961 124.121 91.4794 124.042 91.093 123.875C90.7067 123.708 90.3942 123.451 90.1555 123.102C89.9169 122.754 89.7976 122.316 89.7976 121.79V113.182ZM98.7479 124.176C97.9297 124.176 97.2157 123.989 96.6058 123.614C95.996 123.239 95.5225 122.714 95.1854 122.04C94.8482 121.366 94.6797 120.578 94.6797 119.676C94.6797 118.771 94.8482 117.979 95.1854 117.301C95.5225 116.623 95.996 116.097 96.6058 115.722C97.2157 115.347 97.9297 115.159 98.7479 115.159C99.5661 115.159 100.28 115.347 100.89 115.722C101.5 116.097 101.973 116.623 102.31 117.301C102.647 117.979 102.816 118.771 102.816 119.676C102.816 120.578 102.647 121.366 102.31 122.04C101.973 122.714 101.5 123.239 100.89 123.614C100.28 123.989 99.5661 124.176 98.7479 124.176ZM98.7536 122.75C99.2839 122.75 99.7232 122.61 100.072 122.33C100.42 122.049 100.678 121.676 100.844 121.21C101.015 120.744 101.1 120.231 101.1 119.67C101.1 119.114 101.015 118.602 100.844 118.136C100.678 117.667 100.42 117.29 100.072 117.006C99.7232 116.722 99.2839 116.58 98.7536 116.58C98.2195 116.58 97.7763 116.722 97.424 117.006C97.0755 117.29 96.8161 117.667 96.6456 118.136C96.4789 118.602 96.3956 119.114 96.3956 119.67C96.3956 120.231 96.4789 120.744 96.6456 121.21C96.8161 121.676 97.0755 122.049 97.424 122.33C97.7763 122.61 98.2195 122.75 98.7536 122.75ZM104.712 124V115.273H106.343V116.693H106.451C106.633 116.212 106.93 115.837 107.343 115.568C107.756 115.295 108.25 115.159 108.826 115.159C109.409 115.159 109.898 115.295 110.292 115.568C110.69 115.841 110.983 116.216 111.173 116.693H111.263C111.472 116.227 111.803 115.856 112.258 115.58C112.712 115.299 113.254 115.159 113.883 115.159C114.674 115.159 115.32 115.407 115.82 115.903C116.324 116.4 116.576 117.148 116.576 118.148V124H114.877V118.307C114.877 117.716 114.716 117.288 114.394 117.023C114.072 116.758 113.688 116.625 113.241 116.625C112.688 116.625 112.258 116.795 111.951 117.136C111.644 117.473 111.491 117.907 111.491 118.438V124H109.798V118.199C109.798 117.725 109.65 117.345 109.354 117.057C109.059 116.769 108.674 116.625 108.201 116.625C107.879 116.625 107.582 116.71 107.309 116.881C107.04 117.047 106.822 117.28 106.656 117.58C106.493 117.879 106.411 118.225 106.411 118.619V124H104.712ZM118.853 124V115.273H120.552V124H118.853ZM119.711 113.926C119.415 113.926 119.162 113.828 118.95 113.631C118.741 113.43 118.637 113.191 118.637 112.915C118.637 112.634 118.741 112.396 118.95 112.199C119.162 111.998 119.415 111.898 119.711 111.898C120.006 111.898 120.258 111.998 120.467 112.199C120.679 112.396 120.785 112.634 120.785 112.915C120.785 113.191 120.679 113.43 120.467 113.631C120.258 113.828 120.006 113.926 119.711 113.926ZM122.656 124V122.835L127.383 116.83V116.75H122.809V115.273H129.502V116.511L124.957 122.443V122.523H129.661V124H122.656ZM134.205 124.193C133.652 124.193 133.152 124.091 132.705 123.886C132.258 123.678 131.904 123.377 131.643 122.983C131.385 122.589 131.256 122.106 131.256 121.534C131.256 121.042 131.351 120.636 131.54 120.318C131.73 120 131.986 119.748 132.308 119.562C132.629 119.377 132.989 119.237 133.387 119.142C133.785 119.047 134.19 118.975 134.603 118.926C135.126 118.866 135.55 118.816 135.876 118.778C136.201 118.737 136.438 118.67 136.586 118.58C136.734 118.489 136.808 118.341 136.808 118.136V118.097C136.808 117.6 136.667 117.216 136.387 116.943C136.111 116.67 135.698 116.534 135.148 116.534C134.576 116.534 134.126 116.661 133.796 116.915C133.47 117.165 133.245 117.443 133.12 117.75L131.523 117.386C131.713 116.856 131.989 116.428 132.353 116.102C132.72 115.773 133.143 115.534 133.62 115.386C134.097 115.235 134.599 115.159 135.126 115.159C135.474 115.159 135.844 115.201 136.234 115.284C136.628 115.364 136.995 115.511 137.336 115.727C137.681 115.943 137.963 116.252 138.183 116.653C138.402 117.051 138.512 117.568 138.512 118.205V124H136.853V122.807H136.785C136.675 123.027 136.51 123.242 136.29 123.455C136.071 123.667 135.789 123.843 135.444 123.983C135.099 124.123 134.686 124.193 134.205 124.193ZM134.575 122.83C135.044 122.83 135.446 122.737 135.779 122.551C136.116 122.366 136.372 122.123 136.546 121.824C136.724 121.521 136.813 121.197 136.813 120.852V119.727C136.753 119.788 136.635 119.845 136.461 119.898C136.29 119.947 136.095 119.991 135.876 120.028C135.656 120.062 135.442 120.095 135.234 120.125C135.025 120.152 134.851 120.174 134.711 120.193C134.381 120.235 134.08 120.305 133.808 120.403C133.539 120.502 133.323 120.644 133.16 120.83C133.001 121.011 132.921 121.254 132.921 121.557C132.921 121.977 133.076 122.295 133.387 122.511C133.698 122.723 134.094 122.83 134.575 122.83ZM140.911 124V112.364H142.61V116.688H142.712C142.811 116.506 142.953 116.295 143.138 116.057C143.324 115.818 143.582 115.61 143.911 115.432C144.241 115.25 144.676 115.159 145.218 115.159C145.923 115.159 146.551 115.337 147.104 115.693C147.657 116.049 148.091 116.562 148.406 117.233C148.724 117.903 148.883 118.71 148.883 119.653C148.883 120.597 148.726 121.405 148.411 122.08C148.097 122.75 147.665 123.267 147.116 123.631C146.567 123.991 145.94 124.17 145.235 124.17C144.705 124.17 144.271 124.081 143.934 123.903C143.601 123.725 143.339 123.517 143.15 123.278C142.96 123.04 142.815 122.828 142.712 122.642H142.57V124H140.911ZM142.576 119.636C142.576 120.25 142.665 120.788 142.843 121.25C143.021 121.712 143.279 122.074 143.616 122.335C143.953 122.593 144.366 122.722 144.854 122.722C145.362 122.722 145.786 122.587 146.127 122.318C146.468 122.045 146.726 121.676 146.9 121.21C147.078 120.744 147.167 120.22 147.167 119.636C147.167 119.061 147.08 118.544 146.906 118.085C146.735 117.627 146.478 117.265 146.133 117C145.792 116.735 145.366 116.602 144.854 116.602C144.362 116.602 143.945 116.729 143.604 116.983C143.267 117.237 143.012 117.591 142.837 118.045C142.663 118.5 142.576 119.03 142.576 119.636ZM152.489 112.364V124H150.79V112.364H152.489ZM158.536 124.176C157.676 124.176 156.936 123.992 156.315 123.625C155.697 123.254 155.22 122.733 154.883 122.062C154.549 121.388 154.383 120.598 154.383 119.693C154.383 118.799 154.549 118.011 154.883 117.33C155.22 116.648 155.69 116.116 156.292 115.733C156.898 115.35 157.606 115.159 158.417 115.159C158.909 115.159 159.387 115.241 159.849 115.403C160.311 115.566 160.726 115.822 161.093 116.17C161.46 116.519 161.75 116.972 161.962 117.528C162.174 118.081 162.281 118.754 162.281 119.545V120.148H155.343V118.875H160.616C160.616 118.428 160.525 118.032 160.343 117.688C160.161 117.339 159.906 117.064 159.576 116.864C159.25 116.663 158.868 116.562 158.428 116.562C157.951 116.562 157.534 116.68 157.178 116.915C156.826 117.146 156.553 117.449 156.36 117.824C156.171 118.195 156.076 118.598 156.076 119.034V120.028C156.076 120.612 156.178 121.108 156.383 121.517C156.591 121.926 156.881 122.239 157.252 122.455C157.623 122.667 158.057 122.773 158.553 122.773C158.875 122.773 159.169 122.727 159.434 122.636C159.699 122.542 159.928 122.402 160.121 122.216C160.315 122.03 160.462 121.801 160.565 121.528L162.173 121.818C162.044 122.292 161.813 122.706 161.479 123.062C161.15 123.415 160.735 123.689 160.235 123.886C159.739 124.08 159.173 124.176 158.536 124.176ZM170.94 124.193C170.387 124.193 169.887 124.091 169.44 123.886C168.993 123.678 168.638 123.377 168.377 122.983C168.12 122.589 167.991 122.106 167.991 121.534C167.991 121.042 168.085 120.636 168.275 120.318C168.464 120 168.72 119.748 169.042 119.562C169.364 119.377 169.724 119.237 170.121 119.142C170.519 119.047 170.924 118.975 171.337 118.926C171.86 118.866 172.284 118.816 172.61 118.778C172.936 118.737 173.173 118.67 173.32 118.58C173.468 118.489 173.542 118.341 173.542 118.136V118.097C173.542 117.6 173.402 117.216 173.121 116.943C172.845 116.67 172.432 116.534 171.883 116.534C171.311 116.534 170.86 116.661 170.531 116.915C170.205 117.165 169.979 117.443 169.854 117.75L168.258 117.386C168.447 116.856 168.724 116.428 169.087 116.102C169.455 115.773 169.877 115.534 170.354 115.386C170.832 115.235 171.334 115.159 171.86 115.159C172.209 115.159 172.578 115.201 172.968 115.284C173.362 115.364 173.729 115.511 174.07 115.727C174.415 115.943 174.697 116.252 174.917 116.653C175.137 117.051 175.246 117.568 175.246 118.205V124H173.587V122.807H173.519C173.409 123.027 173.245 123.242 173.025 123.455C172.805 123.667 172.523 123.843 172.178 123.983C171.834 124.123 171.421 124.193 170.94 124.193ZM171.309 122.83C171.779 122.83 172.18 122.737 172.513 122.551C172.851 122.366 173.106 122.123 173.281 121.824C173.459 121.521 173.548 121.197 173.548 120.852V119.727C173.487 119.788 173.37 119.845 173.195 119.898C173.025 119.947 172.83 119.991 172.61 120.028C172.39 120.062 172.176 120.095 171.968 120.125C171.76 120.152 171.585 120.174 171.445 120.193C171.116 120.235 170.815 120.305 170.542 120.403C170.273 120.502 170.057 120.644 169.894 120.83C169.735 121.011 169.656 121.254 169.656 121.557C169.656 121.977 169.811 122.295 170.121 122.511C170.432 122.723 170.828 122.83 171.309 122.83ZM179.208 112.364V124H177.509V112.364H179.208ZM185.255 124.176C184.395 124.176 183.655 123.992 183.033 123.625C182.416 123.254 181.939 122.733 181.602 122.062C181.268 121.388 181.102 120.598 181.102 119.693C181.102 118.799 181.268 118.011 181.602 117.33C181.939 116.648 182.408 116.116 183.011 115.733C183.617 115.35 184.325 115.159 185.136 115.159C185.628 115.159 186.105 115.241 186.567 115.403C187.03 115.566 187.444 115.822 187.812 116.17C188.179 116.519 188.469 116.972 188.681 117.528C188.893 118.081 188.999 118.754 188.999 119.545V120.148H182.062V118.875H187.335C187.335 118.428 187.244 118.032 187.062 117.688C186.88 117.339 186.624 117.064 186.295 116.864C185.969 116.663 185.586 116.562 185.147 116.562C184.67 116.562 184.253 116.68 183.897 116.915C183.545 117.146 183.272 117.449 183.079 117.824C182.889 118.195 182.795 118.598 182.795 119.034V120.028C182.795 120.612 182.897 121.108 183.102 121.517C183.31 121.926 183.6 122.239 183.971 122.455C184.342 122.667 184.776 122.773 185.272 122.773C185.594 122.773 185.888 122.727 186.153 122.636C186.418 122.542 186.647 122.402 186.84 122.216C187.033 122.03 187.181 121.801 187.283 121.528L188.891 121.818C188.763 122.292 188.531 122.706 188.198 123.062C187.869 123.415 187.454 123.689 186.954 123.886C186.458 124.08 185.891 124.176 185.255 124.176ZM190.884 124V115.273H192.526V116.659H192.617C192.776 116.189 193.057 115.82 193.458 115.551C193.863 115.278 194.322 115.142 194.833 115.142C194.939 115.142 195.064 115.146 195.208 115.153C195.356 115.161 195.471 115.17 195.555 115.182V116.807C195.487 116.788 195.365 116.767 195.191 116.744C195.017 116.718 194.843 116.705 194.668 116.705C194.267 116.705 193.909 116.79 193.594 116.96C193.284 117.127 193.038 117.36 192.856 117.659C192.674 117.955 192.583 118.292 192.583 118.67V124H190.884ZM201.614 115.273V116.636H196.847V115.273H201.614ZM198.126 113.182H199.825V121.438C199.825 121.767 199.874 122.015 199.972 122.182C200.071 122.345 200.198 122.456 200.353 122.517C200.512 122.574 200.684 122.602 200.87 122.602C201.006 122.602 201.126 122.593 201.228 122.574C201.33 122.555 201.41 122.54 201.467 122.528L201.773 123.932C201.675 123.97 201.535 124.008 201.353 124.045C201.171 124.087 200.944 124.11 200.671 124.114C200.224 124.121 199.808 124.042 199.421 123.875C199.035 123.708 198.722 123.451 198.484 123.102C198.245 122.754 198.126 122.316 198.126 121.79V113.182ZM209.893 117.403L208.353 117.676C208.289 117.479 208.186 117.292 208.046 117.114C207.91 116.936 207.724 116.79 207.489 116.676C207.254 116.562 206.961 116.506 206.609 116.506C206.128 116.506 205.726 116.614 205.404 116.83C205.082 117.042 204.921 117.316 204.921 117.653C204.921 117.945 205.029 118.18 205.245 118.358C205.461 118.536 205.809 118.682 206.29 118.795L207.677 119.114C208.48 119.299 209.078 119.585 209.472 119.972C209.866 120.358 210.063 120.86 210.063 121.477C210.063 122 209.912 122.466 209.609 122.875C209.309 123.28 208.891 123.598 208.353 123.83C207.819 124.061 207.2 124.176 206.495 124.176C205.518 124.176 204.72 123.968 204.103 123.551C203.486 123.131 203.107 122.534 202.967 121.761L204.609 121.511C204.711 121.939 204.921 122.263 205.239 122.483C205.558 122.699 205.972 122.807 206.484 122.807C207.04 122.807 207.486 122.691 207.819 122.46C208.152 122.225 208.319 121.939 208.319 121.602C208.319 121.33 208.217 121.1 208.012 120.915C207.811 120.729 207.503 120.589 207.086 120.494L205.609 120.17C204.794 119.985 204.192 119.689 203.802 119.284C203.415 118.879 203.222 118.366 203.222 117.744C203.222 117.229 203.366 116.778 203.654 116.392C203.942 116.006 204.34 115.705 204.847 115.489C205.355 115.269 205.936 115.159 206.592 115.159C207.535 115.159 208.277 115.364 208.819 115.773C209.361 116.178 209.719 116.722 209.893 117.403ZM61.4631 143.193C60.91 143.193 60.41 143.091 59.9631 142.886C59.5161 142.678 59.1619 142.377 58.9006 141.983C58.643 141.589 58.5142 141.106 58.5142 140.534C58.5142 140.042 58.6089 139.636 58.7983 139.318C58.9877 139 59.2434 138.748 59.5653 138.562C59.8873 138.377 60.2472 138.237 60.6449 138.142C61.0426 138.047 61.4479 137.975 61.8608 137.926C62.3835 137.866 62.8078 137.816 63.1335 137.778C63.4593 137.737 63.696 137.67 63.8438 137.58C63.9915 137.489 64.0653 137.341 64.0653 137.136V137.097C64.0653 136.6 63.9252 136.216 63.6449 135.943C63.3684 135.67 62.9555 135.534 62.4062 135.534C61.8343 135.534 61.3835 135.661 61.054 135.915C60.7282 136.165 60.5028 136.443 60.3778 136.75L58.7812 136.386C58.9706 135.856 59.2472 135.428 59.6108 135.102C59.9782 134.773 60.4006 134.534 60.8778 134.386C61.3551 134.235 61.857 134.159 62.3835 134.159C62.732 134.159 63.1013 134.201 63.4915 134.284C63.8854 134.364 64.2528 134.511 64.5938 134.727C64.9384 134.943 65.2206 135.252 65.4403 135.653C65.66 136.051 65.7699 136.568 65.7699 137.205V143H64.1108V141.807H64.0426C63.9328 142.027 63.768 142.242 63.5483 142.455C63.3286 142.667 63.0464 142.843 62.7017 142.983C62.357 143.123 61.9441 143.193 61.4631 143.193ZM61.8324 141.83C62.3021 141.83 62.7036 141.737 63.0369 141.551C63.3741 141.366 63.6297 141.123 63.804 140.824C63.982 140.521 64.071 140.197 64.071 139.852V138.727C64.0104 138.788 63.893 138.845 63.7188 138.898C63.5483 138.947 63.3532 138.991 63.1335 139.028C62.9138 139.062 62.6998 139.095 62.4915 139.125C62.2831 139.152 62.1089 139.174 61.9688 139.193C61.6392 139.235 61.3381 139.305 61.0653 139.403C60.7964 139.502 60.5805 139.644 60.4176 139.83C60.2585 140.011 60.179 140.254 60.179 140.557C60.179 140.977 60.3343 141.295 60.6449 141.511C60.9555 141.723 61.3513 141.83 61.8324 141.83ZM69.7315 137.818V143H68.0327V134.273H69.6634V135.693H69.7713C69.9721 135.231 70.2865 134.86 70.7145 134.58C71.1463 134.299 71.6899 134.159 72.3452 134.159C72.9399 134.159 73.4607 134.284 73.9077 134.534C74.3546 134.78 74.7012 135.148 74.9474 135.636C75.1937 136.125 75.3168 136.729 75.3168 137.449V143H73.6179V137.653C73.6179 137.021 73.4531 136.527 73.1236 136.17C72.794 135.811 72.3414 135.631 71.7656 135.631C71.3717 135.631 71.0213 135.716 70.7145 135.886C70.4115 136.057 70.1709 136.307 69.9929 136.636C69.8187 136.962 69.7315 137.356 69.7315 137.818ZM80.8622 143.17C80.1577 143.17 79.5289 142.991 78.9759 142.631C78.4266 142.267 77.9948 141.75 77.6804 141.08C77.3698 140.405 77.2145 139.597 77.2145 138.653C77.2145 137.71 77.3717 136.903 77.6861 136.233C78.0043 135.562 78.4399 135.049 78.9929 134.693C79.5459 134.337 80.1728 134.159 80.8736 134.159C81.4152 134.159 81.8509 134.25 82.1804 134.432C82.5137 134.61 82.7713 134.818 82.9531 135.057C83.1387 135.295 83.2827 135.506 83.3849 135.688H83.4872V131.364H85.1861V143H83.527V141.642H83.3849C83.2827 141.828 83.1349 142.04 82.9418 142.278C82.7524 142.517 82.491 142.725 82.1577 142.903C81.8243 143.081 81.3925 143.17 80.8622 143.17ZM81.2372 141.722C81.7259 141.722 82.1387 141.593 82.4759 141.335C82.8168 141.074 83.0743 140.712 83.2486 140.25C83.4266 139.788 83.5156 139.25 83.5156 138.636C83.5156 138.03 83.4285 137.5 83.2543 137.045C83.08 136.591 82.8243 136.237 82.4872 135.983C82.1501 135.729 81.7334 135.602 81.2372 135.602C80.7259 135.602 80.2997 135.735 79.9588 136C79.6179 136.265 79.3603 136.627 79.1861 137.085C79.0156 137.544 78.9304 138.061 78.9304 138.636C78.9304 139.22 79.0175 139.744 79.1918 140.21C79.366 140.676 79.6236 141.045 79.9645 141.318C80.3092 141.587 80.7334 141.722 81.2372 141.722ZM93.544 137.818V143H91.8452V134.273H93.4759V135.693H93.5838C93.7846 135.231 94.099 134.86 94.527 134.58C94.9588 134.299 95.5024 134.159 96.1577 134.159C96.7524 134.159 97.2732 134.284 97.7202 134.534C98.1671 134.78 98.5137 135.148 98.7599 135.636C99.0062 136.125 99.1293 136.729 99.1293 137.449V143H97.4304V137.653C97.4304 137.021 97.2656 136.527 96.9361 136.17C96.6065 135.811 96.1539 135.631 95.5781 135.631C95.1842 135.631 94.8338 135.716 94.527 135.886C94.224 136.057 93.9834 136.307 93.8054 136.636C93.6312 136.962 93.544 137.356 93.544 137.818ZM105.084 143.176C104.266 143.176 103.552 142.989 102.942 142.614C102.332 142.239 101.858 141.714 101.521 141.04C101.184 140.366 101.016 139.578 101.016 138.676C101.016 137.771 101.184 136.979 101.521 136.301C101.858 135.623 102.332 135.097 102.942 134.722C103.552 134.347 104.266 134.159 105.084 134.159C105.902 134.159 106.616 134.347 107.226 134.722C107.836 135.097 108.309 135.623 108.646 136.301C108.983 136.979 109.152 137.771 109.152 138.676C109.152 139.578 108.983 140.366 108.646 141.04C108.309 141.714 107.836 142.239 107.226 142.614C106.616 142.989 105.902 143.176 105.084 143.176ZM105.089 141.75C105.62 141.75 106.059 141.61 106.408 141.33C106.756 141.049 107.014 140.676 107.18 140.21C107.351 139.744 107.436 139.231 107.436 138.67C107.436 138.114 107.351 137.602 107.18 137.136C107.014 136.667 106.756 136.29 106.408 136.006C106.059 135.722 105.62 135.58 105.089 135.58C104.555 135.58 104.112 135.722 103.76 136.006C103.411 136.29 103.152 136.667 102.982 137.136C102.815 137.602 102.732 138.114 102.732 138.67C102.732 139.231 102.815 139.744 102.982 140.21C103.152 140.676 103.411 141.049 103.76 141.33C104.112 141.61 104.555 141.75 105.089 141.75ZM115.122 134.273V135.636H110.355V134.273H115.122ZM111.634 132.182H113.332V140.438C113.332 140.767 113.382 141.015 113.48 141.182C113.579 141.345 113.705 141.456 113.861 141.517C114.02 141.574 114.192 141.602 114.378 141.602C114.514 141.602 114.634 141.593 114.736 141.574C114.838 141.555 114.918 141.54 114.974 141.528L115.281 142.932C115.183 142.97 115.043 143.008 114.861 143.045C114.679 143.087 114.452 143.11 114.179 143.114C113.732 143.121 113.315 143.042 112.929 142.875C112.543 142.708 112.23 142.451 111.991 142.102C111.753 141.754 111.634 141.316 111.634 140.79V132.182ZM117.001 143V134.273H118.7V143H117.001ZM117.859 132.926C117.564 132.926 117.31 132.828 117.098 132.631C116.89 132.43 116.786 132.191 116.786 131.915C116.786 131.634 116.89 131.396 117.098 131.199C117.31 130.998 117.564 130.898 117.859 130.898C118.155 130.898 118.407 130.998 118.615 131.199C118.827 131.396 118.933 131.634 118.933 131.915C118.933 132.191 118.827 132.43 118.615 132.631C118.407 132.828 118.155 132.926 117.859 132.926ZM125.139 134.273V135.636H120.207V134.273H125.139ZM121.56 143V133.261C121.56 132.716 121.679 132.263 121.918 131.903C122.156 131.54 122.473 131.269 122.866 131.091C123.26 130.909 123.688 130.818 124.151 130.818C124.491 130.818 124.783 130.847 125.026 130.903C125.268 130.956 125.448 131.006 125.565 131.051L125.168 132.426C125.088 132.403 124.986 132.377 124.861 132.347C124.736 132.312 124.584 132.295 124.406 132.295C123.993 132.295 123.698 132.398 123.52 132.602C123.346 132.807 123.259 133.102 123.259 133.489V143H121.56ZM126.892 143V134.273H128.591V143H126.892ZM127.75 132.926C127.455 132.926 127.201 132.828 126.989 132.631C126.78 132.43 126.676 132.191 126.676 131.915C126.676 131.634 126.78 131.396 126.989 131.199C127.201 130.998 127.455 130.898 127.75 130.898C128.045 130.898 128.297 130.998 128.506 131.199C128.718 131.396 128.824 131.634 128.824 131.915C128.824 132.191 128.718 132.43 128.506 132.631C128.297 132.828 128.045 132.926 127.75 132.926ZM134.553 143.176C133.708 143.176 132.981 142.985 132.371 142.602C131.765 142.216 131.299 141.684 130.973 141.006C130.647 140.328 130.484 139.551 130.484 138.676C130.484 137.79 130.651 137.008 130.984 136.33C131.318 135.648 131.787 135.116 132.393 134.733C133 134.35 133.714 134.159 134.536 134.159C135.198 134.159 135.789 134.282 136.308 134.528C136.827 134.771 137.246 135.112 137.564 135.551C137.886 135.991 138.077 136.504 138.138 137.091H136.484C136.393 136.682 136.185 136.33 135.859 136.034C135.537 135.739 135.106 135.591 134.564 135.591C134.09 135.591 133.676 135.716 133.32 135.966C132.967 136.212 132.693 136.564 132.496 137.023C132.299 137.477 132.2 138.015 132.2 138.636C132.2 139.273 132.297 139.822 132.49 140.284C132.683 140.746 132.956 141.104 133.308 141.358C133.664 141.612 134.083 141.739 134.564 141.739C134.886 141.739 135.178 141.68 135.439 141.562C135.704 141.441 135.926 141.269 136.104 141.045C136.286 140.822 136.412 140.553 136.484 140.239H138.138C138.077 140.803 137.893 141.307 137.587 141.75C137.28 142.193 136.869 142.542 136.354 142.795C135.842 143.049 135.242 143.176 134.553 143.176ZM142.494 143.193C141.941 143.193 141.441 143.091 140.994 142.886C140.547 142.678 140.193 142.377 139.932 141.983C139.674 141.589 139.545 141.106 139.545 140.534C139.545 140.042 139.64 139.636 139.83 139.318C140.019 139 140.275 138.748 140.597 138.562C140.919 138.377 141.278 138.237 141.676 138.142C142.074 138.047 142.479 137.975 142.892 137.926C143.415 137.866 143.839 137.816 144.165 137.778C144.491 137.737 144.727 137.67 144.875 137.58C145.023 137.489 145.097 137.341 145.097 137.136V137.097C145.097 136.6 144.956 136.216 144.676 135.943C144.4 135.67 143.987 135.534 143.438 135.534C142.866 135.534 142.415 135.661 142.085 135.915C141.759 136.165 141.534 136.443 141.409 136.75L139.812 136.386C140.002 135.856 140.278 135.428 140.642 135.102C141.009 134.773 141.432 134.534 141.909 134.386C142.386 134.235 142.888 134.159 143.415 134.159C143.763 134.159 144.133 134.201 144.523 134.284C144.917 134.364 145.284 134.511 145.625 134.727C145.97 134.943 146.252 135.252 146.472 135.653C146.691 136.051 146.801 136.568 146.801 137.205V143H145.142V141.807H145.074C144.964 142.027 144.799 142.242 144.58 142.455C144.36 142.667 144.078 142.843 143.733 142.983C143.388 143.123 142.975 143.193 142.494 143.193ZM142.864 141.83C143.333 141.83 143.735 141.737 144.068 141.551C144.405 141.366 144.661 141.123 144.835 140.824C145.013 140.521 145.102 140.197 145.102 139.852V138.727C145.042 138.788 144.924 138.845 144.75 138.898C144.58 138.947 144.384 138.991 144.165 139.028C143.945 139.062 143.731 139.095 143.523 139.125C143.314 139.152 143.14 139.174 143 139.193C142.67 139.235 142.369 139.305 142.097 139.403C141.828 139.502 141.612 139.644 141.449 139.83C141.29 140.011 141.21 140.254 141.21 140.557C141.21 140.977 141.366 141.295 141.676 141.511C141.987 141.723 142.383 141.83 142.864 141.83ZM153.138 134.273V135.636H148.371V134.273H153.138ZM149.649 132.182H151.348V140.438C151.348 140.767 151.397 141.015 151.496 141.182C151.594 141.345 151.721 141.456 151.876 141.517C152.036 141.574 152.208 141.602 152.393 141.602C152.53 141.602 152.649 141.593 152.751 141.574C152.854 141.555 152.933 141.54 152.99 141.528L153.297 142.932C153.198 142.97 153.058 143.008 152.876 143.045C152.695 143.087 152.467 143.11 152.195 143.114C151.748 143.121 151.331 143.042 150.945 142.875C150.558 142.708 150.246 142.451 150.007 142.102C149.768 141.754 149.649 141.316 149.649 140.79V132.182ZM155.017 143V134.273H156.716V143H155.017ZM155.875 132.926C155.58 132.926 155.326 132.828 155.114 132.631C154.905 132.43 154.801 132.191 154.801 131.915C154.801 131.634 154.905 131.396 155.114 131.199C155.326 130.998 155.58 130.898 155.875 130.898C156.17 130.898 156.422 130.998 156.631 131.199C156.843 131.396 156.949 131.634 156.949 131.915C156.949 132.191 156.843 132.43 156.631 132.631C156.422 132.828 156.17 132.926 155.875 132.926ZM162.678 143.176C161.859 143.176 161.145 142.989 160.536 142.614C159.926 142.239 159.452 141.714 159.115 141.04C158.778 140.366 158.609 139.578 158.609 138.676C158.609 137.771 158.778 136.979 159.115 136.301C159.452 135.623 159.926 135.097 160.536 134.722C161.145 134.347 161.859 134.159 162.678 134.159C163.496 134.159 164.21 134.347 164.82 134.722C165.429 135.097 165.903 135.623 166.24 136.301C166.577 136.979 166.746 137.771 166.746 138.676C166.746 139.578 166.577 140.366 166.24 141.04C165.903 141.714 165.429 142.239 164.82 142.614C164.21 142.989 163.496 143.176 162.678 143.176ZM162.683 141.75C163.214 141.75 163.653 141.61 164.001 141.33C164.35 141.049 164.607 140.676 164.774 140.21C164.945 139.744 165.03 139.231 165.03 138.67C165.03 138.114 164.945 137.602 164.774 137.136C164.607 136.667 164.35 136.29 164.001 136.006C163.653 135.722 163.214 135.58 162.683 135.58C162.149 135.58 161.706 135.722 161.354 136.006C161.005 136.29 160.746 136.667 160.575 137.136C160.409 137.602 160.325 138.114 160.325 138.67C160.325 139.231 160.409 139.744 160.575 140.21C160.746 140.676 161.005 141.049 161.354 141.33C161.706 141.61 162.149 141.75 162.683 141.75ZM170.341 137.818V143H168.642V134.273H170.273V135.693H170.381C170.581 135.231 170.896 134.86 171.324 134.58C171.756 134.299 172.299 134.159 172.955 134.159C173.549 134.159 174.07 134.284 174.517 134.534C174.964 134.78 175.311 135.148 175.557 135.636C175.803 136.125 175.926 136.729 175.926 137.449V143H174.227V137.653C174.227 137.021 174.063 136.527 173.733 136.17C173.403 135.811 172.951 135.631 172.375 135.631C171.981 135.631 171.631 135.716 171.324 135.886C171.021 136.057 170.78 136.307 170.602 136.636C170.428 136.962 170.341 137.356 170.341 137.818ZM184.744 136.403L183.205 136.676C183.14 136.479 183.038 136.292 182.898 136.114C182.761 135.936 182.576 135.79 182.341 135.676C182.106 135.562 181.813 135.506 181.46 135.506C180.979 135.506 180.578 135.614 180.256 135.83C179.934 136.042 179.773 136.316 179.773 136.653C179.773 136.945 179.881 137.18 180.097 137.358C180.313 137.536 180.661 137.682 181.142 137.795L182.528 138.114C183.331 138.299 183.93 138.585 184.324 138.972C184.718 139.358 184.915 139.86 184.915 140.477C184.915 141 184.763 141.466 184.46 141.875C184.161 142.28 183.742 142.598 183.205 142.83C182.67 143.061 182.051 143.176 181.347 143.176C180.369 143.176 179.572 142.968 178.955 142.551C178.337 142.131 177.958 141.534 177.818 140.761L179.46 140.511C179.563 140.939 179.773 141.263 180.091 141.483C180.409 141.699 180.824 141.807 181.335 141.807C181.892 141.807 182.337 141.691 182.67 141.46C183.004 141.225 183.17 140.939 183.17 140.602C183.17 140.33 183.068 140.1 182.864 139.915C182.663 139.729 182.354 139.589 181.938 139.494L180.46 139.17C179.646 138.985 179.044 138.689 178.653 138.284C178.267 137.879 178.074 137.366 178.074 136.744C178.074 136.229 178.218 135.778 178.506 135.392C178.794 135.006 179.191 134.705 179.699 134.489C180.206 134.269 180.788 134.159 181.443 134.159C182.386 134.159 183.129 134.364 183.67 134.773C184.212 135.178 184.57 135.722 184.744 136.403ZM195.17 134.273V135.636H190.239V134.273H195.17ZM191.591 143V133.261C191.591 132.716 191.71 132.263 191.949 131.903C192.188 131.54 192.504 131.269 192.898 131.091C193.292 130.909 193.72 130.818 194.182 130.818C194.523 130.818 194.814 130.847 195.057 130.903C195.299 130.956 195.479 131.006 195.597 131.051L195.199 132.426C195.119 132.403 195.017 132.377 194.892 132.347C194.767 132.312 194.616 132.295 194.438 132.295C194.025 132.295 193.729 132.398 193.551 132.602C193.377 132.807 193.29 133.102 193.29 133.489V143H191.591ZM200.256 143.176C199.438 143.176 198.723 142.989 198.114 142.614C197.504 142.239 197.03 141.714 196.693 141.04C196.356 140.366 196.188 139.578 196.188 138.676C196.188 137.771 196.356 136.979 196.693 136.301C197.03 135.623 197.504 135.097 198.114 134.722C198.723 134.347 199.438 134.159 200.256 134.159C201.074 134.159 201.788 134.347 202.398 134.722C203.008 135.097 203.481 135.623 203.818 136.301C204.155 136.979 204.324 137.771 204.324 138.676C204.324 139.578 204.155 140.366 203.818 141.04C203.481 141.714 203.008 142.239 202.398 142.614C201.788 142.989 201.074 143.176 200.256 143.176ZM200.261 141.75C200.792 141.75 201.231 141.61 201.58 141.33C201.928 141.049 202.186 140.676 202.352 140.21C202.523 139.744 202.608 139.231 202.608 138.67C202.608 138.114 202.523 137.602 202.352 137.136C202.186 136.667 201.928 136.29 201.58 136.006C201.231 135.722 200.792 135.58 200.261 135.58C199.727 135.58 199.284 135.722 198.932 136.006C198.583 136.29 198.324 136.667 198.153 137.136C197.987 137.602 197.903 138.114 197.903 138.67C197.903 139.231 197.987 139.744 198.153 140.21C198.324 140.676 198.583 141.049 198.932 141.33C199.284 141.61 199.727 141.75 200.261 141.75ZM206.22 143V134.273H207.862V135.659H207.953C208.112 135.189 208.393 134.82 208.794 134.551C209.199 134.278 209.658 134.142 210.169 134.142C210.275 134.142 210.4 134.146 210.544 134.153C210.692 134.161 210.807 134.17 210.891 134.182V135.807C210.822 135.788 210.701 135.767 210.527 135.744C210.353 135.718 210.179 135.705 210.004 135.705C209.603 135.705 209.245 135.79 208.93 135.96C208.62 136.127 208.374 136.36 208.192 136.659C208.01 136.955 207.919 137.292 207.919 137.67V143H206.22ZM72.6278 162.17C71.9233 162.17 71.2945 161.991 70.7415 161.631C70.1922 161.267 69.7604 160.75 69.446 160.08C69.1354 159.405 68.9801 158.597 68.9801 157.653C68.9801 156.71 69.1373 155.903 69.4517 155.233C69.7699 154.562 70.2055 154.049 70.7585 153.693C71.3116 153.337 71.9384 153.159 72.6392 153.159C73.1809 153.159 73.6165 153.25 73.946 153.432C74.2794 153.61 74.5369 153.818 74.7188 154.057C74.9044 154.295 75.0483 154.506 75.1506 154.688H75.2528V150.364H76.9517V162H75.2926V160.642H75.1506C75.0483 160.828 74.9006 161.04 74.7074 161.278C74.518 161.517 74.2566 161.725 73.9233 161.903C73.59 162.081 73.1581 162.17 72.6278 162.17ZM73.0028 160.722C73.4915 160.722 73.9044 160.593 74.2415 160.335C74.5824 160.074 74.84 159.712 75.0142 159.25C75.1922 158.788 75.2812 158.25 75.2812 157.636C75.2812 157.03 75.1941 156.5 75.0199 156.045C74.8456 155.591 74.59 155.237 74.2528 154.983C73.9157 154.729 73.4991 154.602 73.0028 154.602C72.4915 154.602 72.0653 154.735 71.7244 155C71.3835 155.265 71.1259 155.627 70.9517 156.085C70.7813 156.544 70.696 157.061 70.696 157.636C70.696 158.22 70.7831 158.744 70.9574 159.21C71.1316 159.676 71.3892 160.045 71.7301 160.318C72.0748 160.587 72.4991 160.722 73.0028 160.722ZM79.3764 162V153.273H81.0753V162H79.3764ZM80.2344 151.926C79.9389 151.926 79.6851 151.828 79.473 151.631C79.2647 151.43 79.1605 151.191 79.1605 150.915C79.1605 150.634 79.2647 150.396 79.473 150.199C79.6851 149.998 79.9389 149.898 80.2344 149.898C80.5298 149.898 80.7817 149.998 80.9901 150.199C81.2022 150.396 81.3082 150.634 81.3082 150.915C81.3082 151.191 81.2022 151.43 80.9901 151.631C80.7817 151.828 80.5298 151.926 80.2344 151.926ZM87.5142 153.273V154.636H82.5824V153.273H87.5142ZM83.9347 162V152.261C83.9347 151.716 84.054 151.263 84.2926 150.903C84.5313 150.54 84.8475 150.269 85.2415 150.091C85.6354 149.909 86.0634 149.818 86.5256 149.818C86.8665 149.818 87.1581 149.847 87.4006 149.903C87.643 149.956 87.8229 150.006 87.9403 150.051L87.5426 151.426C87.4631 151.403 87.3608 151.377 87.2358 151.347C87.1108 151.312 86.9593 151.295 86.7812 151.295C86.3684 151.295 86.0729 151.398 85.8949 151.602C85.7206 151.807 85.6335 152.102 85.6335 152.489V162H83.9347ZM93.4205 153.273V154.636H88.4886V153.273H93.4205ZM89.8409 162V152.261C89.8409 151.716 89.9602 151.263 90.1989 150.903C90.4375 150.54 90.7538 150.269 91.1477 150.091C91.5417 149.909 91.9697 149.818 92.4318 149.818C92.7727 149.818 93.0644 149.847 93.3068 149.903C93.5492 149.956 93.7292 150.006 93.8466 150.051L93.4489 151.426C93.3693 151.403 93.267 151.377 93.142 151.347C93.017 151.312 92.8655 151.295 92.6875 151.295C92.2746 151.295 91.9792 151.398 91.8011 151.602C91.6269 151.807 91.5398 152.102 91.5398 152.489V162H89.8409ZM98.5909 162.176C97.7311 162.176 96.9905 161.992 96.3693 161.625C95.7519 161.254 95.2746 160.733 94.9375 160.062C94.6042 159.388 94.4375 158.598 94.4375 157.693C94.4375 156.799 94.6042 156.011 94.9375 155.33C95.2746 154.648 95.7443 154.116 96.3466 153.733C96.9527 153.35 97.661 153.159 98.4716 153.159C98.964 153.159 99.4413 153.241 99.9034 153.403C100.366 153.566 100.78 153.822 101.148 154.17C101.515 154.519 101.805 154.972 102.017 155.528C102.229 156.081 102.335 156.754 102.335 157.545V158.148H95.3977V156.875H100.67C100.67 156.428 100.58 156.032 100.398 155.688C100.216 155.339 99.9602 155.064 99.6307 154.864C99.3049 154.663 98.9223 154.562 98.483 154.562C98.0057 154.562 97.589 154.68 97.233 154.915C96.8807 155.146 96.608 155.449 96.4148 155.824C96.2254 156.195 96.1307 156.598 96.1307 157.034V158.028C96.1307 158.612 96.233 159.108 96.4375 159.517C96.6458 159.926 96.9356 160.239 97.3068 160.455C97.678 160.667 98.1117 160.773 98.608 160.773C98.9299 160.773 99.2235 160.727 99.4886 160.636C99.7538 160.542 99.983 160.402 100.176 160.216C100.369 160.03 100.517 159.801 100.619 159.528L102.227 159.818C102.098 160.292 101.867 160.706 101.534 161.062C101.205 161.415 100.79 161.689 100.29 161.886C99.7936 162.08 99.2273 162.176 98.5909 162.176ZM104.22 162V153.273H105.862V154.659H105.953C106.112 154.189 106.393 153.82 106.794 153.551C107.199 153.278 107.658 153.142 108.169 153.142C108.275 153.142 108.4 153.146 108.544 153.153C108.692 153.161 108.807 153.17 108.891 153.182V154.807C108.822 154.788 108.701 154.767 108.527 154.744C108.353 154.718 108.179 154.705 108.004 154.705C107.603 154.705 107.245 154.79 106.93 154.96C106.62 155.127 106.374 155.36 106.192 155.659C106.01 155.955 105.919 156.292 105.919 156.67V162H104.22ZM113.81 162.176C112.95 162.176 112.209 161.992 111.588 161.625C110.971 161.254 110.493 160.733 110.156 160.062C109.823 159.388 109.656 158.598 109.656 157.693C109.656 156.799 109.823 156.011 110.156 155.33C110.493 154.648 110.963 154.116 111.565 153.733C112.171 153.35 112.88 153.159 113.69 153.159C114.183 153.159 114.66 153.241 115.122 153.403C115.584 153.566 115.999 153.822 116.366 154.17C116.734 154.519 117.024 154.972 117.236 155.528C117.448 156.081 117.554 156.754 117.554 157.545V158.148H110.616V156.875H115.889C115.889 156.428 115.798 156.032 115.616 155.688C115.435 155.339 115.179 155.064 114.849 154.864C114.524 154.663 114.141 154.562 113.702 154.562C113.224 154.562 112.808 154.68 112.452 154.915C112.099 155.146 111.827 155.449 111.634 155.824C111.444 156.195 111.349 156.598 111.349 157.034V158.028C111.349 158.612 111.452 159.108 111.656 159.517C111.865 159.926 112.154 160.239 112.526 160.455C112.897 160.667 113.33 160.773 113.827 160.773C114.149 160.773 114.442 160.727 114.707 160.636C114.973 160.542 115.202 160.402 115.395 160.216C115.588 160.03 115.736 159.801 115.838 159.528L117.446 159.818C117.317 160.292 117.086 160.706 116.753 161.062C116.423 161.415 116.009 161.689 115.509 161.886C115.012 162.08 114.446 162.176 113.81 162.176ZM121.138 156.818V162H119.439V153.273H121.07V154.693H121.178C121.378 154.231 121.693 153.86 122.121 153.58C122.553 153.299 123.096 153.159 123.751 153.159C124.346 153.159 124.867 153.284 125.314 153.534C125.761 153.78 126.107 154.148 126.354 154.636C126.6 155.125 126.723 155.729 126.723 156.449V162H125.024V156.653C125.024 156.021 124.859 155.527 124.53 155.17C124.2 154.811 123.748 154.631 123.172 154.631C122.778 154.631 122.428 154.716 122.121 154.886C121.818 155.057 121.577 155.307 121.399 155.636C121.225 155.962 121.138 156.356 121.138 156.818ZM133.075 153.273V154.636H128.308V153.273H133.075ZM129.587 151.182H131.286V159.438C131.286 159.767 131.335 160.015 131.433 160.182C131.532 160.345 131.659 160.456 131.814 160.517C131.973 160.574 132.145 160.602 132.331 160.602C132.467 160.602 132.587 160.593 132.689 160.574C132.791 160.555 132.871 160.54 132.928 160.528L133.234 161.932C133.136 161.97 132.996 162.008 132.814 162.045C132.632 162.087 132.405 162.11 132.132 162.114C131.685 162.121 131.268 162.042 130.882 161.875C130.496 161.708 130.183 161.451 129.945 161.102C129.706 160.754 129.587 160.316 129.587 159.79V151.182ZM141.081 162L138.513 153.273H140.268L141.979 159.682H142.064L143.78 153.273H145.536L147.24 159.653H147.325L149.024 153.273H150.78L148.217 162H146.484L144.712 155.699H144.581L142.808 162H141.081ZM155.888 162.176C155.028 162.176 154.287 161.992 153.666 161.625C153.049 161.254 152.571 160.733 152.234 160.062C151.901 159.388 151.734 158.598 151.734 157.693C151.734 156.799 151.901 156.011 152.234 155.33C152.571 154.648 153.041 154.116 153.643 153.733C154.25 153.35 154.958 153.159 155.768 153.159C156.261 153.159 156.738 153.241 157.2 153.403C157.662 153.566 158.077 153.822 158.445 154.17C158.812 154.519 159.102 154.972 159.314 155.528C159.526 156.081 159.632 156.754 159.632 157.545V158.148H152.695V156.875H157.967C157.967 156.428 157.876 156.032 157.695 155.688C157.513 155.339 157.257 155.064 156.928 154.864C156.602 154.663 156.219 154.562 155.78 154.562C155.303 154.562 154.886 154.68 154.53 154.915C154.178 155.146 153.905 155.449 153.712 155.824C153.522 156.195 153.428 156.598 153.428 157.034V158.028C153.428 158.612 153.53 159.108 153.734 159.517C153.943 159.926 154.232 160.239 154.604 160.455C154.975 160.667 155.409 160.773 155.905 160.773C156.227 160.773 156.52 160.727 156.786 160.636C157.051 160.542 157.28 160.402 157.473 160.216C157.666 160.03 157.814 159.801 157.916 159.528L159.524 159.818C159.395 160.292 159.164 160.706 158.831 161.062C158.501 161.415 158.087 161.689 157.587 161.886C157.09 162.08 156.524 162.176 155.888 162.176ZM164.057 162.193C163.504 162.193 163.004 162.091 162.557 161.886C162.11 161.678 161.756 161.377 161.494 160.983C161.237 160.589 161.108 160.106 161.108 159.534C161.108 159.042 161.203 158.636 161.392 158.318C161.581 158 161.837 157.748 162.159 157.562C162.481 157.377 162.841 157.237 163.239 157.142C163.636 157.047 164.042 156.975 164.455 156.926C164.977 156.866 165.402 156.816 165.727 156.778C166.053 156.737 166.29 156.67 166.438 156.58C166.585 156.489 166.659 156.341 166.659 156.136V156.097C166.659 155.6 166.519 155.216 166.239 154.943C165.962 154.67 165.549 154.534 165 154.534C164.428 154.534 163.977 154.661 163.648 154.915C163.322 155.165 163.097 155.443 162.972 155.75L161.375 155.386C161.564 154.856 161.841 154.428 162.205 154.102C162.572 153.773 162.994 153.534 163.472 153.386C163.949 153.235 164.451 153.159 164.977 153.159C165.326 153.159 165.695 153.201 166.085 153.284C166.479 153.364 166.847 153.511 167.188 153.727C167.532 153.943 167.814 154.252 168.034 154.653C168.254 155.051 168.364 155.568 168.364 156.205V162H166.705V160.807H166.636C166.527 161.027 166.362 161.242 166.142 161.455C165.922 161.667 165.64 161.843 165.295 161.983C164.951 162.123 164.538 162.193 164.057 162.193ZM164.426 160.83C164.896 160.83 165.297 160.737 165.631 160.551C165.968 160.366 166.223 160.123 166.398 159.824C166.576 159.521 166.665 159.197 166.665 158.852V157.727C166.604 157.788 166.487 157.845 166.312 157.898C166.142 157.947 165.947 157.991 165.727 158.028C165.508 158.062 165.294 158.095 165.085 158.125C164.877 158.152 164.703 158.174 164.562 158.193C164.233 158.235 163.932 158.305 163.659 158.403C163.39 158.502 163.174 158.644 163.011 158.83C162.852 159.011 162.773 159.254 162.773 159.557C162.773 159.977 162.928 160.295 163.239 160.511C163.549 160.723 163.945 160.83 164.426 160.83ZM174.7 153.273V154.636H169.933V153.273H174.7ZM171.212 151.182H172.911V159.438C172.911 159.767 172.96 160.015 173.058 160.182C173.157 160.345 173.284 160.456 173.439 160.517C173.598 160.574 173.77 160.602 173.956 160.602C174.092 160.602 174.212 160.593 174.314 160.574C174.416 160.555 174.496 160.54 174.553 160.528L174.859 161.932C174.761 161.97 174.621 162.008 174.439 162.045C174.257 162.087 174.03 162.11 173.757 162.114C173.31 162.121 172.893 162.042 172.507 161.875C172.121 161.708 171.808 161.451 171.57 161.102C171.331 160.754 171.212 160.316 171.212 159.79V151.182ZM178.466 156.818V162H176.767V150.364H178.443V154.693H178.551C178.756 154.223 179.068 153.85 179.489 153.574C179.909 153.297 180.458 153.159 181.136 153.159C181.735 153.159 182.258 153.282 182.705 153.528C183.155 153.775 183.504 154.142 183.75 154.631C184 155.116 184.125 155.722 184.125 156.449V162H182.426V156.653C182.426 156.013 182.261 155.517 181.932 155.165C181.602 154.809 181.144 154.631 180.557 154.631C180.155 154.631 179.795 154.716 179.477 154.886C179.163 155.057 178.915 155.307 178.733 155.636C178.555 155.962 178.466 156.356 178.466 156.818ZM190.153 162.176C189.294 162.176 188.553 161.992 187.932 161.625C187.314 161.254 186.837 160.733 186.5 160.062C186.167 159.388 186 158.598 186 157.693C186 156.799 186.167 156.011 186.5 155.33C186.837 154.648 187.307 154.116 187.909 153.733C188.515 153.35 189.223 153.159 190.034 153.159C190.527 153.159 191.004 153.241 191.466 153.403C191.928 153.566 192.343 153.822 192.71 154.17C193.078 154.519 193.367 154.972 193.58 155.528C193.792 156.081 193.898 156.754 193.898 157.545V158.148H186.96V156.875H192.233C192.233 156.428 192.142 156.032 191.96 155.688C191.778 155.339 191.523 155.064 191.193 154.864C190.867 154.663 190.485 154.562 190.045 154.562C189.568 154.562 189.152 154.68 188.795 154.915C188.443 155.146 188.17 155.449 187.977 155.824C187.788 156.195 187.693 156.598 187.693 157.034V158.028C187.693 158.612 187.795 159.108 188 159.517C188.208 159.926 188.498 160.239 188.869 160.455C189.241 160.667 189.674 160.773 190.17 160.773C190.492 160.773 190.786 160.727 191.051 160.636C191.316 160.542 191.545 160.402 191.739 160.216C191.932 160.03 192.08 159.801 192.182 159.528L193.79 159.818C193.661 160.292 193.43 160.706 193.097 161.062C192.767 161.415 192.352 161.689 191.852 161.886C191.356 162.08 190.79 162.176 190.153 162.176ZM195.783 162V153.273H197.425V154.659H197.516C197.675 154.189 197.955 153.82 198.357 153.551C198.762 153.278 199.22 153.142 199.732 153.142C199.838 153.142 199.963 153.146 200.107 153.153C200.254 153.161 200.37 153.17 200.453 153.182V154.807C200.385 154.788 200.264 154.767 200.089 154.744C199.915 154.718 199.741 154.705 199.567 154.705C199.165 154.705 198.807 154.79 198.493 154.96C198.182 155.127 197.936 155.36 197.754 155.659C197.572 155.955 197.482 156.292 197.482 156.67V162H195.783ZM99.3182 181.176C98.4735 181.176 97.7462 180.985 97.1364 180.602C96.5303 180.216 96.0644 179.684 95.7386 179.006C95.4129 178.328 95.25 177.551 95.25 176.676C95.25 175.79 95.4167 175.008 95.75 174.33C96.0833 173.648 96.553 173.116 97.1591 172.733C97.7652 172.35 98.4792 172.159 99.3011 172.159C99.964 172.159 100.555 172.282 101.074 172.528C101.593 172.771 102.011 173.112 102.33 173.551C102.652 173.991 102.843 174.504 102.903 175.091H101.25C101.159 174.682 100.951 174.33 100.625 174.034C100.303 173.739 99.8712 173.591 99.3295 173.591C98.8561 173.591 98.4413 173.716 98.0852 173.966C97.733 174.212 97.4583 174.564 97.2614 175.023C97.0644 175.477 96.9659 176.015 96.9659 176.636C96.9659 177.273 97.0625 177.822 97.2557 178.284C97.4489 178.746 97.7216 179.104 98.0739 179.358C98.4299 179.612 98.8485 179.739 99.3295 179.739C99.6515 179.739 99.9432 179.68 100.205 179.562C100.47 179.441 100.691 179.269 100.869 179.045C101.051 178.822 101.178 178.553 101.25 178.239H102.903C102.843 178.803 102.659 179.307 102.352 179.75C102.045 180.193 101.634 180.542 101.119 180.795C100.608 181.049 100.008 181.176 99.3182 181.176ZM108.396 181.176C107.578 181.176 106.864 180.989 106.254 180.614C105.644 180.239 105.171 179.714 104.834 179.04C104.497 178.366 104.328 177.578 104.328 176.676C104.328 175.771 104.497 174.979 104.834 174.301C105.171 173.623 105.644 173.097 106.254 172.722C106.864 172.347 107.578 172.159 108.396 172.159C109.214 172.159 109.929 172.347 110.538 172.722C111.148 173.097 111.622 173.623 111.959 174.301C112.296 174.979 112.464 175.771 112.464 176.676C112.464 177.578 112.296 178.366 111.959 179.04C111.622 179.714 111.148 180.239 110.538 180.614C109.929 180.989 109.214 181.176 108.396 181.176ZM108.402 179.75C108.932 179.75 109.372 179.61 109.72 179.33C110.069 179.049 110.326 178.676 110.493 178.21C110.663 177.744 110.749 177.231 110.749 176.67C110.749 176.114 110.663 175.602 110.493 175.136C110.326 174.667 110.069 174.29 109.72 174.006C109.372 173.722 108.932 173.58 108.402 173.58C107.868 173.58 107.425 173.722 107.072 174.006C106.724 174.29 106.464 174.667 106.294 175.136C106.127 175.602 106.044 176.114 106.044 176.67C106.044 177.231 106.127 177.744 106.294 178.21C106.464 178.676 106.724 179.049 107.072 179.33C107.425 179.61 107.868 179.75 108.402 179.75ZM116.06 175.818V181H114.361V172.273H115.991V173.693H116.099C116.3 173.231 116.615 172.86 117.043 172.58C117.474 172.299 118.018 172.159 118.673 172.159C119.268 172.159 119.789 172.284 120.236 172.534C120.683 172.78 121.029 173.148 121.276 173.636C121.522 174.125 121.645 174.729 121.645 175.449V181H119.946V175.653C119.946 175.021 119.781 174.527 119.452 174.17C119.122 173.811 118.67 173.631 118.094 173.631C117.7 173.631 117.349 173.716 117.043 173.886C116.74 174.057 116.499 174.307 116.321 174.636C116.147 174.962 116.06 175.356 116.06 175.818ZM127.19 181.17C126.486 181.17 125.857 180.991 125.304 180.631C124.755 180.267 124.323 179.75 124.009 179.08C123.698 178.405 123.543 177.597 123.543 176.653C123.543 175.71 123.7 174.903 124.014 174.233C124.332 173.562 124.768 173.049 125.321 172.693C125.874 172.337 126.501 172.159 127.202 172.159C127.743 172.159 128.179 172.25 128.509 172.432C128.842 172.61 129.099 172.818 129.281 173.057C129.467 173.295 129.611 173.506 129.713 173.688H129.815V169.364H131.514V181H129.855V179.642H129.713C129.611 179.828 129.463 180.04 129.27 180.278C129.08 180.517 128.819 180.725 128.486 180.903C128.152 181.081 127.721 181.17 127.19 181.17ZM127.565 179.722C128.054 179.722 128.467 179.593 128.804 179.335C129.145 179.074 129.402 178.712 129.577 178.25C129.755 177.788 129.844 177.25 129.844 176.636C129.844 176.03 129.757 175.5 129.582 175.045C129.408 174.591 129.152 174.237 128.815 173.983C128.478 173.729 128.062 173.602 127.565 173.602C127.054 173.602 126.628 173.735 126.287 174C125.946 174.265 125.688 174.627 125.514 175.085C125.344 175.544 125.259 176.061 125.259 176.636C125.259 177.22 125.346 177.744 125.52 178.21C125.694 178.676 125.952 179.045 126.293 179.318C126.637 179.587 127.062 179.722 127.565 179.722ZM133.939 181V172.273H135.638V181H133.939ZM134.797 170.926C134.501 170.926 134.248 170.828 134.036 170.631C133.827 170.43 133.723 170.191 133.723 169.915C133.723 169.634 133.827 169.396 134.036 169.199C134.248 168.998 134.501 168.898 134.797 168.898C135.092 168.898 135.344 168.998 135.553 169.199C135.765 169.396 135.871 169.634 135.871 169.915C135.871 170.191 135.765 170.43 135.553 170.631C135.344 170.828 135.092 170.926 134.797 170.926ZM141.997 172.273V173.636H137.23V172.273H141.997ZM138.509 170.182H140.207V178.438C140.207 178.767 140.257 179.015 140.355 179.182C140.454 179.345 140.58 179.456 140.736 179.517C140.895 179.574 141.067 179.602 141.253 179.602C141.389 179.602 141.509 179.593 141.611 179.574C141.713 179.555 141.793 179.54 141.849 179.528L142.156 180.932C142.058 180.97 141.918 181.008 141.736 181.045C141.554 181.087 141.327 181.11 141.054 181.114C140.607 181.121 140.19 181.042 139.804 180.875C139.418 180.708 139.105 180.451 138.866 180.102C138.628 179.754 138.509 179.316 138.509 178.79V170.182ZM143.876 181V172.273H145.575V181H143.876ZM144.734 170.926C144.439 170.926 144.185 170.828 143.973 170.631C143.765 170.43 143.661 170.191 143.661 169.915C143.661 169.634 143.765 169.396 143.973 169.199C144.185 168.998 144.439 168.898 144.734 168.898C145.03 168.898 145.282 168.998 145.49 169.199C145.702 169.396 145.808 169.634 145.808 169.915C145.808 170.191 145.702 170.43 145.49 170.631C145.282 170.828 145.03 170.926 144.734 170.926ZM151.537 181.176C150.719 181.176 150.005 180.989 149.395 180.614C148.785 180.239 148.312 179.714 147.974 179.04C147.637 178.366 147.469 177.578 147.469 176.676C147.469 175.771 147.637 174.979 147.974 174.301C148.312 173.623 148.785 173.097 149.395 172.722C150.005 172.347 150.719 172.159 151.537 172.159C152.355 172.159 153.069 172.347 153.679 172.722C154.289 173.097 154.762 173.623 155.099 174.301C155.437 174.979 155.605 175.771 155.605 176.676C155.605 177.578 155.437 178.366 155.099 179.04C154.762 179.714 154.289 180.239 153.679 180.614C153.069 180.989 152.355 181.176 151.537 181.176ZM151.543 179.75C152.073 179.75 152.512 179.61 152.861 179.33C153.209 179.049 153.467 178.676 153.634 178.21C153.804 177.744 153.889 177.231 153.889 176.67C153.889 176.114 153.804 175.602 153.634 175.136C153.467 174.667 153.209 174.29 152.861 174.006C152.512 173.722 152.073 173.58 151.543 173.58C151.009 173.58 150.565 173.722 150.213 174.006C149.865 174.29 149.605 174.667 149.435 175.136C149.268 175.602 149.185 176.114 149.185 176.67C149.185 177.231 149.268 177.744 149.435 178.21C149.605 178.676 149.865 179.049 150.213 179.33C150.565 179.61 151.009 179.75 151.543 179.75ZM159.2 175.818V181H157.501V172.273H159.132V173.693H159.24C159.441 173.231 159.755 172.86 160.183 172.58C160.615 172.299 161.159 172.159 161.814 172.159C162.409 172.159 162.929 172.284 163.376 172.534C163.823 172.78 164.17 173.148 164.416 173.636C164.662 174.125 164.786 174.729 164.786 175.449V181H163.087V175.653C163.087 175.021 162.922 174.527 162.592 174.17C162.263 173.811 161.81 173.631 161.234 173.631C160.84 173.631 160.49 173.716 160.183 173.886C159.88 174.057 159.64 174.307 159.462 174.636C159.287 174.962 159.2 175.356 159.2 175.818ZM173.604 174.403L172.064 174.676C172 174.479 171.897 174.292 171.757 174.114C171.621 173.936 171.435 173.79 171.2 173.676C170.965 173.562 170.672 173.506 170.32 173.506C169.839 173.506 169.437 173.614 169.115 173.83C168.793 174.042 168.632 174.316 168.632 174.653C168.632 174.945 168.74 175.18 168.956 175.358C169.172 175.536 169.52 175.682 170.001 175.795L171.388 176.114C172.191 176.299 172.789 176.585 173.183 176.972C173.577 177.358 173.774 177.86 173.774 178.477C173.774 179 173.623 179.466 173.32 179.875C173.02 180.28 172.602 180.598 172.064 180.83C171.53 181.061 170.911 181.176 170.206 181.176C169.229 181.176 168.431 180.968 167.814 180.551C167.196 180.131 166.818 179.534 166.678 178.761L168.32 178.511C168.422 178.939 168.632 179.263 168.95 179.483C169.268 179.699 169.683 179.807 170.195 179.807C170.751 179.807 171.196 179.691 171.53 179.46C171.863 179.225 172.03 178.939 172.03 178.602C172.03 178.33 171.928 178.1 171.723 177.915C171.522 177.729 171.214 177.589 170.797 177.494L169.32 177.17C168.505 176.985 167.903 176.689 167.513 176.284C167.126 175.879 166.933 175.366 166.933 174.744C166.933 174.229 167.077 173.778 167.365 173.392C167.653 173.006 168.051 172.705 168.558 172.489C169.066 172.269 169.647 172.159 170.303 172.159C171.246 172.159 171.988 172.364 172.53 172.773C173.071 173.178 173.429 173.722 173.604 174.403Z" fill="white"/>
<path d="M137.281 52.449C138.025 51.5989 137.937 50.3083 137.084 49.5663C136.232 48.8244 134.938 48.9121 134.194 49.7622L130.665 53.7943C128.663 56.0815 127.531 58.9977 127.468 62.0328L127.313 69.4359C127.289 70.564 128.187 71.4976 129.319 71.5212C130.45 71.5447 131.386 70.6492 131.41 69.5211L131.565 62.118C131.608 60.0413 132.382 58.046 133.752 56.4811L137.281 52.449Z" fill="white"/>
<path fill-rule="evenodd" clip-rule="evenodd" d="M136.757 66.8534C137.136 60.8039 142.167 56.0912 148.245 56.0912H149.768V54.0482C149.768 52.5437 150.991 51.3241 152.5 51.3241C154.009 51.3241 155.232 52.5437 155.232 54.0482V56.0912H156.754C162.833 56.0912 167.864 60.8039 168.243 66.8534L168.847 76.4789C169.077 80.1488 170.313 83.6854 172.419 86.7035C174.322 89.4305 172.628 93.1968 169.32 93.5926L160.012 94.7064V97.6337C160.012 101.771 156.649 105.125 152.5 105.125C148.351 105.125 144.988 101.771 144.988 97.6337V94.7064L135.68 93.5926C132.372 93.1968 130.678 89.4305 132.581 86.7035C134.687 83.6854 135.923 80.1488 136.153 76.4789L136.757 66.8534ZM149.085 97.6337C149.085 99.5143 150.614 101.039 152.5 101.039C154.386 101.039 155.915 99.5143 155.915 97.6337V95.5907H149.085V97.6337Z" fill="white"/>
<path d="M167.916 49.5663C167.063 50.3083 166.975 51.5989 167.719 52.449L171.248 56.4811C172.618 58.046 173.392 60.0413 173.435 62.118L173.59 69.5211C173.614 70.6492 174.55 71.5447 175.681 71.5212C176.813 71.4976 177.711 70.564 177.687 69.4359L177.532 62.0328C177.469 58.9977 176.337 56.0815 174.335 53.7943L170.806 49.7622C170.062 48.9121 168.768 48.8244 167.916 49.5663Z" fill="white"/>
</svg>
