<svg width="270" height="270" viewBox="0 0 270 270" fill="none" xmlns="http://www.w3.org/2000/svg">
<path d="M56.25 191.25H202.5C227.353 191.25 247.5 171.103 247.5 146.25C247.5 125.143 232.969 107.43 213.365 102.57C213.619 100.29 213.75 97.973 213.75 95.625C213.75 61.4524 186.048 33.75 151.875 33.75C123.531 33.75 99.6388 52.8079 92.3126 78.8084C91.5466 78.7696 90.7756 78.75 90 78.75C65.1472 78.75 45 98.8972 45 123.75C45 124.389 45.0133 125.024 45.0397 125.656C31.9105 130.278 22.5 142.79 22.5 157.5C22.5 176.14 37.6104 191.25 56.25 191.25Z" fill="#E0A12E"/>
<path d="M92.1486 202.5H65.3514C61.1699 202.5 58.4503 206.901 60.3203 210.641L78.75 247.5L97.1797 210.641C99.0497 206.901 96.3301 202.5 92.1486 202.5Z" fill="#E0A12E"/>
<path d="M101.086 236.578L116.039 206.672C117.317 204.115 119.931 202.5 122.789 202.5C128.399 202.5 132.048 208.404 129.539 213.422L114.586 243.328C113.308 245.885 110.694 247.5 107.836 247.5C102.226 247.5 98.577 241.596 101.086 236.578Z" fill="#E0A12E"/>
<path d="M168.586 236.578L183.539 206.672C184.817 204.115 187.431 202.5 190.289 202.5C195.899 202.5 199.548 208.404 197.039 213.422L182.086 243.328C180.808 245.885 178.194 247.5 175.336 247.5C169.726 247.5 166.077 241.596 168.586 236.578Z" fill="#E0A12E"/>
<path d="M134.836 236.578L149.789 206.672C151.067 204.115 153.681 202.5 156.539 202.5C162.149 202.5 165.798 208.404 163.289 213.422L148.336 243.328C147.058 245.885 144.444 247.5 141.586 247.5C135.976 247.5 132.327 241.596 134.836 236.578Z" fill="#E0A12E"/>
<path d="M55.7614 122H53.8977L58.0852 110.364H60.1136L64.3011 122H62.4375L59.1477 112.477H59.0568L55.7614 122ZM56.0739 117.443H62.1193V118.92H56.0739V117.443ZM69.3807 122.176C68.536 122.176 67.8087 121.985 67.1989 121.602C66.5928 121.216 66.1269 120.684 65.8011 120.006C65.4754 119.328 65.3125 118.551 65.3125 117.676C65.3125 116.79 65.4792 116.008 65.8125 115.33C66.1458 114.648 66.6155 114.116 67.2216 113.733C67.8277 113.35 68.5417 113.159 69.3636 113.159C70.0265 113.159 70.6174 113.282 71.1364 113.528C71.6553 113.771 72.0739 114.112 72.392 114.551C72.714 114.991 72.9053 115.504 72.9659 116.091H71.3125C71.2216 115.682 71.0133 115.33 70.6875 115.034C70.3655 114.739 69.9337 114.591 69.392 114.591C68.9186 114.591 68.5038 114.716 68.1477 114.966C67.7955 115.212 67.5208 115.564 67.3239 116.023C67.1269 116.477 67.0284 117.015 67.0284 117.636C67.0284 118.273 67.125 118.822 67.3182 119.284C67.5114 119.746 67.7841 120.104 68.1364 120.358C68.4924 120.612 68.911 120.739 69.392 120.739C69.714 120.739 70.0057 120.68 70.267 120.562C70.5322 120.441 70.7538 120.269 70.9318 120.045C71.1136 119.822 71.2405 119.553 71.3125 119.239H72.9659C72.9053 119.803 72.7216 120.307 72.4148 120.75C72.108 121.193 71.697 121.542 71.1818 121.795C70.6705 122.049 70.0701 122.176 69.3807 122.176ZM78.4588 122.176C77.6141 122.176 76.8868 121.985 76.277 121.602C75.6709 121.216 75.205 120.684 74.8793 120.006C74.5535 119.328 74.3906 118.551 74.3906 117.676C74.3906 116.79 74.5573 116.008 74.8906 115.33C75.224 114.648 75.6937 114.116 76.2997 113.733C76.9058 113.35 77.6198 113.159 78.4418 113.159C79.1046 113.159 79.6955 113.282 80.2145 113.528C80.7334 113.771 81.152 114.112 81.4702 114.551C81.7921 114.991 81.9834 115.504 82.044 116.091H80.3906C80.2997 115.682 80.0914 115.33 79.7656 115.034C79.4437 114.739 79.0118 114.591 78.4702 114.591C77.9967 114.591 77.5819 114.716 77.2259 114.966C76.8736 115.212 76.599 115.564 76.402 116.023C76.205 116.477 76.1065 117.015 76.1065 117.636C76.1065 118.273 76.2031 118.822 76.3963 119.284C76.5895 119.746 76.8622 120.104 77.2145 120.358C77.5705 120.612 77.9891 120.739 78.4702 120.739C78.7921 120.739 79.0838 120.68 79.3452 120.562C79.6103 120.441 79.8319 120.269 80.0099 120.045C80.1918 119.822 80.3187 119.553 80.3906 119.239H82.044C81.9834 119.803 81.7997 120.307 81.4929 120.75C81.1861 121.193 80.7751 121.542 80.2599 121.795C79.7486 122.049 79.1482 122.176 78.4588 122.176ZM89.3892 118.381V113.273H91.0938V122H89.4233V120.489H89.3324C89.1316 120.955 88.8097 121.343 88.3665 121.653C87.9271 121.96 87.3797 122.114 86.7244 122.114C86.1638 122.114 85.6676 121.991 85.2358 121.744C84.8078 121.494 84.4706 121.125 84.2244 120.636C83.982 120.148 83.8608 119.544 83.8608 118.824V113.273H85.5597V118.619C85.5597 119.214 85.7244 119.687 86.054 120.04C86.3835 120.392 86.8116 120.568 87.3381 120.568C87.6563 120.568 87.9725 120.489 88.2869 120.33C88.6051 120.17 88.8684 119.93 89.0767 119.608C89.2888 119.286 89.393 118.877 89.3892 118.381ZM93.3764 122V113.273H95.0185V114.659H95.1094C95.2685 114.189 95.5488 113.82 95.9503 113.551C96.3556 113.278 96.8139 113.142 97.3253 113.142C97.4313 113.142 97.5563 113.146 97.7003 113.153C97.848 113.161 97.9635 113.17 98.0469 113.182V114.807C97.9787 114.788 97.8575 114.767 97.6832 114.744C97.509 114.718 97.3348 114.705 97.1605 114.705C96.759 114.705 96.401 114.79 96.0866 114.96C95.776 115.127 95.5298 115.36 95.348 115.659C95.1662 115.955 95.0753 116.292 95.0753 116.67V122H93.3764ZM101.979 122.193C101.426 122.193 100.926 122.091 100.479 121.886C100.032 121.678 99.6776 121.377 99.4162 120.983C99.1586 120.589 99.0298 120.106 99.0298 119.534C99.0298 119.042 99.1245 118.636 99.3139 118.318C99.5033 118 99.759 117.748 100.081 117.562C100.403 117.377 100.763 117.237 101.161 117.142C101.558 117.047 101.964 116.975 102.376 116.926C102.899 116.866 103.323 116.816 103.649 116.778C103.975 116.737 104.212 116.67 104.359 116.58C104.507 116.489 104.581 116.341 104.581 116.136V116.097C104.581 115.6 104.441 115.216 104.161 114.943C103.884 114.67 103.471 114.534 102.922 114.534C102.35 114.534 101.899 114.661 101.57 114.915C101.244 115.165 101.018 115.443 100.893 115.75L99.2969 115.386C99.4863 114.856 99.7628 114.428 100.126 114.102C100.494 113.773 100.916 113.534 101.393 113.386C101.871 113.235 102.373 113.159 102.899 113.159C103.248 113.159 103.617 113.201 104.007 113.284C104.401 113.364 104.768 113.511 105.109 113.727C105.454 113.943 105.736 114.252 105.956 114.653C106.176 115.051 106.286 115.568 106.286 116.205V122H104.626V120.807H104.558C104.448 121.027 104.284 121.242 104.064 121.455C103.844 121.667 103.562 121.843 103.217 121.983C102.873 122.123 102.46 122.193 101.979 122.193ZM102.348 120.83C102.818 120.83 103.219 120.737 103.553 120.551C103.89 120.366 104.145 120.123 104.32 119.824C104.498 119.521 104.587 119.197 104.587 118.852V117.727C104.526 117.788 104.409 117.845 104.234 117.898C104.064 117.947 103.869 117.991 103.649 118.028C103.429 118.062 103.215 118.095 103.007 118.125C102.799 118.152 102.625 118.174 102.484 118.193C102.155 118.235 101.854 118.305 101.581 118.403C101.312 118.502 101.096 118.644 100.933 118.83C100.774 119.011 100.695 119.254 100.695 119.557C100.695 119.977 100.85 120.295 101.161 120.511C101.471 120.723 101.867 120.83 102.348 120.83ZM112.622 113.273V114.636H107.855V113.273H112.622ZM109.134 111.182H110.832V119.438C110.832 119.767 110.882 120.015 110.98 120.182C111.079 120.345 111.205 120.456 111.361 120.517C111.52 120.574 111.692 120.602 111.878 120.602C112.014 120.602 112.134 120.593 112.236 120.574C112.338 120.555 112.418 120.54 112.474 120.528L112.781 121.932C112.683 121.97 112.543 122.008 112.361 122.045C112.179 122.087 111.952 122.11 111.679 122.114C111.232 122.121 110.815 122.042 110.429 121.875C110.043 121.708 109.73 121.451 109.491 121.102C109.253 120.754 109.134 120.316 109.134 119.79V111.182ZM118.169 122.176C117.309 122.176 116.569 121.992 115.947 121.625C115.33 121.254 114.853 120.733 114.516 120.062C114.182 119.388 114.016 118.598 114.016 117.693C114.016 116.799 114.182 116.011 114.516 115.33C114.853 114.648 115.322 114.116 115.925 113.733C116.531 113.35 117.239 113.159 118.05 113.159C118.542 113.159 119.019 113.241 119.482 113.403C119.944 113.566 120.358 113.822 120.726 114.17C121.093 114.519 121.383 114.972 121.595 115.528C121.807 116.081 121.913 116.754 121.913 117.545V118.148H114.976V116.875H120.249C120.249 116.428 120.158 116.032 119.976 115.688C119.794 115.339 119.538 115.064 119.209 114.864C118.883 114.663 118.5 114.562 118.061 114.562C117.584 114.562 117.167 114.68 116.811 114.915C116.459 115.146 116.186 115.449 115.993 115.824C115.804 116.195 115.709 116.598 115.709 117.034V118.028C115.709 118.612 115.811 119.108 116.016 119.517C116.224 119.926 116.514 120.239 116.885 120.455C117.256 120.667 117.69 120.773 118.186 120.773C118.508 120.773 118.802 120.727 119.067 120.636C119.332 120.542 119.561 120.402 119.754 120.216C119.947 120.03 120.095 119.801 120.197 119.528L121.805 119.818C121.677 120.292 121.446 120.706 121.112 121.062C120.783 121.415 120.368 121.689 119.868 121.886C119.372 122.08 118.805 122.176 118.169 122.176ZM130.572 122.193C130.019 122.193 129.519 122.091 129.072 121.886C128.625 121.678 128.271 121.377 128.01 120.983C127.752 120.589 127.624 120.106 127.624 119.534C127.624 119.042 127.718 118.636 127.908 118.318C128.097 118 128.353 117.748 128.675 117.562C128.997 117.377 129.357 117.237 129.754 117.142C130.152 117.047 130.557 116.975 130.97 116.926C131.493 116.866 131.917 116.816 132.243 116.778C132.569 116.737 132.805 116.67 132.953 116.58C133.101 116.489 133.175 116.341 133.175 116.136V116.097C133.175 115.6 133.035 115.216 132.754 114.943C132.478 114.67 132.065 114.534 131.516 114.534C130.944 114.534 130.493 114.661 130.163 114.915C129.838 115.165 129.612 115.443 129.487 115.75L127.891 115.386C128.08 114.856 128.357 114.428 128.72 114.102C129.088 113.773 129.51 113.534 129.987 113.386C130.464 113.235 130.966 113.159 131.493 113.159C131.841 113.159 132.211 113.201 132.601 113.284C132.995 113.364 133.362 113.511 133.703 113.727C134.048 113.943 134.33 114.252 134.55 114.653C134.769 115.051 134.879 115.568 134.879 116.205V122H133.22V120.807H133.152C133.042 121.027 132.877 121.242 132.658 121.455C132.438 121.667 132.156 121.843 131.811 121.983C131.466 122.123 131.054 122.193 130.572 122.193ZM130.942 120.83C131.411 120.83 131.813 120.737 132.146 120.551C132.483 120.366 132.739 120.123 132.913 119.824C133.091 119.521 133.18 119.197 133.18 118.852V117.727C133.12 117.788 133.002 117.845 132.828 117.898C132.658 117.947 132.463 117.991 132.243 118.028C132.023 118.062 131.809 118.095 131.601 118.125C131.393 118.152 131.218 118.174 131.078 118.193C130.749 118.235 130.447 118.305 130.175 118.403C129.906 118.502 129.69 118.644 129.527 118.83C129.368 119.011 129.288 119.254 129.288 119.557C129.288 119.977 129.444 120.295 129.754 120.511C130.065 120.723 130.461 120.83 130.942 120.83ZM138.841 116.818V122H137.142V113.273H138.773V114.693H138.881C139.081 114.231 139.396 113.86 139.824 113.58C140.256 113.299 140.799 113.159 141.455 113.159C142.049 113.159 142.57 113.284 143.017 113.534C143.464 113.78 143.811 114.148 144.057 114.636C144.303 115.125 144.426 115.729 144.426 116.449V122H142.727V116.653C142.727 116.021 142.563 115.527 142.233 115.17C141.903 114.811 141.451 114.631 140.875 114.631C140.481 114.631 140.131 114.716 139.824 114.886C139.521 115.057 139.28 115.307 139.102 115.636C138.928 115.962 138.841 116.356 138.841 116.818ZM149.972 122.17C149.267 122.17 148.638 121.991 148.085 121.631C147.536 121.267 147.104 120.75 146.79 120.08C146.479 119.405 146.324 118.597 146.324 117.653C146.324 116.71 146.481 115.903 146.795 115.233C147.114 114.562 147.549 114.049 148.102 113.693C148.655 113.337 149.282 113.159 149.983 113.159C150.525 113.159 150.96 113.25 151.29 113.432C151.623 113.61 151.881 113.818 152.062 114.057C152.248 114.295 152.392 114.506 152.494 114.688H152.597V110.364H154.295V122H152.636V120.642H152.494C152.392 120.828 152.244 121.04 152.051 121.278C151.862 121.517 151.6 121.725 151.267 121.903C150.934 122.081 150.502 122.17 149.972 122.17ZM150.347 120.722C150.835 120.722 151.248 120.593 151.585 120.335C151.926 120.074 152.184 119.712 152.358 119.25C152.536 118.788 152.625 118.25 152.625 117.636C152.625 117.03 152.538 116.5 152.364 116.045C152.189 115.591 151.934 115.237 151.597 114.983C151.259 114.729 150.843 114.602 150.347 114.602C149.835 114.602 149.409 114.735 149.068 115C148.727 115.265 148.47 115.627 148.295 116.085C148.125 116.544 148.04 117.061 148.04 117.636C148.04 118.22 148.127 118.744 148.301 119.21C148.475 119.676 148.733 120.045 149.074 120.318C149.419 120.587 149.843 120.722 150.347 120.722ZM160.955 122V113.273H162.597V114.659H162.688C162.847 114.189 163.127 113.82 163.528 113.551C163.934 113.278 164.392 113.142 164.903 113.142C165.009 113.142 165.134 113.146 165.278 113.153C165.426 113.161 165.542 113.17 165.625 113.182V114.807C165.557 114.788 165.436 114.767 165.261 114.744C165.087 114.718 164.913 114.705 164.739 114.705C164.337 114.705 163.979 114.79 163.665 114.96C163.354 115.127 163.108 115.36 162.926 115.659C162.744 115.955 162.653 116.292 162.653 116.67V122H160.955ZM170.544 122.176C169.684 122.176 168.944 121.992 168.322 121.625C167.705 121.254 167.228 120.733 166.891 120.062C166.557 119.388 166.391 118.598 166.391 117.693C166.391 116.799 166.557 116.011 166.891 115.33C167.228 114.648 167.697 114.116 168.3 113.733C168.906 113.35 169.614 113.159 170.425 113.159C170.917 113.159 171.394 113.241 171.857 113.403C172.319 113.566 172.733 113.822 173.101 114.17C173.468 114.519 173.758 114.972 173.97 115.528C174.182 116.081 174.288 116.754 174.288 117.545V118.148H167.351V116.875H172.624C172.624 116.428 172.533 116.032 172.351 115.688C172.169 115.339 171.913 115.064 171.584 114.864C171.258 114.663 170.875 114.562 170.436 114.562C169.959 114.562 169.542 114.68 169.186 114.915C168.834 115.146 168.561 115.449 168.368 115.824C168.179 116.195 168.084 116.598 168.084 117.034V118.028C168.084 118.612 168.186 119.108 168.391 119.517C168.599 119.926 168.889 120.239 169.26 120.455C169.631 120.667 170.065 120.773 170.561 120.773C170.883 120.773 171.177 120.727 171.442 120.636C171.707 120.542 171.936 120.402 172.129 120.216C172.322 120.03 172.47 119.801 172.572 119.528L174.18 119.818C174.052 120.292 173.821 120.706 173.487 121.062C173.158 121.415 172.743 121.689 172.243 121.886C171.747 122.08 171.18 122.176 170.544 122.176ZM177.872 110.364V122H176.173V110.364H177.872ZM180.158 122V113.273H181.857V122H180.158ZM181.016 111.926C180.72 111.926 180.466 111.828 180.254 111.631C180.046 111.43 179.942 111.191 179.942 110.915C179.942 110.634 180.046 110.396 180.254 110.199C180.466 109.998 180.72 109.898 181.016 109.898C181.311 109.898 181.563 109.998 181.771 110.199C181.983 110.396 182.089 110.634 182.089 110.915C182.089 111.191 181.983 111.43 181.771 111.631C181.563 111.828 181.311 111.926 181.016 111.926ZM186.682 122.193C186.129 122.193 185.629 122.091 185.182 121.886C184.735 121.678 184.381 121.377 184.119 120.983C183.862 120.589 183.733 120.106 183.733 119.534C183.733 119.042 183.828 118.636 184.017 118.318C184.206 118 184.462 117.748 184.784 117.562C185.106 117.377 185.466 117.237 185.864 117.142C186.261 117.047 186.667 116.975 187.08 116.926C187.602 116.866 188.027 116.816 188.352 116.778C188.678 116.737 188.915 116.67 189.062 116.58C189.21 116.489 189.284 116.341 189.284 116.136V116.097C189.284 115.6 189.144 115.216 188.864 114.943C188.587 114.67 188.174 114.534 187.625 114.534C187.053 114.534 186.602 114.661 186.273 114.915C185.947 115.165 185.722 115.443 185.597 115.75L184 115.386C184.189 114.856 184.466 114.428 184.83 114.102C185.197 113.773 185.619 113.534 186.097 113.386C186.574 113.235 187.076 113.159 187.602 113.159C187.951 113.159 188.32 113.201 188.71 113.284C189.104 113.364 189.472 113.511 189.812 113.727C190.157 113.943 190.439 114.252 190.659 114.653C190.879 115.051 190.989 115.568 190.989 116.205V122H189.33V120.807H189.261C189.152 121.027 188.987 121.242 188.767 121.455C188.547 121.667 188.265 121.843 187.92 121.983C187.576 122.123 187.163 122.193 186.682 122.193ZM187.051 120.83C187.521 120.83 187.922 120.737 188.256 120.551C188.593 120.366 188.848 120.123 189.023 119.824C189.201 119.521 189.29 119.197 189.29 118.852V117.727C189.229 117.788 189.112 117.845 188.938 117.898C188.767 117.947 188.572 117.991 188.352 118.028C188.133 118.062 187.919 118.095 187.71 118.125C187.502 118.152 187.328 118.174 187.188 118.193C186.858 118.235 186.557 118.305 186.284 118.403C186.015 118.502 185.799 118.644 185.636 118.83C185.477 119.011 185.398 119.254 185.398 119.557C185.398 119.977 185.553 120.295 185.864 120.511C186.174 120.723 186.57 120.83 187.051 120.83ZM193.388 122V110.364H195.087V114.688H195.189C195.287 114.506 195.429 114.295 195.615 114.057C195.801 113.818 196.058 113.61 196.388 113.432C196.717 113.25 197.153 113.159 197.695 113.159C198.399 113.159 199.028 113.337 199.581 113.693C200.134 114.049 200.568 114.562 200.882 115.233C201.2 115.903 201.359 116.71 201.359 117.653C201.359 118.597 201.202 119.405 200.888 120.08C200.573 120.75 200.142 121.267 199.592 121.631C199.043 121.991 198.416 122.17 197.712 122.17C197.181 122.17 196.748 122.081 196.411 121.903C196.077 121.725 195.816 121.517 195.626 121.278C195.437 121.04 195.291 120.828 195.189 120.642H195.047V122H193.388ZM195.053 117.636C195.053 118.25 195.142 118.788 195.32 119.25C195.498 119.712 195.755 120.074 196.092 120.335C196.429 120.593 196.842 120.722 197.331 120.722C197.839 120.722 198.263 120.587 198.604 120.318C198.945 120.045 199.202 119.676 199.376 119.21C199.554 118.744 199.643 118.22 199.643 117.636C199.643 117.061 199.556 116.544 199.382 116.085C199.212 115.627 198.954 115.265 198.609 115C198.268 114.735 197.842 114.602 197.331 114.602C196.839 114.602 196.422 114.729 196.081 114.983C195.744 115.237 195.488 115.591 195.314 116.045C195.14 116.5 195.053 117.03 195.053 117.636ZM204.966 110.364V122H203.267V110.364H204.966ZM211.013 122.176C210.153 122.176 209.412 121.992 208.791 121.625C208.174 121.254 207.696 120.733 207.359 120.062C207.026 119.388 206.859 118.598 206.859 117.693C206.859 116.799 207.026 116.011 207.359 115.33C207.696 114.648 208.166 114.116 208.768 113.733C209.375 113.35 210.083 113.159 210.893 113.159C211.386 113.159 211.863 113.241 212.325 113.403C212.787 113.566 213.202 113.822 213.57 114.17C213.937 114.519 214.227 114.972 214.439 115.528C214.651 116.081 214.757 116.754 214.757 117.545V118.148H207.82V116.875H213.092C213.092 116.428 213.001 116.032 212.82 115.688C212.638 115.339 212.382 115.064 212.053 114.864C211.727 114.663 211.344 114.562 210.905 114.562C210.428 114.562 210.011 114.68 209.655 114.915C209.303 115.146 209.03 115.449 208.837 115.824C208.647 116.195 208.553 116.598 208.553 117.034V118.028C208.553 118.612 208.655 119.108 208.859 119.517C209.068 119.926 209.357 120.239 209.729 120.455C210.1 120.667 210.534 120.773 211.03 120.773C211.352 120.773 211.645 120.727 211.911 120.636C212.176 120.542 212.405 120.402 212.598 120.216C212.791 120.03 212.939 119.801 213.041 119.528L214.649 119.818C214.52 120.292 214.289 120.706 213.956 121.062C213.626 121.415 213.212 121.689 212.712 121.886C212.215 122.08 211.649 122.176 211.013 122.176ZM68.2607 141L65.6925 132.273H67.4482L69.1584 138.682H69.2436L70.9595 132.273H72.7152L74.4197 138.653H74.505L76.2038 132.273H77.9595L75.397 141H73.6641L71.8913 134.699H71.7607L69.9879 141H68.2607ZM83.0675 141.176C82.2076 141.176 81.4671 140.992 80.8459 140.625C80.2285 140.254 79.7512 139.733 79.4141 139.062C79.0807 138.388 78.9141 137.598 78.9141 136.693C78.9141 135.799 79.0807 135.011 79.4141 134.33C79.7512 133.648 80.2209 133.116 80.8232 132.733C81.4292 132.35 82.1375 132.159 82.9482 132.159C83.4406 132.159 83.9179 132.241 84.38 132.403C84.8421 132.566 85.2569 132.822 85.6243 133.17C85.9917 133.519 86.2815 133.972 86.4936 134.528C86.7057 135.081 86.8118 135.754 86.8118 136.545V137.148H79.8743V135.875H85.147C85.147 135.428 85.0561 135.032 84.8743 134.688C84.6925 134.339 84.4368 134.064 84.1072 133.864C83.7815 133.663 83.3989 133.562 82.9595 133.562C82.4822 133.562 82.0656 133.68 81.7095 133.915C81.3572 134.146 81.0845 134.449 80.8913 134.824C80.7019 135.195 80.6072 135.598 80.6072 136.034V137.028C80.6072 137.612 80.7095 138.108 80.9141 138.517C81.1224 138.926 81.4122 139.239 81.7834 139.455C82.1546 139.667 82.5883 139.773 83.0845 139.773C83.4065 139.773 83.7 139.727 83.9652 139.636C84.2304 139.542 84.4595 139.402 84.6527 139.216C84.8459 139.03 84.9936 138.801 85.0959 138.528L86.7038 138.818C86.575 139.292 86.344 139.706 86.0107 140.062C85.6811 140.415 85.2663 140.689 84.7663 140.886C84.2701 141.08 83.7038 141.176 83.0675 141.176ZM91.2365 141.193C90.6835 141.193 90.1835 141.091 89.7365 140.886C89.2895 140.678 88.9354 140.377 88.674 139.983C88.4164 139.589 88.2876 139.106 88.2876 138.534C88.2876 138.042 88.3823 137.636 88.5717 137.318C88.7611 137 89.0168 136.748 89.3388 136.562C89.6607 136.377 90.0206 136.237 90.4183 136.142C90.8161 136.047 91.2214 135.975 91.6342 135.926C92.157 135.866 92.5812 135.816 92.907 135.778C93.2327 135.737 93.4695 135.67 93.6172 135.58C93.7649 135.489 93.8388 135.341 93.8388 135.136V135.097C93.8388 134.6 93.6986 134.216 93.4183 133.943C93.1418 133.67 92.7289 133.534 92.1797 133.534C91.6077 133.534 91.157 133.661 90.8274 133.915C90.5017 134.165 90.2763 134.443 90.1513 134.75L88.5547 134.386C88.7441 133.856 89.0206 133.428 89.3842 133.102C89.7517 132.773 90.174 132.534 90.6513 132.386C91.1286 132.235 91.6304 132.159 92.157 132.159C92.5054 132.159 92.8748 132.201 93.2649 132.284C93.6589 132.364 94.0263 132.511 94.3672 132.727C94.7119 132.943 94.9941 133.252 95.2138 133.653C95.4335 134.051 95.5433 134.568 95.5433 135.205V141H93.8842V139.807H93.8161C93.7062 140.027 93.5414 140.242 93.3217 140.455C93.102 140.667 92.8198 140.843 92.4751 140.983C92.1304 141.123 91.7176 141.193 91.2365 141.193ZM91.6058 139.83C92.0755 139.83 92.477 139.737 92.8104 139.551C93.1475 139.366 93.4032 139.123 93.5774 138.824C93.7554 138.521 93.8445 138.197 93.8445 137.852V136.727C93.7839 136.788 93.6664 136.845 93.4922 136.898C93.3217 136.947 93.1267 136.991 92.907 137.028C92.6873 137.062 92.4732 137.095 92.2649 137.125C92.0566 137.152 91.8823 137.174 91.7422 137.193C91.4126 137.235 91.1115 137.305 90.8388 137.403C90.5698 137.502 90.3539 137.644 90.1911 137.83C90.032 138.011 89.9524 138.254 89.9524 138.557C89.9524 138.977 90.1077 139.295 90.4183 139.511C90.7289 139.723 91.1248 139.83 91.6058 139.83ZM101.88 132.273V133.636H97.1129V132.273H101.88ZM98.3913 130.182H100.09V138.438C100.09 138.767 100.139 139.015 100.238 139.182C100.336 139.345 100.463 139.456 100.619 139.517C100.778 139.574 100.95 139.602 101.136 139.602C101.272 139.602 101.391 139.593 101.494 139.574C101.596 139.555 101.675 139.54 101.732 139.528L102.039 140.932C101.941 140.97 101.8 141.008 101.619 141.045C101.437 141.087 101.21 141.11 100.937 141.114C100.49 141.121 100.073 141.042 99.6868 140.875C99.3004 140.708 98.9879 140.451 98.7493 140.102C98.5107 139.754 98.3913 139.316 98.3913 138.79V130.182ZM105.646 135.818V141H103.947V129.364H105.623V133.693H105.731C105.935 133.223 106.248 132.85 106.668 132.574C107.089 132.297 107.638 132.159 108.316 132.159C108.915 132.159 109.437 132.282 109.884 132.528C110.335 132.775 110.683 133.142 110.93 133.631C111.18 134.116 111.305 134.722 111.305 135.449V141H109.606V135.653C109.606 135.013 109.441 134.517 109.112 134.165C108.782 133.809 108.324 133.631 107.737 133.631C107.335 133.631 106.975 133.716 106.657 133.886C106.343 134.057 106.094 134.307 105.913 134.636C105.735 134.962 105.646 135.356 105.646 135.818ZM117.333 141.176C116.473 141.176 115.733 140.992 115.112 140.625C114.494 140.254 114.017 139.733 113.68 139.062C113.346 138.388 113.18 137.598 113.18 136.693C113.18 135.799 113.346 135.011 113.68 134.33C114.017 133.648 114.487 133.116 115.089 132.733C115.695 132.35 116.403 132.159 117.214 132.159C117.706 132.159 118.183 132.241 118.646 132.403C119.108 132.566 119.522 132.822 119.89 133.17C120.257 133.519 120.547 133.972 120.759 134.528C120.971 135.081 121.077 135.754 121.077 136.545V137.148H114.14V135.875H119.413C119.413 135.428 119.322 135.032 119.14 134.688C118.958 134.339 118.702 134.064 118.373 133.864C118.047 133.663 117.665 133.562 117.225 133.562C116.748 133.562 116.331 133.68 115.975 133.915C115.623 134.146 115.35 134.449 115.157 134.824C114.968 135.195 114.873 135.598 114.873 136.034V137.028C114.873 137.612 114.975 138.108 115.18 138.517C115.388 138.926 115.678 139.239 116.049 139.455C116.42 139.667 116.854 139.773 117.35 139.773C117.672 139.773 117.966 139.727 118.231 139.636C118.496 139.542 118.725 139.402 118.918 139.216C119.112 139.03 119.259 138.801 119.362 138.528L120.969 138.818C120.841 139.292 120.61 139.706 120.276 140.062C119.947 140.415 119.532 140.689 119.032 140.886C118.536 141.08 117.969 141.176 117.333 141.176ZM122.962 141V132.273H124.604V133.659H124.695C124.854 133.189 125.135 132.82 125.536 132.551C125.942 132.278 126.4 132.142 126.911 132.142C127.017 132.142 127.142 132.146 127.286 132.153C127.434 132.161 127.549 132.17 127.633 132.182V133.807C127.565 133.788 127.443 133.767 127.269 133.744C127.095 133.718 126.921 133.705 126.746 133.705C126.345 133.705 125.987 133.79 125.673 133.96C125.362 134.127 125.116 134.36 124.934 134.659C124.752 134.955 124.661 135.292 124.661 135.67V141H122.962ZM137.491 132.273V133.636H132.559V132.273H137.491ZM133.911 141V131.261C133.911 130.716 134.031 130.263 134.269 129.903C134.508 129.54 134.824 129.269 135.218 129.091C135.612 128.909 136.04 128.818 136.502 128.818C136.843 128.818 137.135 128.847 137.377 128.903C137.62 128.956 137.799 129.006 137.917 129.051L137.519 130.426C137.44 130.403 137.337 130.377 137.212 130.347C137.087 130.312 136.936 130.295 136.758 130.295C136.345 130.295 136.049 130.398 135.871 130.602C135.697 130.807 135.61 131.102 135.61 131.489V141H133.911ZM142.576 141.176C141.758 141.176 141.044 140.989 140.434 140.614C139.824 140.239 139.351 139.714 139.013 139.04C138.676 138.366 138.508 137.578 138.508 136.676C138.508 135.771 138.676 134.979 139.013 134.301C139.351 133.623 139.824 133.097 140.434 132.722C141.044 132.347 141.758 132.159 142.576 132.159C143.394 132.159 144.108 132.347 144.718 132.722C145.328 133.097 145.801 133.623 146.138 134.301C146.476 134.979 146.644 135.771 146.644 136.676C146.644 137.578 146.476 138.366 146.138 139.04C145.801 139.714 145.328 140.239 144.718 140.614C144.108 140.989 143.394 141.176 142.576 141.176ZM142.582 139.75C143.112 139.75 143.551 139.61 143.9 139.33C144.248 139.049 144.506 138.676 144.673 138.21C144.843 137.744 144.928 137.231 144.928 136.67C144.928 136.114 144.843 135.602 144.673 135.136C144.506 134.667 144.248 134.29 143.9 134.006C143.551 133.722 143.112 133.58 142.582 133.58C142.048 133.58 141.604 133.722 141.252 134.006C140.904 134.29 140.644 134.667 140.474 135.136C140.307 135.602 140.224 136.114 140.224 136.67C140.224 137.231 140.307 137.744 140.474 138.21C140.644 138.676 140.904 139.049 141.252 139.33C141.604 139.61 142.048 139.75 142.582 139.75ZM148.54 141V132.273H150.183V133.659H150.273C150.433 133.189 150.713 132.82 151.114 132.551C151.52 132.278 151.978 132.142 152.489 132.142C152.595 132.142 152.72 132.146 152.864 132.153C153.012 132.161 153.128 132.17 153.211 132.182V133.807C153.143 133.788 153.022 133.767 152.847 133.744C152.673 133.718 152.499 133.705 152.325 133.705C151.923 133.705 151.565 133.79 151.251 133.96C150.94 134.127 150.694 134.36 150.512 134.659C150.33 134.955 150.239 135.292 150.239 135.67V141H148.54ZM158.13 141.176C157.27 141.176 156.53 140.992 155.908 140.625C155.291 140.254 154.814 139.733 154.477 139.062C154.143 138.388 153.977 137.598 153.977 136.693C153.977 135.799 154.143 135.011 154.477 134.33C154.814 133.648 155.283 133.116 155.886 132.733C156.492 132.35 157.2 132.159 158.011 132.159C158.503 132.159 158.98 132.241 159.442 132.403C159.905 132.566 160.319 132.822 160.687 133.17C161.054 133.519 161.344 133.972 161.556 134.528C161.768 135.081 161.874 135.754 161.874 136.545V137.148H154.937V135.875H160.21C160.21 135.428 160.119 135.032 159.937 134.688C159.755 134.339 159.499 134.064 159.17 133.864C158.844 133.663 158.461 133.562 158.022 133.562C157.545 133.562 157.128 133.68 156.772 133.915C156.42 134.146 156.147 134.449 155.954 134.824C155.764 135.195 155.67 135.598 155.67 136.034V137.028C155.67 137.612 155.772 138.108 155.977 138.517C156.185 138.926 156.475 139.239 156.846 139.455C157.217 139.667 157.651 139.773 158.147 139.773C158.469 139.773 158.763 139.727 159.028 139.636C159.293 139.542 159.522 139.402 159.715 139.216C159.908 139.03 160.056 138.801 160.158 138.528L161.766 138.818C161.638 139.292 161.406 139.706 161.073 140.062C160.744 140.415 160.329 140.689 159.829 140.886C159.333 141.08 158.766 141.176 158.13 141.176ZM167.435 141.176C166.591 141.176 165.863 140.985 165.254 140.602C164.647 140.216 164.182 139.684 163.856 139.006C163.53 138.328 163.367 137.551 163.367 136.676C163.367 135.79 163.534 135.008 163.867 134.33C164.201 133.648 164.67 133.116 165.276 132.733C165.882 132.35 166.596 132.159 167.418 132.159C168.081 132.159 168.672 132.282 169.191 132.528C169.71 132.771 170.129 133.112 170.447 133.551C170.769 133.991 170.96 134.504 171.021 135.091H169.367C169.276 134.682 169.068 134.33 168.742 134.034C168.42 133.739 167.988 133.591 167.447 133.591C166.973 133.591 166.558 133.716 166.202 133.966C165.85 134.212 165.576 134.564 165.379 135.023C165.182 135.477 165.083 136.015 165.083 136.636C165.083 137.273 165.18 137.822 165.373 138.284C165.566 138.746 165.839 139.104 166.191 139.358C166.547 139.612 166.966 139.739 167.447 139.739C167.769 139.739 168.06 139.68 168.322 139.562C168.587 139.441 168.808 139.269 168.987 139.045C169.168 138.822 169.295 138.553 169.367 138.239H171.021C170.96 138.803 170.776 139.307 170.469 139.75C170.163 140.193 169.752 140.542 169.237 140.795C168.725 141.049 168.125 141.176 167.435 141.176ZM175.377 141.193C174.824 141.193 174.324 141.091 173.877 140.886C173.43 140.678 173.076 140.377 172.815 139.983C172.557 139.589 172.428 139.106 172.428 138.534C172.428 138.042 172.523 137.636 172.712 137.318C172.902 137 173.157 136.748 173.479 136.562C173.801 136.377 174.161 136.237 174.559 136.142C174.957 136.047 175.362 135.975 175.775 135.926C176.298 135.866 176.722 135.816 177.048 135.778C177.373 135.737 177.61 135.67 177.758 135.58C177.906 135.489 177.979 135.341 177.979 135.136V135.097C177.979 134.6 177.839 134.216 177.559 133.943C177.282 133.67 176.87 133.534 176.32 133.534C175.748 133.534 175.298 133.661 174.968 133.915C174.642 134.165 174.417 134.443 174.292 134.75L172.695 134.386C172.885 133.856 173.161 133.428 173.525 133.102C173.892 132.773 174.315 132.534 174.792 132.386C175.269 132.235 175.771 132.159 176.298 132.159C176.646 132.159 177.015 132.201 177.406 132.284C177.799 132.364 178.167 132.511 178.508 132.727C178.853 132.943 179.135 133.252 179.354 133.653C179.574 134.051 179.684 134.568 179.684 135.205V141H178.025V139.807H177.957C177.847 140.027 177.682 140.242 177.462 140.455C177.243 140.667 176.96 140.843 176.616 140.983C176.271 141.123 175.858 141.193 175.377 141.193ZM175.746 139.83C176.216 139.83 176.618 139.737 176.951 139.551C177.288 139.366 177.544 139.123 177.718 138.824C177.896 138.521 177.985 138.197 177.985 137.852V136.727C177.924 136.788 177.807 136.845 177.633 136.898C177.462 136.947 177.267 136.991 177.048 137.028C176.828 137.062 176.614 137.095 176.406 137.125C176.197 137.152 176.023 137.174 175.883 137.193C175.553 137.235 175.252 137.305 174.979 137.403C174.71 137.502 174.495 137.644 174.332 137.83C174.173 138.011 174.093 138.254 174.093 138.557C174.093 138.977 174.248 139.295 174.559 139.511C174.87 139.723 175.265 139.83 175.746 139.83ZM188.487 134.403L186.947 134.676C186.882 134.479 186.78 134.292 186.64 134.114C186.504 133.936 186.318 133.79 186.083 133.676C185.848 133.562 185.555 133.506 185.202 133.506C184.721 133.506 184.32 133.614 183.998 133.83C183.676 134.042 183.515 134.316 183.515 134.653C183.515 134.945 183.623 135.18 183.839 135.358C184.055 135.536 184.403 135.682 184.884 135.795L186.271 136.114C187.074 136.299 187.672 136.585 188.066 136.972C188.46 137.358 188.657 137.86 188.657 138.477C188.657 139 188.505 139.466 188.202 139.875C187.903 140.28 187.485 140.598 186.947 140.83C186.413 141.061 185.793 141.176 185.089 141.176C184.112 141.176 183.314 140.968 182.697 140.551C182.079 140.131 181.701 139.534 181.56 138.761L183.202 138.511C183.305 138.939 183.515 139.263 183.833 139.483C184.151 139.699 184.566 139.807 185.077 139.807C185.634 139.807 186.079 139.691 186.413 139.46C186.746 139.225 186.913 138.939 186.913 138.602C186.913 138.33 186.81 138.1 186.606 137.915C186.405 137.729 186.096 137.589 185.68 137.494L184.202 137.17C183.388 136.985 182.786 136.689 182.396 136.284C182.009 135.879 181.816 135.366 181.816 134.744C181.816 134.229 181.96 133.778 182.248 133.392C182.536 133.006 182.933 132.705 183.441 132.489C183.949 132.269 184.53 132.159 185.185 132.159C186.129 132.159 186.871 132.364 187.413 132.773C187.954 133.178 188.312 133.722 188.487 134.403ZM194.599 132.273V133.636H189.832V132.273H194.599ZM191.11 130.182H192.809V138.438C192.809 138.767 192.858 139.015 192.957 139.182C193.055 139.345 193.182 139.456 193.337 139.517C193.496 139.574 193.669 139.602 193.854 139.602C193.991 139.602 194.11 139.593 194.212 139.574C194.315 139.555 194.394 139.54 194.451 139.528L194.758 140.932C194.659 140.97 194.519 141.008 194.337 141.045C194.156 141.087 193.928 141.11 193.656 141.114C193.209 141.121 192.792 141.042 192.406 140.875C192.019 140.708 191.707 140.451 191.468 140.102C191.229 139.754 191.11 139.316 191.11 138.79V130.182ZM202.877 134.403L201.337 134.676C201.273 134.479 201.171 134.292 201.031 134.114C200.894 133.936 200.709 133.79 200.474 133.676C200.239 133.562 199.945 133.506 199.593 133.506C199.112 133.506 198.71 133.614 198.388 133.83C198.067 134.042 197.906 134.316 197.906 134.653C197.906 134.945 198.013 135.18 198.229 135.358C198.445 135.536 198.794 135.682 199.275 135.795L200.661 136.114C201.464 136.299 202.063 136.585 202.457 136.972C202.851 137.358 203.048 137.86 203.048 138.477C203.048 139 202.896 139.466 202.593 139.875C202.294 140.28 201.875 140.598 201.337 140.83C200.803 141.061 200.184 141.176 199.479 141.176C198.502 141.176 197.705 140.968 197.087 140.551C196.47 140.131 196.091 139.534 195.951 138.761L197.593 138.511C197.695 138.939 197.906 139.263 198.224 139.483C198.542 139.699 198.957 139.807 199.468 139.807C200.025 139.807 200.47 139.691 200.803 139.46C201.137 139.225 201.303 138.939 201.303 138.602C201.303 138.33 201.201 138.1 200.996 137.915C200.796 137.729 200.487 137.589 200.07 137.494L198.593 137.17C197.779 136.985 197.176 136.689 196.786 136.284C196.4 135.879 196.207 135.366 196.207 134.744C196.207 134.229 196.351 133.778 196.638 133.392C196.926 133.006 197.324 132.705 197.832 132.489C198.339 132.269 198.921 132.159 199.576 132.159C200.519 132.159 201.262 132.364 201.803 132.773C202.345 133.178 202.703 133.722 202.877 134.403ZM67.4936 163.273V151.273H69.1527V152.688H69.2947C69.3932 152.506 69.5353 152.295 69.7209 152.057C69.9065 151.818 70.1641 151.61 70.4936 151.432C70.8232 151.25 71.2588 151.159 71.8004 151.159C72.505 151.159 73.1338 151.337 73.6868 151.693C74.2398 152.049 74.6735 152.562 74.9879 153.233C75.3061 153.903 75.4652 154.71 75.4652 155.653C75.4652 156.597 75.308 157.405 74.9936 158.08C74.6792 158.75 74.2474 159.267 73.6982 159.631C73.1489 159.991 72.522 160.17 71.8175 160.17C71.2872 160.17 70.8535 160.081 70.5163 159.903C70.183 159.725 69.9216 159.517 69.7322 159.278C69.5429 159.04 69.397 158.828 69.2947 158.642H69.1925V163.273H67.4936ZM69.1584 155.636C69.1584 156.25 69.2474 156.788 69.4254 157.25C69.6035 157.712 69.861 158.074 70.1982 158.335C70.5353 158.593 70.9482 158.722 71.4368 158.722C71.9444 158.722 72.3686 158.587 72.7095 158.318C73.0504 158.045 73.308 157.676 73.4822 157.21C73.6603 156.744 73.7493 156.22 73.7493 155.636C73.7493 155.061 73.6622 154.544 73.4879 154.085C73.3175 153.627 73.0599 153.265 72.7152 153C72.3743 152.735 71.9482 152.602 71.4368 152.602C70.9444 152.602 70.5277 152.729 70.1868 152.983C69.8497 153.237 69.594 153.591 69.4197 154.045C69.2455 154.5 69.1584 155.03 69.1584 155.636ZM81.0447 160.176C80.2266 160.176 79.5125 159.989 78.9027 159.614C78.2929 159.239 77.8194 158.714 77.4822 158.04C77.1451 157.366 76.9766 156.578 76.9766 155.676C76.9766 154.771 77.1451 153.979 77.4822 153.301C77.8194 152.623 78.2929 152.097 78.9027 151.722C79.5125 151.347 80.2266 151.159 81.0447 151.159C81.8629 151.159 82.5769 151.347 83.1868 151.722C83.7966 152.097 84.2701 152.623 84.6072 153.301C84.9444 153.979 85.1129 154.771 85.1129 155.676C85.1129 156.578 84.9444 157.366 84.6072 158.04C84.2701 158.714 83.7966 159.239 83.1868 159.614C82.5769 159.989 81.8629 160.176 81.0447 160.176ZM81.0504 158.75C81.5807 158.75 82.0201 158.61 82.3686 158.33C82.7171 158.049 82.9747 157.676 83.1413 157.21C83.3118 156.744 83.397 156.231 83.397 155.67C83.397 155.114 83.3118 154.602 83.1413 154.136C82.9747 153.667 82.7171 153.29 82.3686 153.006C82.0201 152.722 81.5807 152.58 81.0504 152.58C80.5163 152.58 80.0732 152.722 79.7209 153.006C79.3724 153.29 79.1129 153.667 78.9425 154.136C78.7758 154.602 78.6925 155.114 78.6925 155.67C78.6925 156.231 78.7758 156.744 78.9425 157.21C79.1129 157.676 79.3724 158.049 79.7209 158.33C80.0732 158.61 80.5163 158.75 81.0504 158.75ZM88.6357 160L86.0675 151.273H87.8232L89.5334 157.682H89.6186L91.3345 151.273H93.0902L94.7947 157.653H94.88L96.5788 151.273H98.3345L95.772 160H94.0391L92.2663 153.699H92.1357L90.3629 160H88.6357ZM103.442 160.176C102.583 160.176 101.842 159.992 101.221 159.625C100.603 159.254 100.126 158.733 99.7891 158.062C99.4557 157.388 99.2891 156.598 99.2891 155.693C99.2891 154.799 99.4557 154.011 99.7891 153.33C100.126 152.648 100.596 152.116 101.198 151.733C101.804 151.35 102.513 151.159 103.323 151.159C103.816 151.159 104.293 151.241 104.755 151.403C105.217 151.566 105.632 151.822 105.999 152.17C106.367 152.519 106.656 152.972 106.869 153.528C107.081 154.081 107.187 154.754 107.187 155.545V156.148H100.249V154.875H105.522C105.522 154.428 105.431 154.032 105.249 153.688C105.067 153.339 104.812 153.064 104.482 152.864C104.156 152.663 103.774 152.562 103.335 152.562C102.857 152.562 102.441 152.68 102.085 152.915C101.732 153.146 101.46 153.449 101.266 153.824C101.077 154.195 100.982 154.598 100.982 155.034V156.028C100.982 156.612 101.085 157.108 101.289 157.517C101.497 157.926 101.787 158.239 102.158 158.455C102.53 158.667 102.963 158.773 103.46 158.773C103.781 158.773 104.075 158.727 104.34 158.636C104.605 158.542 104.835 158.402 105.028 158.216C105.221 158.03 105.369 157.801 105.471 157.528L107.079 157.818C106.95 158.292 106.719 158.706 106.386 159.062C106.056 159.415 105.641 159.689 105.141 159.886C104.645 160.08 104.079 160.176 103.442 160.176ZM109.072 160V151.273H110.714V152.659H110.805C110.964 152.189 111.244 151.82 111.646 151.551C112.051 151.278 112.509 151.142 113.021 151.142C113.127 151.142 113.252 151.146 113.396 151.153C113.543 151.161 113.659 151.17 113.742 151.182V152.807C113.674 152.788 113.553 152.767 113.379 152.744C113.204 152.718 113.03 152.705 112.856 152.705C112.454 152.705 112.096 152.79 111.782 152.96C111.471 153.127 111.225 153.36 111.043 153.659C110.862 153.955 110.771 154.292 110.771 154.67V160H109.072ZM118.661 160.176C117.801 160.176 117.061 159.992 116.44 159.625C115.822 159.254 115.345 158.733 115.008 158.062C114.674 157.388 114.508 156.598 114.508 155.693C114.508 154.799 114.674 154.011 115.008 153.33C115.345 152.648 115.815 152.116 116.417 151.733C117.023 151.35 117.731 151.159 118.542 151.159C119.034 151.159 119.512 151.241 119.974 151.403C120.436 151.566 120.851 151.822 121.218 152.17C121.585 152.519 121.875 152.972 122.087 153.528C122.299 154.081 122.406 154.754 122.406 155.545V156.148H115.468V154.875H120.741C120.741 154.428 120.65 154.032 120.468 153.688C120.286 153.339 120.031 153.064 119.701 152.864C119.375 152.663 118.993 152.562 118.553 152.562C118.076 152.562 117.659 152.68 117.303 152.915C116.951 153.146 116.678 153.449 116.485 153.824C116.296 154.195 116.201 154.598 116.201 155.034V156.028C116.201 156.612 116.303 157.108 116.508 157.517C116.716 157.926 117.006 158.239 117.377 158.455C117.748 158.667 118.182 158.773 118.678 158.773C119 158.773 119.294 158.727 119.559 158.636C119.824 158.542 120.053 158.402 120.246 158.216C120.44 158.03 120.587 157.801 120.69 157.528L122.298 157.818C122.169 158.292 121.938 158.706 121.604 159.062C121.275 159.415 120.86 159.689 120.36 159.886C119.864 160.08 119.298 160.176 118.661 160.176ZM127.558 160.17C126.853 160.17 126.224 159.991 125.671 159.631C125.122 159.267 124.69 158.75 124.376 158.08C124.065 157.405 123.91 156.597 123.91 155.653C123.91 154.71 124.067 153.903 124.381 153.233C124.7 152.562 125.135 152.049 125.688 151.693C126.241 151.337 126.868 151.159 127.569 151.159C128.111 151.159 128.546 151.25 128.876 151.432C129.209 151.61 129.467 151.818 129.648 152.057C129.834 152.295 129.978 152.506 130.08 152.688H130.183V148.364H131.881V160H130.222V158.642H130.08C129.978 158.828 129.83 159.04 129.637 159.278C129.448 159.517 129.186 159.725 128.853 159.903C128.52 160.081 128.088 160.17 127.558 160.17ZM127.933 158.722C128.421 158.722 128.834 158.593 129.171 158.335C129.512 158.074 129.77 157.712 129.944 157.25C130.122 156.788 130.211 156.25 130.211 155.636C130.211 155.03 130.124 154.5 129.95 154.045C129.775 153.591 129.52 153.237 129.183 152.983C128.845 152.729 128.429 152.602 127.933 152.602C127.421 152.602 126.995 152.735 126.654 153C126.313 153.265 126.056 153.627 125.881 154.085C125.711 154.544 125.626 155.061 125.626 155.636C125.626 156.22 125.713 156.744 125.887 157.21C126.061 157.676 126.319 158.045 126.66 158.318C127.004 158.587 127.429 158.722 127.933 158.722ZM138.677 160V148.364H140.376V152.688H140.478C140.576 152.506 140.719 152.295 140.904 152.057C141.09 151.818 141.347 151.61 141.677 151.432C142.006 151.25 142.442 151.159 142.984 151.159C143.688 151.159 144.317 151.337 144.87 151.693C145.423 152.049 145.857 152.562 146.171 153.233C146.489 153.903 146.648 154.71 146.648 155.653C146.648 156.597 146.491 157.405 146.177 158.08C145.862 158.75 145.431 159.267 144.881 159.631C144.332 159.991 143.705 160.17 143.001 160.17C142.47 160.17 142.037 160.081 141.7 159.903C141.366 159.725 141.105 159.517 140.915 159.278C140.726 159.04 140.58 158.828 140.478 158.642H140.336V160H138.677ZM140.342 155.636C140.342 156.25 140.431 156.788 140.609 157.25C140.787 157.712 141.044 158.074 141.381 158.335C141.719 158.593 142.131 158.722 142.62 158.722C143.128 158.722 143.552 158.587 143.893 158.318C144.234 158.045 144.491 157.676 144.665 157.21C144.844 156.744 144.933 156.22 144.933 155.636C144.933 155.061 144.845 154.544 144.671 154.085C144.501 153.627 144.243 153.265 143.898 153C143.558 152.735 143.131 152.602 142.62 152.602C142.128 152.602 141.711 152.729 141.37 152.983C141.033 153.237 140.777 153.591 140.603 154.045C140.429 154.5 140.342 155.03 140.342 155.636ZM149.333 163.273C149.079 163.273 148.848 163.252 148.64 163.21C148.432 163.172 148.276 163.131 148.174 163.085L148.583 161.693C148.894 161.777 149.17 161.813 149.413 161.801C149.655 161.79 149.869 161.699 150.055 161.528C150.244 161.358 150.411 161.08 150.555 160.693L150.765 160.114L147.572 151.273H149.39L151.6 158.045H151.691L153.901 151.273H155.725L152.129 161.165C151.962 161.619 151.75 162.004 151.492 162.318C151.235 162.636 150.928 162.875 150.572 163.034C150.216 163.193 149.803 163.273 149.333 163.273ZM165.232 160.176C164.388 160.176 163.66 159.985 163.05 159.602C162.444 159.216 161.978 158.684 161.653 158.006C161.327 157.328 161.164 156.551 161.164 155.676C161.164 154.79 161.331 154.008 161.664 153.33C161.997 152.648 162.467 152.116 163.073 151.733C163.679 151.35 164.393 151.159 165.215 151.159C165.878 151.159 166.469 151.282 166.988 151.528C167.507 151.771 167.925 152.112 168.244 152.551C168.566 152.991 168.757 153.504 168.817 154.091H167.164C167.073 153.682 166.865 153.33 166.539 153.034C166.217 152.739 165.785 152.591 165.244 152.591C164.77 152.591 164.355 152.716 163.999 152.966C163.647 153.212 163.372 153.564 163.175 154.023C162.978 154.477 162.88 155.015 162.88 155.636C162.88 156.273 162.977 156.822 163.17 157.284C163.363 157.746 163.636 158.104 163.988 158.358C164.344 158.612 164.763 158.739 165.244 158.739C165.566 158.739 165.857 158.68 166.119 158.562C166.384 158.441 166.605 158.269 166.783 158.045C166.965 157.822 167.092 157.553 167.164 157.239H168.817C168.757 157.803 168.573 158.307 168.266 158.75C167.96 159.193 167.549 159.542 167.033 159.795C166.522 160.049 165.922 160.176 165.232 160.176ZM172.333 148.364V160H170.634V148.364H172.333ZM178.295 160.176C177.477 160.176 176.763 159.989 176.153 159.614C175.543 159.239 175.069 158.714 174.732 158.04C174.395 157.366 174.227 156.578 174.227 155.676C174.227 154.771 174.395 153.979 174.732 153.301C175.069 152.623 175.543 152.097 176.153 151.722C176.763 151.347 177.477 151.159 178.295 151.159C179.113 151.159 179.827 151.347 180.437 151.722C181.047 152.097 181.52 152.623 181.857 153.301C182.194 153.979 182.363 154.771 182.363 155.676C182.363 156.578 182.194 157.366 181.857 158.04C181.52 158.714 181.047 159.239 180.437 159.614C179.827 159.989 179.113 160.176 178.295 160.176ZM178.3 158.75C178.831 158.75 179.27 158.61 179.619 158.33C179.967 158.049 180.225 157.676 180.391 157.21C180.562 156.744 180.647 156.231 180.647 155.67C180.647 155.114 180.562 154.602 180.391 154.136C180.225 153.667 179.967 153.29 179.619 153.006C179.27 152.722 178.831 152.58 178.3 152.58C177.766 152.58 177.323 152.722 176.971 153.006C176.622 153.29 176.363 153.667 176.192 154.136C176.026 154.602 175.942 155.114 175.942 155.67C175.942 156.231 176.026 156.744 176.192 157.21C176.363 157.676 176.622 158.049 176.971 158.33C177.323 158.61 177.766 158.75 178.3 158.75ZM189.788 156.381V151.273H191.492V160H189.822V158.489H189.731C189.53 158.955 189.208 159.343 188.765 159.653C188.326 159.96 187.778 160.114 187.123 160.114C186.562 160.114 186.066 159.991 185.634 159.744C185.206 159.494 184.869 159.125 184.623 158.636C184.38 158.148 184.259 157.544 184.259 156.824V151.273H185.958V156.619C185.958 157.214 186.123 157.687 186.452 158.04C186.782 158.392 187.21 158.568 187.737 158.568C188.055 158.568 188.371 158.489 188.685 158.33C189.004 158.17 189.267 157.93 189.475 157.608C189.687 157.286 189.791 156.877 189.788 156.381ZM197.042 160.17C196.337 160.17 195.709 159.991 195.156 159.631C194.606 159.267 194.174 158.75 193.86 158.08C193.549 157.405 193.394 156.597 193.394 155.653C193.394 154.71 193.551 153.903 193.866 153.233C194.184 152.562 194.62 152.049 195.173 151.693C195.726 151.337 196.353 151.159 197.053 151.159C197.595 151.159 198.031 151.25 198.36 151.432C198.693 151.61 198.951 151.818 199.133 152.057C199.318 152.295 199.462 152.506 199.565 152.688H199.667V148.364H201.366V160H199.707V158.642H199.565C199.462 158.828 199.315 159.04 199.121 159.278C198.932 159.517 198.671 159.725 198.337 159.903C198.004 160.081 197.572 160.17 197.042 160.17ZM197.417 158.722C197.906 158.722 198.318 158.593 198.656 158.335C198.996 158.074 199.254 157.712 199.428 157.25C199.606 156.788 199.695 156.25 199.695 155.636C199.695 155.03 199.608 154.5 199.434 154.045C199.26 153.591 199.004 153.237 198.667 152.983C198.33 152.729 197.913 152.602 197.417 152.602C196.906 152.602 196.479 152.735 196.138 153C195.798 153.265 195.54 153.627 195.366 154.085C195.195 154.544 195.11 155.061 195.11 155.636C195.11 156.22 195.197 156.744 195.371 157.21C195.546 157.676 195.803 158.045 196.144 158.318C196.489 158.587 196.913 158.722 197.417 158.722ZM98.5057 179.176C97.661 179.176 96.9337 178.985 96.3239 178.602C95.7178 178.216 95.2519 177.684 94.9261 177.006C94.6004 176.328 94.4375 175.551 94.4375 174.676C94.4375 173.79 94.6042 173.008 94.9375 172.33C95.2708 171.648 95.7405 171.116 96.3466 170.733C96.9527 170.35 97.6667 170.159 98.4886 170.159C99.1515 170.159 99.7424 170.282 100.261 170.528C100.78 170.771 101.199 171.112 101.517 171.551C101.839 171.991 102.03 172.504 102.091 173.091H100.438C100.347 172.682 100.138 172.33 99.8125 172.034C99.4905 171.739 99.0587 171.591 98.517 171.591C98.0436 171.591 97.6288 171.716 97.2727 171.966C96.9205 172.212 96.6458 172.564 96.4489 173.023C96.2519 173.477 96.1534 174.015 96.1534 174.636C96.1534 175.273 96.25 175.822 96.4432 176.284C96.6364 176.746 96.9091 177.104 97.2614 177.358C97.6174 177.612 98.036 177.739 98.517 177.739C98.839 177.739 99.1307 177.68 99.392 177.562C99.6572 177.441 99.8788 177.269 100.057 177.045C100.239 176.822 100.366 176.553 100.438 176.239H102.091C102.03 176.803 101.847 177.307 101.54 177.75C101.233 178.193 100.822 178.542 100.307 178.795C99.7955 179.049 99.1951 179.176 98.5057 179.176ZM107.584 179.176C106.766 179.176 106.052 178.989 105.442 178.614C104.832 178.239 104.358 177.714 104.021 177.04C103.684 176.366 103.516 175.578 103.516 174.676C103.516 173.771 103.684 172.979 104.021 172.301C104.358 171.623 104.832 171.097 105.442 170.722C106.052 170.347 106.766 170.159 107.584 170.159C108.402 170.159 109.116 170.347 109.726 170.722C110.336 171.097 110.809 171.623 111.146 172.301C111.483 172.979 111.652 173.771 111.652 174.676C111.652 175.578 111.483 176.366 111.146 177.04C110.809 177.714 110.336 178.239 109.726 178.614C109.116 178.989 108.402 179.176 107.584 179.176ZM107.589 177.75C108.12 177.75 108.559 177.61 108.908 177.33C109.256 177.049 109.514 176.676 109.68 176.21C109.851 175.744 109.936 175.231 109.936 174.67C109.936 174.114 109.851 173.602 109.68 173.136C109.514 172.667 109.256 172.29 108.908 172.006C108.559 171.722 108.12 171.58 107.589 171.58C107.055 171.58 106.612 171.722 106.26 172.006C105.911 172.29 105.652 172.667 105.482 173.136C105.315 173.602 105.232 174.114 105.232 174.67C105.232 175.231 105.315 175.744 105.482 176.21C105.652 176.676 105.911 177.049 106.26 177.33C106.612 177.61 107.055 177.75 107.589 177.75ZM113.548 179V170.273H115.179V171.693H115.287C115.469 171.212 115.766 170.837 116.179 170.568C116.592 170.295 117.086 170.159 117.662 170.159C118.245 170.159 118.734 170.295 119.128 170.568C119.526 170.841 119.819 171.216 120.009 171.693H120.099C120.308 171.227 120.639 170.856 121.094 170.58C121.548 170.299 122.09 170.159 122.719 170.159C123.51 170.159 124.156 170.407 124.656 170.903C125.16 171.4 125.412 172.148 125.412 173.148V179H123.713V173.307C123.713 172.716 123.552 172.288 123.23 172.023C122.908 171.758 122.524 171.625 122.077 171.625C121.524 171.625 121.094 171.795 120.787 172.136C120.48 172.473 120.327 172.907 120.327 173.438V179H118.634V173.199C118.634 172.725 118.486 172.345 118.19 172.057C117.895 171.769 117.51 171.625 117.037 171.625C116.715 171.625 116.418 171.71 116.145 171.881C115.876 172.047 115.658 172.28 115.491 172.58C115.329 172.879 115.247 173.225 115.247 173.619V179H113.548ZM127.689 182.273V170.273H129.348V171.688H129.49C129.589 171.506 129.731 171.295 129.916 171.057C130.102 170.818 130.359 170.61 130.689 170.432C131.018 170.25 131.454 170.159 131.996 170.159C132.7 170.159 133.329 170.337 133.882 170.693C134.435 171.049 134.869 171.562 135.183 172.233C135.501 172.903 135.661 173.71 135.661 174.653C135.661 175.597 135.503 176.405 135.189 177.08C134.875 177.75 134.443 178.267 133.893 178.631C133.344 178.991 132.717 179.17 132.013 179.17C131.482 179.17 131.049 179.081 130.712 178.903C130.378 178.725 130.117 178.517 129.928 178.278C129.738 178.04 129.592 177.828 129.49 177.642H129.388V182.273H127.689ZM129.354 174.636C129.354 175.25 129.443 175.788 129.621 176.25C129.799 176.712 130.056 177.074 130.393 177.335C130.731 177.593 131.143 177.722 131.632 177.722C132.14 177.722 132.564 177.587 132.905 177.318C133.246 177.045 133.503 176.676 133.678 176.21C133.856 175.744 133.945 175.22 133.945 174.636C133.945 174.061 133.857 173.544 133.683 173.085C133.513 172.627 133.255 172.265 132.911 172C132.57 171.735 132.143 171.602 131.632 171.602C131.14 171.602 130.723 171.729 130.382 171.983C130.045 172.237 129.789 172.591 129.615 173.045C129.441 173.5 129.354 174.03 129.354 174.636ZM143.092 175.381V170.273H144.797V179H143.126V177.489H143.036C142.835 177.955 142.513 178.343 142.07 178.653C141.63 178.96 141.083 179.114 140.428 179.114C139.867 179.114 139.371 178.991 138.939 178.744C138.511 178.494 138.174 178.125 137.928 177.636C137.685 177.148 137.564 176.544 137.564 175.824V170.273H139.263V175.619C139.263 176.214 139.428 176.687 139.757 177.04C140.087 177.392 140.515 177.568 141.041 177.568C141.359 177.568 141.676 177.489 141.99 177.33C142.308 177.17 142.571 176.93 142.78 176.608C142.992 176.286 143.096 175.877 143.092 175.381ZM151.153 170.273V171.636H146.386V170.273H151.153ZM147.665 168.182H149.364V176.438C149.364 176.767 149.413 177.015 149.511 177.182C149.61 177.345 149.737 177.456 149.892 177.517C150.051 177.574 150.223 177.602 150.409 177.602C150.545 177.602 150.665 177.593 150.767 177.574C150.869 177.555 150.949 177.54 151.006 177.528L151.312 178.932C151.214 178.97 151.074 179.008 150.892 179.045C150.71 179.087 150.483 179.11 150.21 179.114C149.763 179.121 149.347 179.042 148.96 178.875C148.574 178.708 148.261 178.451 148.023 178.102C147.784 177.754 147.665 177.316 147.665 176.79V168.182ZM153.033 179V170.273H154.732V179H153.033ZM153.891 168.926C153.595 168.926 153.341 168.828 153.129 168.631C152.921 168.43 152.817 168.191 152.817 167.915C152.817 167.634 152.921 167.396 153.129 167.199C153.341 166.998 153.595 166.898 153.891 166.898C154.186 166.898 154.438 166.998 154.646 167.199C154.858 167.396 154.964 167.634 154.964 167.915C154.964 168.191 154.858 168.43 154.646 168.631C154.438 168.828 154.186 168.926 153.891 168.926ZM158.716 173.818V179H157.017V170.273H158.648V171.693H158.756C158.956 171.231 159.271 170.86 159.699 170.58C160.131 170.299 160.674 170.159 161.33 170.159C161.924 170.159 162.445 170.284 162.892 170.534C163.339 170.78 163.686 171.148 163.932 171.636C164.178 172.125 164.301 172.729 164.301 173.449V179H162.602V173.653C162.602 173.021 162.438 172.527 162.108 172.17C161.778 171.811 161.326 171.631 160.75 171.631C160.356 171.631 160.006 171.716 159.699 171.886C159.396 172.057 159.155 172.307 158.977 172.636C158.803 172.962 158.716 173.356 158.716 173.818ZM170.239 182.455C169.545 182.455 168.949 182.364 168.449 182.182C167.953 182 167.547 181.759 167.233 181.46C166.919 181.161 166.684 180.833 166.528 180.477L167.989 179.875C168.091 180.042 168.227 180.218 168.398 180.403C168.572 180.593 168.807 180.754 169.102 180.886C169.402 181.019 169.786 181.085 170.256 181.085C170.9 181.085 171.432 180.928 171.852 180.614C172.273 180.303 172.483 179.807 172.483 179.125V177.409H172.375C172.273 177.595 172.125 177.801 171.932 178.028C171.742 178.256 171.481 178.453 171.148 178.619C170.814 178.786 170.381 178.869 169.847 178.869C169.157 178.869 168.536 178.708 167.983 178.386C167.434 178.061 166.998 177.581 166.676 176.949C166.358 176.312 166.199 175.53 166.199 174.602C166.199 173.674 166.356 172.879 166.67 172.216C166.989 171.553 167.424 171.045 167.977 170.693C168.53 170.337 169.157 170.159 169.858 170.159C170.4 170.159 170.837 170.25 171.17 170.432C171.504 170.61 171.763 170.818 171.949 171.057C172.138 171.295 172.284 171.506 172.386 171.688H172.511V170.273H174.176V179.193C174.176 179.943 174.002 180.559 173.653 181.04C173.305 181.521 172.833 181.877 172.239 182.108C171.648 182.339 170.981 182.455 170.239 182.455ZM170.222 177.46C170.71 177.46 171.123 177.347 171.46 177.119C171.801 176.888 172.059 176.559 172.233 176.131C172.411 175.699 172.5 175.182 172.5 174.58C172.5 173.992 172.413 173.475 172.239 173.028C172.064 172.581 171.809 172.233 171.472 171.983C171.134 171.729 170.718 171.602 170.222 171.602C169.71 171.602 169.284 171.735 168.943 172C168.602 172.261 168.345 172.617 168.17 173.068C168 173.519 167.915 174.023 167.915 174.58C167.915 175.152 168.002 175.653 168.176 176.085C168.35 176.517 168.608 176.854 168.949 177.097C169.294 177.339 169.718 177.46 170.222 177.46Z" fill="white"/>
<path fill-rule="evenodd" clip-rule="evenodd" d="M139.427 63.5446C142.032 59.4976 146.578 56.8125 151.755 56.8125C159.557 56.8125 165.934 62.9102 166.381 70.5995C166.553 70.5922 166.725 70.5886 166.898 70.5886C173.596 70.5886 179.025 76.0179 179.025 82.7153C179.025 89.4127 173.596 94.8421 166.898 94.8421H135.35C126.562 94.8421 119.438 87.7178 119.438 78.9295C119.438 70.1413 126.562 63.017 135.35 63.017C136.757 63.017 138.124 63.2002 139.427 63.5446ZM157.438 75.2888C158.232 74.4955 158.232 73.2094 157.438 72.4162C156.645 71.6229 155.359 71.6229 154.566 72.4162L146.523 80.459L142.543 76.4787C141.749 75.6854 140.463 75.6854 139.67 76.4787C138.877 77.2719 138.877 78.558 139.67 79.3513L145.087 84.768C145.88 85.5612 147.166 85.5612 147.959 84.768L157.438 75.2888Z" fill="white"/>
</svg>
