<svg width="270" height="270" viewBox="0 0 270 270" fill="none" xmlns="http://www.w3.org/2000/svg">
<g clip-path="url(#clip0_1_1011)">
<path d="M34.95 24L37.875 26.925C40.8 29.775 40.8 34.575 37.875 37.425L37.8 37.5C34.875 40.425 30.225 40.425 27.3 37.5L24.375 34.575C21.45 31.725 21.45 27 24.375 24.075L24.45 24C27.3 21.15 32.025 21.075 34.95 24Z" fill="#E0A12E"/>
<path d="M7.425 74.625H15.075C19.2 74.625 22.5 77.925 22.5 82.125V82.2C22.5 86.325 19.2 89.625 15 89.55H7.425C3.3 89.55 0 86.25 0 82.125V82.05C0 77.925 3.3 74.625 7.425 74.625Z" fill="#E0A12E"/>
<path d="M82.5 0H82.575C86.7 0 90 3.3 90 7.425V14.7C90 18.825 86.7 22.125 82.5 22.05H82.425C78.3 22.05 75 18.75 75 14.625V7.425C75 3.3 78.3 0 82.5 0Z" fill="#E0A12E"/>
<path d="M130.05 24C132.975 21.15 137.7 21.15 140.625 24.075C143.55 27 143.55 31.65 140.625 34.575L137.7 37.5C134.85 40.425 130.125 40.425 127.2 37.5L127.125 37.425C124.2 34.575 124.2 29.85 127.125 26.925L130.05 24Z" fill="#E0A12E"/>
<path d="M37.5 82.125C37.5 57.3 57.675 37.125 82.5 37.125C99.5398 37.125 114.389 46.6303 122.026 60.6202C113.318 68.3632 106.811 78.5282 103.563 90.0584C102.797 90.0196 102.026 90 101.25 90C81.541 90 64.7913 102.671 58.7022 120.31C45.9768 112.354 37.5 98.2166 37.5 82.125Z" fill="#E0A12E"/>
<path d="M34.95 140.175C32.025 143.1 27.3 143.1 24.375 140.175C21.45 137.25 21.45 132.6 24.3 129.6L27.225 126.675C30.15 123.75 34.875 123.75 37.8 126.675L37.875 126.75C40.725 129.6 40.8 134.325 37.875 137.25L34.95 140.175Z" fill="#E0A12E"/>
<path d="M225 213.75H78.75C60.1104 213.75 45 198.64 45 180C45 165.29 54.4105 152.778 67.5397 148.156C67.5133 147.524 67.5 146.889 67.5 146.25C67.5 121.397 87.6472 101.25 112.5 101.25C113.276 101.25 114.047 101.27 114.813 101.308C122.139 75.3079 146.031 56.25 174.375 56.25C208.548 56.25 236.25 83.9524 236.25 118.125C236.25 120.473 236.119 122.79 235.865 125.07C255.469 129.93 270 147.643 270 168.75C270 193.603 249.853 213.75 225 213.75Z" fill="#E0A12E"/>
<path d="M83.4141 225C80.5556 225 77.9425 226.615 76.6641 229.172L61.7109 259.078C59.2019 264.096 62.8508 270 68.4609 270C71.3194 270 73.9325 268.385 75.2109 265.828L90.1641 235.922C92.673 230.904 89.0242 225 83.4141 225Z" fill="#E0A12E"/>
<path d="M117.164 225C114.306 225 111.692 226.615 110.414 229.172L95.4609 259.078C92.9519 264.096 96.6008 270 102.211 270C105.069 270 107.683 268.385 108.961 265.828L123.914 235.922C126.423 230.904 122.774 225 117.164 225Z" fill="#E0A12E"/>
<path d="M184.664 225C190.274 225 193.923 230.904 191.414 235.922L176.461 265.828C175.183 268.385 172.569 270 169.711 270C164.101 270 160.452 264.096 162.961 259.078L177.914 229.172C179.192 226.615 181.806 225 184.664 225Z" fill="#E0A12E"/>
<path d="M218.414 225C215.556 225 212.942 226.615 211.664 229.172L196.711 259.078C194.202 264.096 197.851 270 203.461 270C206.319 270 208.933 268.385 210.211 265.828L225.164 235.922C227.673 230.904 224.024 225 218.414 225Z" fill="#E0A12E"/>
<path d="M150.914 225C156.524 225 160.173 230.904 157.664 235.922L142.711 265.828C141.433 268.385 138.819 270 135.961 270C130.351 270 126.702 264.096 129.211 259.078L144.164 229.172C145.442 226.615 148.056 225 150.914 225Z" fill="#E0A12E"/>
</g>
<path d="M105.42 140.148H103.647C103.579 139.769 103.452 139.436 103.266 139.148C103.081 138.86 102.853 138.616 102.585 138.415C102.316 138.214 102.014 138.062 101.681 137.96C101.352 137.858 101.001 137.807 100.63 137.807C99.9595 137.807 99.3591 137.975 98.8288 138.312C98.3023 138.65 97.8857 139.144 97.5788 139.795C97.2758 140.447 97.1243 141.242 97.1243 142.182C97.1243 143.129 97.2758 143.928 97.5788 144.58C97.8857 145.231 98.3042 145.723 98.8345 146.057C99.3648 146.39 99.9614 146.557 100.624 146.557C100.992 146.557 101.34 146.508 101.67 146.409C102.003 146.307 102.304 146.157 102.573 145.96C102.842 145.763 103.069 145.523 103.255 145.239C103.444 144.951 103.575 144.621 103.647 144.25L105.42 144.256C105.325 144.828 105.141 145.354 104.869 145.835C104.6 146.312 104.253 146.725 103.829 147.074C103.408 147.419 102.927 147.686 102.386 147.875C101.844 148.064 101.253 148.159 100.613 148.159C99.6054 148.159 98.7076 147.92 97.9197 147.443C97.1319 146.962 96.5107 146.275 96.0561 145.381C95.6054 144.487 95.38 143.42 95.38 142.182C95.38 140.939 95.6072 139.873 96.0618 138.983C96.5163 138.089 97.1375 137.403 97.9254 136.926C98.7133 136.445 99.6091 136.205 100.613 136.205C101.23 136.205 101.806 136.294 102.34 136.472C102.878 136.646 103.361 136.903 103.789 137.244C104.217 137.581 104.571 137.994 104.852 138.483C105.132 138.968 105.321 139.523 105.42 140.148ZM111.06 148.176C110.242 148.176 109.528 147.989 108.918 147.614C108.308 147.239 107.835 146.714 107.498 146.04C107.161 145.366 106.992 144.578 106.992 143.676C106.992 142.771 107.161 141.979 107.498 141.301C107.835 140.623 108.308 140.097 108.918 139.722C109.528 139.347 110.242 139.159 111.06 139.159C111.879 139.159 112.593 139.347 113.202 139.722C113.812 140.097 114.286 140.623 114.623 141.301C114.96 141.979 115.129 142.771 115.129 143.676C115.129 144.578 114.96 145.366 114.623 146.04C114.286 146.714 113.812 147.239 113.202 147.614C112.593 147.989 111.879 148.176 111.06 148.176ZM111.066 146.75C111.596 146.75 112.036 146.61 112.384 146.33C112.733 146.049 112.99 145.676 113.157 145.21C113.327 144.744 113.413 144.231 113.413 143.67C113.413 143.114 113.327 142.602 113.157 142.136C112.99 141.667 112.733 141.29 112.384 141.006C112.036 140.722 111.596 140.58 111.066 140.58C110.532 140.58 110.089 140.722 109.737 141.006C109.388 141.29 109.129 141.667 108.958 142.136C108.791 142.602 108.708 143.114 108.708 143.67C108.708 144.231 108.791 144.744 108.958 145.21C109.129 145.676 109.388 146.049 109.737 146.33C110.089 146.61 110.532 146.75 111.066 146.75ZM117.025 148V139.273H118.656V140.693H118.763C118.945 140.212 119.243 139.837 119.656 139.568C120.068 139.295 120.563 139.159 121.138 139.159C121.722 139.159 122.21 139.295 122.604 139.568C123.002 139.841 123.296 140.216 123.485 140.693H123.576C123.784 140.227 124.116 139.856 124.57 139.58C125.025 139.299 125.567 139.159 126.195 139.159C126.987 139.159 127.633 139.407 128.133 139.903C128.637 140.4 128.888 141.148 128.888 142.148V148H127.19V142.307C127.19 141.716 127.029 141.288 126.707 141.023C126.385 140.758 126 140.625 125.553 140.625C125 140.625 124.57 140.795 124.263 141.136C123.957 141.473 123.803 141.907 123.803 142.438V148H122.11V142.199C122.11 141.725 121.962 141.345 121.667 141.057C121.371 140.769 120.987 140.625 120.513 140.625C120.192 140.625 119.894 140.71 119.621 140.881C119.353 141.047 119.135 141.28 118.968 141.58C118.805 141.879 118.724 142.225 118.724 142.619V148H117.025ZM131.165 151.273V139.273H132.825V140.688H132.967C133.065 140.506 133.207 140.295 133.393 140.057C133.578 139.818 133.836 139.61 134.165 139.432C134.495 139.25 134.931 139.159 135.472 139.159C136.177 139.159 136.806 139.337 137.359 139.693C137.912 140.049 138.345 140.562 138.66 141.233C138.978 141.903 139.137 142.71 139.137 143.653C139.137 144.597 138.98 145.405 138.665 146.08C138.351 146.75 137.919 147.267 137.37 147.631C136.821 147.991 136.194 148.17 135.489 148.17C134.959 148.17 134.525 148.081 134.188 147.903C133.855 147.725 133.594 147.517 133.404 147.278C133.215 147.04 133.069 146.828 132.967 146.642H132.864V151.273H131.165ZM132.83 143.636C132.83 144.25 132.919 144.788 133.097 145.25C133.275 145.712 133.533 146.074 133.87 146.335C134.207 146.593 134.62 146.722 135.109 146.722C135.616 146.722 136.04 146.587 136.381 146.318C136.722 146.045 136.98 145.676 137.154 145.21C137.332 144.744 137.421 144.22 137.421 143.636C137.421 143.061 137.334 142.544 137.16 142.085C136.989 141.627 136.732 141.265 136.387 141C136.046 140.735 135.62 140.602 135.109 140.602C134.616 140.602 134.2 140.729 133.859 140.983C133.522 141.237 133.266 141.591 133.092 142.045C132.917 142.5 132.83 143.03 132.83 143.636ZM143.58 148.193C143.027 148.193 142.527 148.091 142.08 147.886C141.633 147.678 141.279 147.377 141.018 146.983C140.76 146.589 140.631 146.106 140.631 145.534C140.631 145.042 140.726 144.636 140.915 144.318C141.105 144 141.361 143.748 141.683 143.562C142.004 143.377 142.364 143.237 142.762 143.142C143.16 143.047 143.565 142.975 143.978 142.926C144.501 142.866 144.925 142.816 145.251 142.778C145.576 142.737 145.813 142.67 145.961 142.58C146.109 142.489 146.183 142.341 146.183 142.136V142.097C146.183 141.6 146.042 141.216 145.762 140.943C145.486 140.67 145.073 140.534 144.523 140.534C143.951 140.534 143.501 140.661 143.171 140.915C142.845 141.165 142.62 141.443 142.495 141.75L140.898 141.386C141.088 140.856 141.364 140.428 141.728 140.102C142.095 139.773 142.518 139.534 142.995 139.386C143.472 139.235 143.974 139.159 144.501 139.159C144.849 139.159 145.219 139.201 145.609 139.284C146.003 139.364 146.37 139.511 146.711 139.727C147.056 139.943 147.338 140.252 147.558 140.653C147.777 141.051 147.887 141.568 147.887 142.205V148H146.228V146.807H146.16C146.05 147.027 145.885 147.242 145.665 147.455C145.446 147.667 145.164 147.843 144.819 147.983C144.474 148.123 144.061 148.193 143.58 148.193ZM143.95 146.83C144.419 146.83 144.821 146.737 145.154 146.551C145.491 146.366 145.747 146.123 145.921 145.824C146.099 145.521 146.188 145.197 146.188 144.852V143.727C146.128 143.788 146.01 143.845 145.836 143.898C145.665 143.947 145.47 143.991 145.251 144.028C145.031 144.062 144.817 144.095 144.609 144.125C144.4 144.152 144.226 144.174 144.086 144.193C143.756 144.235 143.455 144.305 143.183 144.403C142.914 144.502 142.698 144.644 142.535 144.83C142.376 145.011 142.296 145.254 142.296 145.557C142.296 145.977 142.451 146.295 142.762 146.511C143.073 146.723 143.469 146.83 143.95 146.83ZM154.224 139.273V140.636H149.457V139.273H154.224ZM150.735 137.182H152.434V145.438C152.434 145.767 152.483 146.015 152.582 146.182C152.68 146.345 152.807 146.456 152.962 146.517C153.121 146.574 153.294 146.602 153.479 146.602C153.616 146.602 153.735 146.593 153.837 146.574C153.94 146.555 154.019 146.54 154.076 146.528L154.383 147.932C154.284 147.97 154.144 148.008 153.962 148.045C153.781 148.087 153.553 148.11 153.281 148.114C152.834 148.121 152.417 148.042 152.031 147.875C151.644 147.708 151.332 147.451 151.093 147.102C150.854 146.754 150.735 146.316 150.735 145.79V137.182ZM156.103 148V139.273H157.802V148H156.103ZM156.961 137.926C156.665 137.926 156.412 137.828 156.2 137.631C155.991 137.43 155.887 137.191 155.887 136.915C155.887 136.634 155.991 136.396 156.2 136.199C156.412 135.998 156.665 135.898 156.961 135.898C157.256 135.898 157.508 135.998 157.717 136.199C157.929 136.396 158.035 136.634 158.035 136.915C158.035 137.191 157.929 137.43 157.717 137.631C157.508 137.828 157.256 137.926 156.961 137.926ZM160.224 148V136.364H161.923V140.688H162.025C162.123 140.506 162.265 140.295 162.451 140.057C162.637 139.818 162.894 139.61 163.224 139.432C163.553 139.25 163.989 139.159 164.531 139.159C165.235 139.159 165.864 139.337 166.417 139.693C166.97 140.049 167.404 140.562 167.718 141.233C168.036 141.903 168.195 142.71 168.195 143.653C168.195 144.597 168.038 145.405 167.724 146.08C167.409 146.75 166.978 147.267 166.428 147.631C165.879 147.991 165.252 148.17 164.548 148.17C164.017 148.17 163.584 148.081 163.246 147.903C162.913 147.725 162.652 147.517 162.462 147.278C162.273 147.04 162.127 146.828 162.025 146.642H161.883V148H160.224ZM161.888 143.636C161.888 144.25 161.978 144.788 162.156 145.25C162.334 145.712 162.591 146.074 162.928 146.335C163.265 146.593 163.678 146.722 164.167 146.722C164.674 146.722 165.099 146.587 165.44 146.318C165.781 146.045 166.038 145.676 166.212 145.21C166.39 144.744 166.479 144.22 166.479 143.636C166.479 143.061 166.392 142.544 166.218 142.085C166.048 141.627 165.79 141.265 165.445 141C165.104 140.735 164.678 140.602 164.167 140.602C163.674 140.602 163.258 140.729 162.917 140.983C162.58 141.237 162.324 141.591 162.15 142.045C161.976 142.5 161.888 143.03 161.888 143.636ZM171.802 136.364V148H170.103V136.364H171.802ZM177.849 148.176C176.989 148.176 176.248 147.992 175.627 147.625C175.01 147.254 174.532 146.733 174.195 146.062C173.862 145.388 173.695 144.598 173.695 143.693C173.695 142.799 173.862 142.011 174.195 141.33C174.532 140.648 175.002 140.116 175.604 139.733C176.21 139.35 176.919 139.159 177.729 139.159C178.222 139.159 178.699 139.241 179.161 139.403C179.623 139.566 180.038 139.822 180.406 140.17C180.773 140.519 181.063 140.972 181.275 141.528C181.487 142.081 181.593 142.754 181.593 143.545V144.148H174.656V142.875H179.928C179.928 142.428 179.837 142.032 179.656 141.688C179.474 141.339 179.218 141.064 178.888 140.864C178.563 140.663 178.18 140.562 177.741 140.562C177.263 140.562 176.847 140.68 176.491 140.915C176.138 141.146 175.866 141.449 175.673 141.824C175.483 142.195 175.388 142.598 175.388 143.034V144.028C175.388 144.612 175.491 145.108 175.695 145.517C175.904 145.926 176.193 146.239 176.565 146.455C176.936 146.667 177.37 146.773 177.866 146.773C178.188 146.773 178.481 146.727 178.746 146.636C179.012 146.542 179.241 146.402 179.434 146.216C179.627 146.03 179.775 145.801 179.877 145.528L181.485 145.818C181.356 146.292 181.125 146.706 180.792 147.062C180.462 147.415 180.048 147.689 179.548 147.886C179.051 148.08 178.485 148.176 177.849 148.176ZM189.604 148L187.036 139.273H188.792L190.502 145.682H190.587L192.303 139.273H194.059L195.763 145.653H195.849L197.548 139.273H199.303L196.741 148H195.008L193.235 141.699H193.104L191.332 148H189.604ZM200.915 148V139.273H202.614V148H200.915ZM201.773 137.926C201.478 137.926 201.224 137.828 201.012 137.631C200.804 137.43 200.7 137.191 200.7 136.915C200.7 136.634 200.804 136.396 201.012 136.199C201.224 135.998 201.478 135.898 201.773 135.898C202.069 135.898 202.321 135.998 202.529 136.199C202.741 136.396 202.847 136.634 202.847 136.915C202.847 137.191 202.741 137.43 202.529 137.631C202.321 137.828 202.069 137.926 201.773 137.926ZM208.974 139.273V140.636H204.207V139.273H208.974ZM205.485 137.182H207.184V145.438C207.184 145.767 207.233 146.015 207.332 146.182C207.43 146.345 207.557 146.456 207.712 146.517C207.871 146.574 208.044 146.602 208.229 146.602C208.366 146.602 208.485 146.593 208.587 146.574C208.69 146.555 208.769 146.54 208.826 146.528L209.133 147.932C209.034 147.97 208.894 148.008 208.712 148.045C208.531 148.087 208.303 148.11 208.031 148.114C207.584 148.121 207.167 148.042 206.781 147.875C206.394 147.708 206.082 147.451 205.843 147.102C205.604 146.754 205.485 146.316 205.485 145.79V137.182ZM212.739 142.818V148H211.04V136.364H212.717V140.693H212.825C213.029 140.223 213.342 139.85 213.762 139.574C214.183 139.297 214.732 139.159 215.41 139.159C216.008 139.159 216.531 139.282 216.978 139.528C217.429 139.775 217.777 140.142 218.023 140.631C218.273 141.116 218.398 141.722 218.398 142.449V148H216.7V142.653C216.7 142.013 216.535 141.517 216.205 141.165C215.876 140.809 215.417 140.631 214.83 140.631C214.429 140.631 214.069 140.716 213.751 140.886C213.436 141.057 213.188 141.307 213.006 141.636C212.828 141.962 212.739 142.356 212.739 142.818ZM89.5142 158.273L86.3494 167H84.5312L81.3608 158.273H83.1847L85.3949 164.989H85.4858L87.6903 158.273H89.5142ZM93.4006 167.193C92.8475 167.193 92.3475 167.091 91.9006 166.886C91.4536 166.678 91.0994 166.377 90.8381 165.983C90.5805 165.589 90.4517 165.106 90.4517 164.534C90.4517 164.042 90.5464 163.636 90.7358 163.318C90.9252 163 91.1809 162.748 91.5028 162.562C91.8248 162.377 92.1847 162.237 92.5824 162.142C92.9801 162.047 93.3854 161.975 93.7983 161.926C94.321 161.866 94.7453 161.816 95.071 161.778C95.3968 161.737 95.6335 161.67 95.7812 161.58C95.929 161.489 96.0028 161.341 96.0028 161.136V161.097C96.0028 160.6 95.8627 160.216 95.5824 159.943C95.3059 159.67 94.893 159.534 94.3438 159.534C93.7718 159.534 93.321 159.661 92.9915 159.915C92.6657 160.165 92.4403 160.443 92.3153 160.75L90.7188 160.386C90.9081 159.856 91.1847 159.428 91.5483 159.102C91.9157 158.773 92.3381 158.534 92.8153 158.386C93.2926 158.235 93.7945 158.159 94.321 158.159C94.6695 158.159 95.0388 158.201 95.429 158.284C95.8229 158.364 96.1903 158.511 96.5312 158.727C96.8759 158.943 97.1581 159.252 97.3778 159.653C97.5975 160.051 97.7074 160.568 97.7074 161.205V167H96.0483V165.807H95.9801C95.8703 166.027 95.7055 166.242 95.4858 166.455C95.2661 166.667 94.9839 166.843 94.6392 166.983C94.2945 167.123 93.8816 167.193 93.4006 167.193ZM93.7699 165.83C94.2396 165.83 94.6411 165.737 94.9744 165.551C95.3116 165.366 95.5672 165.123 95.7415 164.824C95.9195 164.521 96.0085 164.197 96.0085 163.852V162.727C95.9479 162.788 95.8305 162.845 95.6562 162.898C95.4858 162.947 95.2907 162.991 95.071 163.028C94.8513 163.062 94.6373 163.095 94.429 163.125C94.2206 163.152 94.0464 163.174 93.9062 163.193C93.5767 163.235 93.2756 163.305 93.0028 163.403C92.7339 163.502 92.518 163.644 92.3551 163.83C92.196 164.011 92.1165 164.254 92.1165 164.557C92.1165 164.977 92.2718 165.295 92.5824 165.511C92.893 165.723 93.2888 165.83 93.7699 165.83ZM99.9702 167V158.273H101.612V159.659H101.703C101.862 159.189 102.143 158.82 102.544 158.551C102.949 158.278 103.408 158.142 103.919 158.142C104.025 158.142 104.15 158.146 104.294 158.153C104.442 158.161 104.557 158.17 104.641 158.182V159.807C104.572 159.788 104.451 159.767 104.277 159.744C104.103 159.718 103.929 159.705 103.754 159.705C103.353 159.705 102.995 159.79 102.68 159.96C102.37 160.127 102.124 160.36 101.942 160.659C101.76 160.955 101.669 161.292 101.669 161.67V167H99.9702ZM106.111 167V158.273H107.81V167H106.111ZM106.969 156.926C106.673 156.926 106.42 156.828 106.207 156.631C105.999 156.43 105.895 156.191 105.895 155.915C105.895 155.634 105.999 155.396 106.207 155.199C106.42 154.998 106.673 154.898 106.969 154.898C107.264 154.898 107.516 154.998 107.724 155.199C107.937 155.396 108.043 155.634 108.043 155.915C108.043 156.191 107.937 156.43 107.724 156.631C107.516 156.828 107.264 156.926 106.969 156.926ZM113.771 167.176C112.953 167.176 112.239 166.989 111.629 166.614C111.019 166.239 110.546 165.714 110.209 165.04C109.872 164.366 109.703 163.578 109.703 162.676C109.703 161.771 109.872 160.979 110.209 160.301C110.546 159.623 111.019 159.097 111.629 158.722C112.239 158.347 112.953 158.159 113.771 158.159C114.589 158.159 115.304 158.347 115.913 158.722C116.523 159.097 116.997 159.623 117.334 160.301C117.671 160.979 117.839 161.771 117.839 162.676C117.839 163.578 117.671 164.366 117.334 165.04C116.997 165.714 116.523 166.239 115.913 166.614C115.304 166.989 114.589 167.176 113.771 167.176ZM113.777 165.75C114.307 165.75 114.747 165.61 115.095 165.33C115.444 165.049 115.701 164.676 115.868 164.21C116.038 163.744 116.124 163.231 116.124 162.67C116.124 162.114 116.038 161.602 115.868 161.136C115.701 160.667 115.444 160.29 115.095 160.006C114.747 159.722 114.307 159.58 113.777 159.58C113.243 159.58 112.8 159.722 112.447 160.006C112.099 160.29 111.839 160.667 111.669 161.136C111.502 161.602 111.419 162.114 111.419 162.67C111.419 163.231 111.502 163.744 111.669 164.21C111.839 164.676 112.099 165.049 112.447 165.33C112.8 165.61 113.243 165.75 113.777 165.75ZM125.264 163.381V158.273H126.969V167H125.298V165.489H125.207C125.007 165.955 124.685 166.343 124.241 166.653C123.802 166.96 123.255 167.114 122.599 167.114C122.039 167.114 121.543 166.991 121.111 166.744C120.683 166.494 120.346 166.125 120.099 165.636C119.857 165.148 119.736 164.544 119.736 163.824V158.273H121.435V163.619C121.435 164.214 121.599 164.687 121.929 165.04C122.259 165.392 122.687 165.568 123.213 165.568C123.531 165.568 123.848 165.489 124.162 165.33C124.48 165.17 124.743 164.93 124.952 164.608C125.164 164.286 125.268 163.877 125.264 163.381ZM135.791 160.403L134.251 160.676C134.187 160.479 134.085 160.292 133.945 160.114C133.808 159.936 133.623 159.79 133.388 159.676C133.153 159.562 132.859 159.506 132.507 159.506C132.026 159.506 131.625 159.614 131.303 159.83C130.981 160.042 130.82 160.316 130.82 160.653C130.82 160.945 130.928 161.18 131.143 161.358C131.359 161.536 131.708 161.682 132.189 161.795L133.575 162.114C134.378 162.299 134.977 162.585 135.371 162.972C135.765 163.358 135.962 163.86 135.962 164.477C135.962 165 135.81 165.466 135.507 165.875C135.208 166.28 134.789 166.598 134.251 166.83C133.717 167.061 133.098 167.176 132.393 167.176C131.416 167.176 130.619 166.968 130.001 166.551C129.384 166.131 129.005 165.534 128.865 164.761L130.507 164.511C130.609 164.939 130.82 165.263 131.138 165.483C131.456 165.699 131.871 165.807 132.382 165.807C132.939 165.807 133.384 165.691 133.717 165.46C134.051 165.225 134.217 164.939 134.217 164.602C134.217 164.33 134.115 164.1 133.911 163.915C133.71 163.729 133.401 163.589 132.984 163.494L131.507 163.17C130.693 162.985 130.09 162.689 129.7 162.284C129.314 161.879 129.121 161.366 129.121 160.744C129.121 160.229 129.265 159.778 129.553 159.392C129.84 159.006 130.238 158.705 130.746 158.489C131.253 158.269 131.835 158.159 132.49 158.159C133.433 158.159 134.176 158.364 134.717 158.773C135.259 159.178 135.617 159.722 135.791 160.403ZM145.331 167.17C144.626 167.17 143.998 166.991 143.445 166.631C142.895 166.267 142.464 165.75 142.149 165.08C141.839 164.405 141.683 163.597 141.683 162.653C141.683 161.71 141.84 160.903 142.155 160.233C142.473 159.562 142.909 159.049 143.462 158.693C144.015 158.337 144.642 158.159 145.342 158.159C145.884 158.159 146.32 158.25 146.649 158.432C146.982 158.61 147.24 158.818 147.422 159.057C147.607 159.295 147.751 159.506 147.854 159.688H147.956V155.364H149.655V167H147.996V165.642H147.854C147.751 165.828 147.604 166.04 147.411 166.278C147.221 166.517 146.96 166.725 146.626 166.903C146.293 167.081 145.861 167.17 145.331 167.17ZM145.706 165.722C146.195 165.722 146.607 165.593 146.945 165.335C147.286 165.074 147.543 164.712 147.717 164.25C147.895 163.788 147.984 163.25 147.984 162.636C147.984 162.03 147.897 161.5 147.723 161.045C147.549 160.591 147.293 160.237 146.956 159.983C146.619 159.729 146.202 159.602 145.706 159.602C145.195 159.602 144.768 159.735 144.428 160C144.087 160.265 143.829 160.627 143.655 161.085C143.484 161.544 143.399 162.061 143.399 162.636C143.399 163.22 143.486 163.744 143.661 164.21C143.835 164.676 144.092 165.045 144.433 165.318C144.778 165.587 145.202 165.722 145.706 165.722ZM155.841 167.176C154.981 167.176 154.241 166.992 153.619 166.625C153.002 166.254 152.525 165.733 152.188 165.062C151.854 164.388 151.688 163.598 151.688 162.693C151.688 161.799 151.854 161.011 152.188 160.33C152.525 159.648 152.994 159.116 153.597 158.733C154.203 158.35 154.911 158.159 155.722 158.159C156.214 158.159 156.691 158.241 157.153 158.403C157.616 158.566 158.03 158.822 158.398 159.17C158.765 159.519 159.055 159.972 159.267 160.528C159.479 161.081 159.585 161.754 159.585 162.545V163.148H152.648V161.875H157.92C157.92 161.428 157.83 161.032 157.648 160.688C157.466 160.339 157.21 160.064 156.881 159.864C156.555 159.663 156.172 159.562 155.733 159.562C155.256 159.562 154.839 159.68 154.483 159.915C154.131 160.146 153.858 160.449 153.665 160.824C153.475 161.195 153.381 161.598 153.381 162.034V163.028C153.381 163.612 153.483 164.108 153.688 164.517C153.896 164.926 154.186 165.239 154.557 165.455C154.928 165.667 155.362 165.773 155.858 165.773C156.18 165.773 156.473 165.727 156.739 165.636C157.004 165.542 157.233 165.402 157.426 165.216C157.619 165.03 157.767 164.801 157.869 164.528L159.477 164.818C159.348 165.292 159.117 165.706 158.784 166.062C158.455 166.415 158.04 166.689 157.54 166.886C157.044 167.08 156.477 167.176 155.841 167.176ZM168.686 158.273L165.521 167H163.703L160.533 158.273H162.357L164.567 164.989H164.658L166.862 158.273H168.686ZM170.283 167V158.273H171.982V167H170.283ZM171.141 156.926C170.845 156.926 170.591 156.828 170.379 156.631C170.171 156.43 170.067 156.191 170.067 155.915C170.067 155.634 170.171 155.396 170.379 155.199C170.591 154.998 170.845 154.898 171.141 154.898C171.436 154.898 171.688 154.998 171.896 155.199C172.108 155.396 172.214 155.634 172.214 155.915C172.214 156.191 172.108 156.43 171.896 156.631C171.688 156.828 171.436 156.926 171.141 156.926ZM177.943 167.176C177.098 167.176 176.371 166.985 175.761 166.602C175.155 166.216 174.689 165.684 174.364 165.006C174.038 164.328 173.875 163.551 173.875 162.676C173.875 161.79 174.042 161.008 174.375 160.33C174.708 159.648 175.178 159.116 175.784 158.733C176.39 158.35 177.104 158.159 177.926 158.159C178.589 158.159 179.18 158.282 179.699 158.528C180.218 158.771 180.636 159.112 180.955 159.551C181.277 159.991 181.468 160.504 181.528 161.091H179.875C179.784 160.682 179.576 160.33 179.25 160.034C178.928 159.739 178.496 159.591 177.955 159.591C177.481 159.591 177.066 159.716 176.71 159.966C176.358 160.212 176.083 160.564 175.886 161.023C175.689 161.477 175.591 162.015 175.591 162.636C175.591 163.273 175.688 163.822 175.881 164.284C176.074 164.746 176.347 165.104 176.699 165.358C177.055 165.612 177.473 165.739 177.955 165.739C178.277 165.739 178.568 165.68 178.83 165.562C179.095 165.441 179.316 165.269 179.494 165.045C179.676 164.822 179.803 164.553 179.875 164.239H181.528C181.468 164.803 181.284 165.307 180.977 165.75C180.67 166.193 180.259 166.542 179.744 166.795C179.233 167.049 178.633 167.176 177.943 167.176ZM187.107 167.176C186.247 167.176 185.506 166.992 184.885 166.625C184.268 166.254 183.79 165.733 183.453 165.062C183.12 164.388 182.953 163.598 182.953 162.693C182.953 161.799 183.12 161.011 183.453 160.33C183.79 159.648 184.26 159.116 184.862 158.733C185.468 158.35 186.177 158.159 186.987 158.159C187.48 158.159 187.957 158.241 188.419 158.403C188.881 158.566 189.296 158.822 189.663 159.17C190.031 159.519 190.321 159.972 190.533 160.528C190.745 161.081 190.851 161.754 190.851 162.545V163.148H183.913V161.875H189.186C189.186 161.428 189.095 161.032 188.913 160.688C188.732 160.339 188.476 160.064 188.146 159.864C187.821 159.663 187.438 159.562 186.999 159.562C186.521 159.562 186.105 159.68 185.749 159.915C185.396 160.146 185.124 160.449 184.93 160.824C184.741 161.195 184.646 161.598 184.646 162.034V163.028C184.646 163.612 184.749 164.108 184.953 164.517C185.161 164.926 185.451 165.239 185.822 165.455C186.194 165.667 186.627 165.773 187.124 165.773C187.446 165.773 187.739 165.727 188.004 165.636C188.269 165.542 188.499 165.402 188.692 165.216C188.885 165.03 189.033 164.801 189.135 164.528L190.743 164.818C190.614 165.292 190.383 165.706 190.05 166.062C189.72 166.415 189.305 166.689 188.805 166.886C188.309 167.08 187.743 167.176 187.107 167.176ZM199.276 160.403L197.736 160.676C197.671 160.479 197.569 160.292 197.429 160.114C197.293 159.936 197.107 159.79 196.872 159.676C196.637 159.562 196.344 159.506 195.991 159.506C195.51 159.506 195.109 159.614 194.787 159.83C194.465 160.042 194.304 160.316 194.304 160.653C194.304 160.945 194.412 161.18 194.628 161.358C194.844 161.536 195.192 161.682 195.673 161.795L197.06 162.114C197.863 162.299 198.461 162.585 198.855 162.972C199.249 163.358 199.446 163.86 199.446 164.477C199.446 165 199.295 165.466 198.991 165.875C198.692 166.28 198.274 166.598 197.736 166.83C197.202 167.061 196.582 167.176 195.878 167.176C194.901 167.176 194.103 166.968 193.486 166.551C192.868 166.131 192.49 165.534 192.349 164.761L193.991 164.511C194.094 164.939 194.304 165.263 194.622 165.483C194.94 165.699 195.355 165.807 195.866 165.807C196.423 165.807 196.868 165.691 197.202 165.46C197.535 165.225 197.702 164.939 197.702 164.602C197.702 164.33 197.599 164.1 197.395 163.915C197.194 163.729 196.885 163.589 196.469 163.494L194.991 163.17C194.177 162.985 193.575 162.689 193.185 162.284C192.798 161.879 192.605 161.366 192.605 160.744C192.605 160.229 192.749 159.778 193.037 159.392C193.325 159.006 193.723 158.705 194.23 158.489C194.738 158.269 195.319 158.159 195.974 158.159C196.918 158.159 197.66 158.364 198.202 158.773C198.743 159.178 199.101 159.722 199.276 160.403ZM208.088 167.193C207.535 167.193 207.035 167.091 206.588 166.886C206.141 166.678 205.787 166.377 205.526 165.983C205.268 165.589 205.139 165.106 205.139 164.534C205.139 164.042 205.234 163.636 205.423 163.318C205.613 163 205.868 162.748 206.19 162.562C206.512 162.377 206.872 162.237 207.27 162.142C207.668 162.047 208.073 161.975 208.486 161.926C209.009 161.866 209.433 161.816 209.759 161.778C210.084 161.737 210.321 161.67 210.469 161.58C210.616 161.489 210.69 161.341 210.69 161.136V161.097C210.69 160.6 210.55 160.216 210.27 159.943C209.993 159.67 209.58 159.534 209.031 159.534C208.459 159.534 208.009 159.661 207.679 159.915C207.353 160.165 207.128 160.443 207.003 160.75L205.406 160.386C205.596 159.856 205.872 159.428 206.236 159.102C206.603 158.773 207.026 158.534 207.503 158.386C207.98 158.235 208.482 158.159 209.009 158.159C209.357 158.159 209.726 158.201 210.116 158.284C210.51 158.364 210.878 158.511 211.219 158.727C211.563 158.943 211.846 159.252 212.065 159.653C212.285 160.051 212.395 160.568 212.395 161.205V167H210.736V165.807H210.668C210.558 166.027 210.393 166.242 210.173 166.455C209.954 166.667 209.671 166.843 209.327 166.983C208.982 167.123 208.569 167.193 208.088 167.193ZM208.457 165.83C208.927 165.83 209.329 165.737 209.662 165.551C209.999 165.366 210.255 165.123 210.429 164.824C210.607 164.521 210.696 164.197 210.696 163.852V162.727C210.635 162.788 210.518 162.845 210.344 162.898C210.173 162.947 209.978 162.991 209.759 163.028C209.539 163.062 209.325 163.095 209.116 163.125C208.908 163.152 208.734 163.174 208.594 163.193C208.264 163.235 207.963 163.305 207.69 163.403C207.421 163.502 207.205 163.644 207.043 163.83C206.884 164.011 206.804 164.254 206.804 164.557C206.804 164.977 206.959 165.295 207.27 165.511C207.58 165.723 207.976 165.83 208.457 165.83ZM216.357 161.818V167H214.658V158.273H216.288V159.693H216.396C216.597 159.231 216.911 158.86 217.339 158.58C217.771 158.299 218.315 158.159 218.97 158.159C219.565 158.159 220.086 158.284 220.533 158.534C220.98 158.78 221.326 159.148 221.572 159.636C221.819 160.125 221.942 160.729 221.942 161.449V167H220.243V161.653C220.243 161.021 220.078 160.527 219.749 160.17C219.419 159.811 218.966 159.631 218.391 159.631C217.997 159.631 217.646 159.716 217.339 159.886C217.036 160.057 216.796 160.307 216.618 160.636C216.444 160.962 216.357 161.356 216.357 161.818ZM227.487 167.17C226.783 167.17 226.154 166.991 225.601 166.631C225.052 166.267 224.62 165.75 224.305 165.08C223.995 164.405 223.839 163.597 223.839 162.653C223.839 161.71 223.997 160.903 224.311 160.233C224.629 159.562 225.065 159.049 225.618 158.693C226.171 158.337 226.798 158.159 227.499 158.159C228.04 158.159 228.476 158.25 228.805 158.432C229.139 158.61 229.396 158.818 229.578 159.057C229.764 159.295 229.908 159.506 230.01 159.688H230.112V155.364H231.811V167H230.152V165.642H230.01C229.908 165.828 229.76 166.04 229.567 166.278C229.377 166.517 229.116 166.725 228.783 166.903C228.449 167.081 228.018 167.17 227.487 167.17ZM227.862 165.722C228.351 165.722 228.764 165.593 229.101 165.335C229.442 165.074 229.699 164.712 229.874 164.25C230.052 163.788 230.141 163.25 230.141 162.636C230.141 162.03 230.054 161.5 229.879 161.045C229.705 160.591 229.449 160.237 229.112 159.983C228.775 159.729 228.358 159.602 227.862 159.602C227.351 159.602 226.925 159.735 226.584 160C226.243 160.265 225.985 160.627 225.811 161.085C225.641 161.544 225.555 162.061 225.555 162.636C225.555 163.22 225.643 163.744 225.817 164.21C225.991 164.676 226.249 165.045 226.589 165.318C226.934 165.587 227.358 165.722 227.862 165.722ZM82.5405 189.273V177.273H84.1996V178.688H84.3416C84.4401 178.506 84.5821 178.295 84.7678 178.057C84.9534 177.818 85.2109 177.61 85.5405 177.432C85.87 177.25 86.3056 177.159 86.8473 177.159C87.5518 177.159 88.1806 177.337 88.7337 177.693C89.2867 178.049 89.7204 178.562 90.0348 179.233C90.353 179.903 90.5121 180.71 90.5121 181.653C90.5121 182.597 90.3549 183.405 90.0405 184.08C89.7261 184.75 89.2943 185.267 88.745 185.631C88.1958 185.991 87.5689 186.17 86.8643 186.17C86.334 186.17 85.9003 186.081 85.5632 185.903C85.2299 185.725 84.9685 185.517 84.7791 185.278C84.5897 185.04 84.4439 184.828 84.3416 184.642H84.2393V189.273H82.5405ZM84.2053 181.636C84.2053 182.25 84.2943 182.788 84.4723 183.25C84.6503 183.712 84.9079 184.074 85.245 184.335C85.5821 184.593 85.995 184.722 86.4837 184.722C86.9912 184.722 87.4155 184.587 87.7564 184.318C88.0973 184.045 88.3549 183.676 88.5291 183.21C88.7071 182.744 88.7962 182.22 88.7962 181.636C88.7962 181.061 88.709 180.544 88.5348 180.085C88.3643 179.627 88.1068 179.265 87.7621 179C87.4212 178.735 86.995 178.602 86.4837 178.602C85.9912 178.602 85.5746 178.729 85.2337 178.983C84.8965 179.237 84.6409 179.591 84.4666 180.045C84.2924 180.5 84.2053 181.03 84.2053 181.636ZM94.1143 174.364V186H92.4155V174.364H94.1143ZM98.9396 186.193C98.3866 186.193 97.8866 186.091 97.4396 185.886C96.9927 185.678 96.6385 185.377 96.3771 184.983C96.1196 184.589 95.9908 184.106 95.9908 183.534C95.9908 183.042 96.0855 182.636 96.2749 182.318C96.4643 182 96.7199 181.748 97.0419 181.562C97.3639 181.377 97.7237 181.237 98.1214 181.142C98.5192 181.047 98.9245 180.975 99.3374 180.926C99.8601 180.866 100.284 180.816 100.61 180.778C100.936 180.737 101.173 180.67 101.32 180.58C101.468 180.489 101.542 180.341 101.542 180.136V180.097C101.542 179.6 101.402 179.216 101.121 178.943C100.845 178.67 100.432 178.534 99.8828 178.534C99.3108 178.534 98.8601 178.661 98.5305 178.915C98.2048 179.165 97.9794 179.443 97.8544 179.75L96.2578 179.386C96.4472 178.856 96.7237 178.428 97.0874 178.102C97.4548 177.773 97.8771 177.534 98.3544 177.386C98.8317 177.235 99.3336 177.159 99.8601 177.159C100.209 177.159 100.578 177.201 100.968 177.284C101.362 177.364 101.729 177.511 102.07 177.727C102.415 177.943 102.697 178.252 102.917 178.653C103.137 179.051 103.246 179.568 103.246 180.205V186H101.587V184.807H101.519C101.409 185.027 101.245 185.242 101.025 185.455C100.805 185.667 100.523 185.843 100.178 185.983C99.8336 186.123 99.4207 186.193 98.9396 186.193ZM99.3089 184.83C99.7786 184.83 100.18 184.737 100.513 184.551C100.851 184.366 101.106 184.123 101.281 183.824C101.459 183.521 101.548 183.197 101.548 182.852V181.727C101.487 181.788 101.37 181.845 101.195 181.898C101.025 181.947 100.83 181.991 100.61 182.028C100.39 182.062 100.176 182.095 99.968 182.125C99.7597 182.152 99.5855 182.174 99.4453 182.193C99.1158 182.235 98.8146 182.305 98.5419 182.403C98.273 182.502 98.0571 182.644 97.8942 182.83C97.7351 183.011 97.6555 183.254 97.6555 183.557C97.6555 183.977 97.8108 184.295 98.1214 184.511C98.4321 184.723 98.8279 184.83 99.3089 184.83ZM109.583 177.273V178.636H104.816V177.273H109.583ZM106.094 175.182H107.793V183.438C107.793 183.767 107.843 184.015 107.941 184.182C108.04 184.345 108.166 184.456 108.322 184.517C108.481 184.574 108.653 184.602 108.839 184.602C108.975 184.602 109.094 184.593 109.197 184.574C109.299 184.555 109.379 184.54 109.435 184.528L109.742 185.932C109.644 185.97 109.504 186.008 109.322 186.045C109.14 186.087 108.913 186.11 108.64 186.114C108.193 186.121 107.776 186.042 107.39 185.875C107.004 185.708 106.691 185.451 106.452 185.102C106.214 184.754 106.094 184.316 106.094 183.79V175.182ZM115.616 177.273V178.636H110.684V177.273H115.616ZM112.036 186V176.261C112.036 175.716 112.156 175.263 112.394 174.903C112.633 174.54 112.949 174.269 113.343 174.091C113.737 173.909 114.165 173.818 114.627 173.818C114.968 173.818 115.26 173.847 115.502 173.903C115.745 173.956 115.924 174.006 116.042 174.051L115.644 175.426C115.565 175.403 115.462 175.377 115.337 175.347C115.212 175.312 115.061 175.295 114.883 175.295C114.47 175.295 114.174 175.398 113.996 175.602C113.822 175.807 113.735 176.102 113.735 176.489V186H112.036ZM120.701 186.176C119.883 186.176 119.169 185.989 118.559 185.614C117.949 185.239 117.476 184.714 117.138 184.04C116.801 183.366 116.633 182.578 116.633 181.676C116.633 180.771 116.801 179.979 117.138 179.301C117.476 178.623 117.949 178.097 118.559 177.722C119.169 177.347 119.883 177.159 120.701 177.159C121.519 177.159 122.233 177.347 122.843 177.722C123.453 178.097 123.926 178.623 124.263 179.301C124.601 179.979 124.769 180.771 124.769 181.676C124.769 182.578 124.601 183.366 124.263 184.04C123.926 184.714 123.453 185.239 122.843 185.614C122.233 185.989 121.519 186.176 120.701 186.176ZM120.707 184.75C121.237 184.75 121.676 184.61 122.025 184.33C122.373 184.049 122.631 183.676 122.798 183.21C122.968 182.744 123.053 182.231 123.053 181.67C123.053 181.114 122.968 180.602 122.798 180.136C122.631 179.667 122.373 179.29 122.025 179.006C121.676 178.722 121.237 178.58 120.707 178.58C120.173 178.58 119.729 178.722 119.377 179.006C119.029 179.29 118.769 179.667 118.599 180.136C118.432 180.602 118.349 181.114 118.349 181.67C118.349 182.231 118.432 182.744 118.599 183.21C118.769 183.676 119.029 184.049 119.377 184.33C119.729 184.61 120.173 184.75 120.707 184.75ZM126.665 186V177.273H128.308V178.659H128.398C128.558 178.189 128.838 177.82 129.239 177.551C129.645 177.278 130.103 177.142 130.614 177.142C130.72 177.142 130.845 177.146 130.989 177.153C131.137 177.161 131.253 177.17 131.336 177.182V178.807C131.268 178.788 131.147 178.767 130.972 178.744C130.798 178.718 130.624 178.705 130.45 178.705C130.048 178.705 129.69 178.79 129.376 178.96C129.065 179.127 128.819 179.36 128.637 179.659C128.455 179.955 128.364 180.292 128.364 180.67V186H126.665ZM132.806 186V177.273H134.437V178.693H134.545C134.727 178.212 135.024 177.837 135.437 177.568C135.85 177.295 136.344 177.159 136.92 177.159C137.503 177.159 137.992 177.295 138.386 177.568C138.783 177.841 139.077 178.216 139.266 178.693H139.357C139.566 178.227 139.897 177.856 140.352 177.58C140.806 177.299 141.348 177.159 141.977 177.159C142.768 177.159 143.414 177.407 143.914 177.903C144.418 178.4 144.67 179.148 144.67 180.148V186H142.971V180.307C142.971 179.716 142.81 179.288 142.488 179.023C142.166 178.758 141.781 178.625 141.335 178.625C140.781 178.625 140.352 178.795 140.045 179.136C139.738 179.473 139.585 179.907 139.585 180.438V186H137.891V180.199C137.891 179.725 137.744 179.345 137.448 179.057C137.153 178.769 136.768 178.625 136.295 178.625C135.973 178.625 135.675 178.71 135.403 178.881C135.134 179.047 134.916 179.28 134.749 179.58C134.586 179.879 134.505 180.225 134.505 180.619V186H132.806ZM153.487 179.403L151.947 179.676C151.882 179.479 151.78 179.292 151.64 179.114C151.504 178.936 151.318 178.79 151.083 178.676C150.848 178.562 150.555 178.506 150.202 178.506C149.721 178.506 149.32 178.614 148.998 178.83C148.676 179.042 148.515 179.316 148.515 179.653C148.515 179.945 148.623 180.18 148.839 180.358C149.055 180.536 149.403 180.682 149.884 180.795L151.271 181.114C152.074 181.299 152.672 181.585 153.066 181.972C153.46 182.358 153.657 182.86 153.657 183.477C153.657 184 153.505 184.466 153.202 184.875C152.903 185.28 152.485 185.598 151.947 185.83C151.413 186.061 150.793 186.176 150.089 186.176C149.112 186.176 148.314 185.968 147.697 185.551C147.079 185.131 146.701 184.534 146.56 183.761L148.202 183.511C148.305 183.939 148.515 184.263 148.833 184.483C149.151 184.699 149.566 184.807 150.077 184.807C150.634 184.807 151.079 184.691 151.413 184.46C151.746 184.225 151.913 183.939 151.913 183.602C151.913 183.33 151.81 183.1 151.606 182.915C151.405 182.729 151.096 182.589 150.68 182.494L149.202 182.17C148.388 181.985 147.786 181.689 147.396 181.284C147.009 180.879 146.816 180.366 146.816 179.744C146.816 179.229 146.96 178.778 147.248 178.392C147.536 178.006 147.933 177.705 148.441 177.489C148.949 177.269 149.53 177.159 150.185 177.159C151.129 177.159 151.871 177.364 152.413 177.773C152.954 178.178 153.312 178.722 153.487 179.403ZM157.735 184.409L157.65 185.028C157.593 185.483 157.496 185.956 157.36 186.449C157.228 186.945 157.089 187.405 156.945 187.83C156.805 188.254 156.69 188.591 156.599 188.841H155.394C155.443 188.606 155.512 188.288 155.599 187.886C155.686 187.489 155.771 187.044 155.854 186.551C155.938 186.059 156 185.557 156.042 185.045L156.099 184.409H157.735ZM164.181 186V177.273H165.88V186H164.181ZM165.039 175.926C164.744 175.926 164.49 175.828 164.278 175.631C164.069 175.43 163.965 175.191 163.965 174.915C163.965 174.634 164.069 174.396 164.278 174.199C164.49 173.998 164.744 173.898 165.039 173.898C165.335 173.898 165.586 173.998 165.795 174.199C166.007 174.396 166.113 174.634 166.113 174.915C166.113 175.191 166.007 175.43 165.795 175.631C165.586 175.828 165.335 175.926 165.039 175.926ZM169.864 180.818V186H168.165V177.273H169.796V178.693H169.904C170.105 178.231 170.419 177.86 170.847 177.58C171.279 177.299 171.823 177.159 172.478 177.159C173.073 177.159 173.594 177.284 174.04 177.534C174.487 177.78 174.834 178.148 175.08 178.636C175.326 179.125 175.45 179.729 175.45 180.449V186H173.751V180.653C173.751 180.021 173.586 179.527 173.256 179.17C172.927 178.811 172.474 178.631 171.898 178.631C171.504 178.631 171.154 178.716 170.847 178.886C170.544 179.057 170.304 179.307 170.126 179.636C169.951 179.962 169.864 180.356 169.864 180.818ZM181.404 186.176C180.559 186.176 179.832 185.985 179.222 185.602C178.616 185.216 178.15 184.684 177.825 184.006C177.499 183.328 177.336 182.551 177.336 181.676C177.336 180.79 177.503 180.008 177.836 179.33C178.169 178.648 178.639 178.116 179.245 177.733C179.851 177.35 180.565 177.159 181.387 177.159C182.05 177.159 182.641 177.282 183.16 177.528C183.679 177.771 184.097 178.112 184.415 178.551C184.737 178.991 184.929 179.504 184.989 180.091H183.336C183.245 179.682 183.037 179.33 182.711 179.034C182.389 178.739 181.957 178.591 181.415 178.591C180.942 178.591 180.527 178.716 180.171 178.966C179.819 179.212 179.544 179.564 179.347 180.023C179.15 180.477 179.052 181.015 179.052 181.636C179.052 182.273 179.148 182.822 179.342 183.284C179.535 183.746 179.808 184.104 180.16 184.358C180.516 184.612 180.934 184.739 181.415 184.739C181.737 184.739 182.029 184.68 182.29 184.562C182.556 184.441 182.777 184.269 182.955 184.045C183.137 183.822 183.264 183.553 183.336 183.239H184.989C184.929 183.803 184.745 184.307 184.438 184.75C184.131 185.193 183.72 185.542 183.205 185.795C182.694 186.049 182.094 186.176 181.404 186.176ZM188.505 174.364V186H186.806V174.364H188.505ZM196.319 182.381V177.273H198.023V186H196.353V184.489H196.262C196.061 184.955 195.739 185.343 195.296 185.653C194.857 185.96 194.309 186.114 193.654 186.114C193.094 186.114 192.597 185.991 192.165 185.744C191.737 185.494 191.4 185.125 191.154 184.636C190.912 184.148 190.79 183.544 190.79 182.824V177.273H192.489V182.619C192.489 183.214 192.654 183.687 192.984 184.04C193.313 184.392 193.741 184.568 194.268 184.568C194.586 184.568 194.902 184.489 195.217 184.33C195.535 184.17 195.798 183.93 196.006 183.608C196.219 183.286 196.323 182.877 196.319 182.381ZM203.573 186.17C202.869 186.17 202.24 185.991 201.687 185.631C201.138 185.267 200.706 184.75 200.391 184.08C200.081 183.405 199.925 182.597 199.925 181.653C199.925 180.71 200.083 179.903 200.397 179.233C200.715 178.562 201.151 178.049 201.704 177.693C202.257 177.337 202.884 177.159 203.585 177.159C204.126 177.159 204.562 177.25 204.891 177.432C205.225 177.61 205.482 177.818 205.664 178.057C205.85 178.295 205.994 178.506 206.096 178.688H206.198V174.364H207.897V186H206.238V184.642H206.096C205.994 184.828 205.846 185.04 205.653 185.278C205.463 185.517 205.202 185.725 204.869 185.903C204.535 186.081 204.103 186.17 203.573 186.17ZM203.948 184.722C204.437 184.722 204.85 184.593 205.187 184.335C205.528 184.074 205.785 183.712 205.96 183.25C206.138 182.788 206.227 182.25 206.227 181.636C206.227 181.03 206.139 180.5 205.965 180.045C205.791 179.591 205.535 179.237 205.198 178.983C204.861 178.729 204.444 178.602 203.948 178.602C203.437 178.602 203.011 178.735 202.67 179C202.329 179.265 202.071 179.627 201.897 180.085C201.727 180.544 201.641 181.061 201.641 181.636C201.641 182.22 201.728 182.744 201.903 183.21C202.077 183.676 202.335 184.045 202.675 184.318C203.02 184.587 203.444 184.722 203.948 184.722ZM210.322 186V177.273H212.021V186H210.322ZM211.18 175.926C210.884 175.926 210.63 175.828 210.418 175.631C210.21 175.43 210.106 175.191 210.106 174.915C210.106 174.634 210.21 174.396 210.418 174.199C210.63 173.998 210.884 173.898 211.18 173.898C211.475 173.898 211.727 173.998 211.935 174.199C212.147 174.396 212.254 174.634 212.254 174.915C212.254 175.191 212.147 175.43 211.935 175.631C211.727 175.828 211.475 175.926 211.18 175.926ZM216.005 180.818V186H214.306V177.273H215.937V178.693H216.045C216.246 178.231 216.56 177.86 216.988 177.58C217.42 177.299 217.963 177.159 218.619 177.159C219.213 177.159 219.734 177.284 220.181 177.534C220.628 177.78 220.975 178.148 221.221 178.636C221.467 179.125 221.59 179.729 221.59 180.449V186H219.891V180.653C219.891 180.021 219.727 179.527 219.397 179.17C219.067 178.811 218.615 178.631 218.039 178.631C217.645 178.631 217.295 178.716 216.988 178.886C216.685 179.057 216.444 179.307 216.266 179.636C216.092 179.962 216.005 180.356 216.005 180.818ZM227.528 189.455C226.835 189.455 226.238 189.364 225.738 189.182C225.242 189 224.836 188.759 224.522 188.46C224.208 188.161 223.973 187.833 223.817 187.477L225.278 186.875C225.38 187.042 225.516 187.218 225.687 187.403C225.861 187.593 226.096 187.754 226.391 187.886C226.691 188.019 227.075 188.085 227.545 188.085C228.189 188.085 228.721 187.928 229.141 187.614C229.562 187.303 229.772 186.807 229.772 186.125V184.409H229.664C229.562 184.595 229.414 184.801 229.221 185.028C229.031 185.256 228.77 185.453 228.437 185.619C228.103 185.786 227.67 185.869 227.136 185.869C226.446 185.869 225.825 185.708 225.272 185.386C224.723 185.061 224.287 184.581 223.965 183.949C223.647 183.312 223.488 182.53 223.488 181.602C223.488 180.674 223.645 179.879 223.96 179.216C224.278 178.553 224.713 178.045 225.266 177.693C225.819 177.337 226.446 177.159 227.147 177.159C227.689 177.159 228.126 177.25 228.46 177.432C228.793 177.61 229.052 177.818 229.238 178.057C229.427 178.295 229.573 178.506 229.675 178.688H229.8V177.273H231.465V186.193C231.465 186.943 231.291 187.559 230.942 188.04C230.594 188.521 230.122 188.877 229.528 189.108C228.937 189.339 228.27 189.455 227.528 189.455ZM227.511 184.46C227.999 184.46 228.412 184.347 228.749 184.119C229.09 183.888 229.348 183.559 229.522 183.131C229.7 182.699 229.789 182.182 229.789 181.58C229.789 180.992 229.702 180.475 229.528 180.028C229.353 179.581 229.098 179.233 228.761 178.983C228.424 178.729 228.007 178.602 227.511 178.602C226.999 178.602 226.573 178.735 226.232 179C225.891 179.261 225.634 179.617 225.46 180.068C225.289 180.519 225.204 181.023 225.204 181.58C225.204 182.152 225.291 182.653 225.465 183.085C225.639 183.517 225.897 183.854 226.238 184.097C226.583 184.339 227.007 184.46 227.511 184.46ZM84.7365 198.403L83.1967 198.676C83.1323 198.479 83.0301 198.292 82.8899 198.114C82.7536 197.936 82.5679 197.79 82.3331 197.676C82.0982 197.562 81.8047 197.506 81.4524 197.506C80.9714 197.506 80.5698 197.614 80.2479 197.83C79.9259 198.042 79.7649 198.316 79.7649 198.653C79.7649 198.945 79.8729 199.18 80.0888 199.358C80.3047 199.536 80.6532 199.682 81.1342 199.795L82.5206 200.114C83.3236 200.299 83.9221 200.585 84.3161 200.972C84.71 201.358 84.907 201.86 84.907 202.477C84.907 203 84.7554 203.466 84.4524 203.875C84.1532 204.28 83.7346 204.598 83.1967 204.83C82.6626 205.061 82.0433 205.176 81.3388 205.176C80.3615 205.176 79.5642 204.968 78.9467 204.551C78.3293 204.131 77.9505 203.534 77.8104 202.761L79.4524 202.511C79.5547 202.939 79.7649 203.263 80.0831 203.483C80.4013 203.699 80.8161 203.807 81.3274 203.807C81.8842 203.807 82.3293 203.691 82.6626 203.46C82.996 203.225 83.1626 202.939 83.1626 202.602C83.1626 202.33 83.0604 202.1 82.8558 201.915C82.6551 201.729 82.3464 201.589 81.9297 201.494L80.4524 201.17C79.638 200.985 79.0357 200.689 78.6456 200.284C78.2592 199.879 78.0661 199.366 78.0661 198.744C78.0661 198.229 78.21 197.778 78.4979 197.392C78.7857 197.006 79.1835 196.705 79.6911 196.489C80.1986 196.269 80.7801 196.159 81.4354 196.159C82.3786 196.159 83.121 196.364 83.6626 196.773C84.2043 197.178 84.5623 197.722 84.7365 198.403ZM86.7749 205V196.273H88.4055V197.693H88.5135C88.6953 197.212 88.9927 196.837 89.4055 196.568C89.8184 196.295 90.3127 196.159 90.8885 196.159C91.4718 196.159 91.9605 196.295 92.3544 196.568C92.7521 196.841 93.0457 197.216 93.2351 197.693H93.326C93.5343 197.227 93.8658 196.856 94.3203 196.58C94.7749 196.299 95.3165 196.159 95.9453 196.159C96.737 196.159 97.3828 196.407 97.8828 196.903C98.3866 197.4 98.6385 198.148 98.6385 199.148V205H96.9396V199.307C96.9396 198.716 96.7786 198.288 96.4567 198.023C96.1347 197.758 95.7502 197.625 95.3033 197.625C94.7502 197.625 94.3203 197.795 94.0135 198.136C93.7067 198.473 93.5533 198.907 93.5533 199.438V205H91.8601V199.199C91.8601 198.725 91.7124 198.345 91.4169 198.057C91.1214 197.769 90.737 197.625 90.2635 197.625C89.9415 197.625 89.6442 197.71 89.3714 197.881C89.1025 198.047 88.8847 198.28 88.718 198.58C88.5552 198.879 88.4737 199.225 88.4737 199.619V205H86.7749ZM103.455 205.193C102.902 205.193 102.402 205.091 101.955 204.886C101.508 204.678 101.154 204.377 100.893 203.983C100.635 203.589 100.506 203.106 100.506 202.534C100.506 202.042 100.601 201.636 100.79 201.318C100.98 201 101.236 200.748 101.558 200.562C101.879 200.377 102.239 200.237 102.637 200.142C103.035 200.047 103.44 199.975 103.853 199.926C104.376 199.866 104.8 199.816 105.126 199.778C105.451 199.737 105.688 199.67 105.836 199.58C105.984 199.489 106.058 199.341 106.058 199.136V199.097C106.058 198.6 105.917 198.216 105.637 197.943C105.361 197.67 104.948 197.534 104.398 197.534C103.826 197.534 103.376 197.661 103.046 197.915C102.72 198.165 102.495 198.443 102.37 198.75L100.773 198.386C100.963 197.856 101.239 197.428 101.603 197.102C101.97 196.773 102.393 196.534 102.87 196.386C103.347 196.235 103.849 196.159 104.376 196.159C104.724 196.159 105.094 196.201 105.484 196.284C105.878 196.364 106.245 196.511 106.586 196.727C106.931 196.943 107.213 197.252 107.433 197.653C107.652 198.051 107.762 198.568 107.762 199.205V205H106.103V203.807H106.035C105.925 204.027 105.76 204.242 105.54 204.455C105.321 204.667 105.039 204.843 104.694 204.983C104.349 205.123 103.936 205.193 103.455 205.193ZM103.825 203.83C104.294 203.83 104.696 203.737 105.029 203.551C105.366 203.366 105.622 203.123 105.796 202.824C105.974 202.521 106.063 202.197 106.063 201.852V200.727C106.003 200.788 105.885 200.845 105.711 200.898C105.54 200.947 105.345 200.991 105.126 201.028C104.906 201.062 104.692 201.095 104.484 201.125C104.275 201.152 104.101 201.174 103.961 201.193C103.631 201.235 103.33 201.305 103.058 201.403C102.789 201.502 102.573 201.644 102.41 201.83C102.251 202.011 102.171 202.254 102.171 202.557C102.171 202.977 102.326 203.295 102.637 203.511C102.948 203.723 103.344 203.83 103.825 203.83ZM110.025 205V196.273H111.667V197.659H111.758C111.917 197.189 112.197 196.82 112.599 196.551C113.004 196.278 113.462 196.142 113.974 196.142C114.08 196.142 114.205 196.146 114.349 196.153C114.496 196.161 114.612 196.17 114.695 196.182V197.807C114.627 197.788 114.506 197.767 114.332 197.744C114.157 197.718 113.983 197.705 113.809 197.705C113.407 197.705 113.049 197.79 112.735 197.96C112.424 198.127 112.178 198.36 111.996 198.659C111.815 198.955 111.724 199.292 111.724 199.67V205H110.025ZM120.755 196.273V197.636H115.988V196.273H120.755ZM117.266 194.182H118.965V202.438C118.965 202.767 119.014 203.015 119.113 203.182C119.211 203.345 119.338 203.456 119.494 203.517C119.653 203.574 119.825 203.602 120.011 203.602C120.147 203.602 120.266 203.593 120.369 203.574C120.471 203.555 120.55 203.54 120.607 203.528L120.914 204.932C120.816 204.97 120.675 205.008 120.494 205.045C120.312 205.087 120.085 205.11 119.812 205.114C119.365 205.121 118.948 205.042 118.562 204.875C118.175 204.708 117.863 204.451 117.624 204.102C117.386 203.754 117.266 203.316 117.266 202.79V194.182ZM128.567 199.818V205H126.869V193.364H128.545V197.693H128.653C128.857 197.223 129.17 196.85 129.59 196.574C130.011 196.297 130.56 196.159 131.238 196.159C131.836 196.159 132.359 196.282 132.806 196.528C133.257 196.775 133.605 197.142 133.852 197.631C134.102 198.116 134.227 198.722 134.227 199.449V205H132.528V199.653C132.528 199.013 132.363 198.517 132.033 198.165C131.704 197.809 131.246 197.631 130.658 197.631C130.257 197.631 129.897 197.716 129.579 197.886C129.264 198.057 129.016 198.307 128.835 198.636C128.656 198.962 128.567 199.356 128.567 199.818ZM140.17 205.176C139.352 205.176 138.638 204.989 138.028 204.614C137.418 204.239 136.944 203.714 136.607 203.04C136.27 202.366 136.102 201.578 136.102 200.676C136.102 199.771 136.27 198.979 136.607 198.301C136.944 197.623 137.418 197.097 138.028 196.722C138.638 196.347 139.352 196.159 140.17 196.159C140.988 196.159 141.702 196.347 142.312 196.722C142.922 197.097 143.395 197.623 143.732 198.301C144.069 198.979 144.238 199.771 144.238 200.676C144.238 201.578 144.069 202.366 143.732 203.04C143.395 203.714 142.922 204.239 142.312 204.614C141.702 204.989 140.988 205.176 140.17 205.176ZM140.175 203.75C140.706 203.75 141.145 203.61 141.494 203.33C141.842 203.049 142.1 202.676 142.266 202.21C142.437 201.744 142.522 201.231 142.522 200.67C142.522 200.114 142.437 199.602 142.266 199.136C142.1 198.667 141.842 198.29 141.494 198.006C141.145 197.722 140.706 197.58 140.175 197.58C139.641 197.58 139.198 197.722 138.846 198.006C138.497 198.29 138.238 198.667 138.067 199.136C137.901 199.602 137.817 200.114 137.817 200.67C137.817 201.231 137.901 201.744 138.067 202.21C138.238 202.676 138.497 203.049 138.846 203.33C139.198 203.61 139.641 203.75 140.175 203.75ZM146.134 205V196.273H147.765V197.693H147.873C148.055 197.212 148.352 196.837 148.765 196.568C149.178 196.295 149.672 196.159 150.248 196.159C150.831 196.159 151.32 196.295 151.714 196.568C152.112 196.841 152.405 197.216 152.594 197.693H152.685C152.894 197.227 153.225 196.856 153.68 196.58C154.134 196.299 154.676 196.159 155.305 196.159C156.096 196.159 156.742 196.407 157.242 196.903C157.746 197.4 157.998 198.148 157.998 199.148V205H156.299V199.307C156.299 198.716 156.138 198.288 155.816 198.023C155.494 197.758 155.11 197.625 154.663 197.625C154.11 197.625 153.68 197.795 153.373 198.136C153.066 198.473 152.913 198.907 152.913 199.438V205H151.219V199.199C151.219 198.725 151.072 198.345 150.776 198.057C150.481 197.769 150.096 197.625 149.623 197.625C149.301 197.625 149.004 197.71 148.731 197.881C148.462 198.047 148.244 198.28 148.077 198.58C147.915 198.879 147.833 199.225 147.833 199.619V205H146.134ZM164.036 205.176C163.176 205.176 162.436 204.992 161.815 204.625C161.197 204.254 160.72 203.733 160.383 203.062C160.049 202.388 159.883 201.598 159.883 200.693C159.883 199.799 160.049 199.011 160.383 198.33C160.72 197.648 161.19 197.116 161.792 196.733C162.398 196.35 163.106 196.159 163.917 196.159C164.409 196.159 164.887 196.241 165.349 196.403C165.811 196.566 166.226 196.822 166.593 197.17C166.96 197.519 167.25 197.972 167.462 198.528C167.674 199.081 167.781 199.754 167.781 200.545V201.148H160.843V199.875H166.116C166.116 199.428 166.025 199.032 165.843 198.688C165.661 198.339 165.406 198.064 165.076 197.864C164.75 197.663 164.368 197.562 163.928 197.562C163.451 197.562 163.034 197.68 162.678 197.915C162.326 198.146 162.053 198.449 161.86 198.824C161.671 199.195 161.576 199.598 161.576 200.034V201.028C161.576 201.612 161.678 202.108 161.883 202.517C162.091 202.926 162.381 203.239 162.752 203.455C163.123 203.667 163.557 203.773 164.053 203.773C164.375 203.773 164.669 203.727 164.934 203.636C165.199 203.542 165.428 203.402 165.621 203.216C165.815 203.03 165.962 202.801 166.065 202.528L167.673 202.818C167.544 203.292 167.313 203.706 166.979 204.062C166.65 204.415 166.235 204.689 165.735 204.886C165.239 205.08 164.673 205.176 164.036 205.176ZM180.44 198.403L178.9 198.676C178.835 198.479 178.733 198.292 178.593 198.114C178.457 197.936 178.271 197.79 178.036 197.676C177.801 197.562 177.508 197.506 177.156 197.506C176.674 197.506 176.273 197.614 175.951 197.83C175.629 198.042 175.468 198.316 175.468 198.653C175.468 198.945 175.576 199.18 175.792 199.358C176.008 199.536 176.356 199.682 176.837 199.795L178.224 200.114C179.027 200.299 179.625 200.585 180.019 200.972C180.413 201.358 180.61 201.86 180.61 202.477C180.61 203 180.459 203.466 180.156 203.875C179.856 204.28 179.438 204.598 178.9 204.83C178.366 205.061 177.746 205.176 177.042 205.176C176.065 205.176 175.267 204.968 174.65 204.551C174.032 204.131 173.654 203.534 173.513 202.761L175.156 202.511C175.258 202.939 175.468 203.263 175.786 203.483C176.104 203.699 176.519 203.807 177.031 203.807C177.587 203.807 178.032 203.691 178.366 203.46C178.699 203.225 178.866 202.939 178.866 202.602C178.866 202.33 178.763 202.1 178.559 201.915C178.358 201.729 178.049 201.589 177.633 201.494L176.156 201.17C175.341 200.985 174.739 200.689 174.349 200.284C173.962 199.879 173.769 199.366 173.769 198.744C173.769 198.229 173.913 197.778 174.201 197.392C174.489 197.006 174.887 196.705 175.394 196.489C175.902 196.269 176.483 196.159 177.138 196.159C178.082 196.159 178.824 196.364 179.366 196.773C179.907 197.178 180.265 197.722 180.44 198.403ZM183.552 208.273C183.298 208.273 183.067 208.252 182.859 208.21C182.65 208.172 182.495 208.131 182.393 208.085L182.802 206.693C183.112 206.777 183.389 206.813 183.631 206.801C183.874 206.79 184.088 206.699 184.273 206.528C184.463 206.358 184.629 206.08 184.773 205.693L184.984 205.114L181.79 196.273H183.609L185.819 203.045H185.91L188.12 196.273H189.944L186.347 206.165C186.181 206.619 185.969 207.004 185.711 207.318C185.453 207.636 185.147 207.875 184.79 208.034C184.434 208.193 184.022 208.273 183.552 208.273ZM198.08 198.403L196.54 198.676C196.476 198.479 196.374 198.292 196.234 198.114C196.097 197.936 195.912 197.79 195.677 197.676C195.442 197.562 195.148 197.506 194.796 197.506C194.315 197.506 193.914 197.614 193.592 197.83C193.27 198.042 193.109 198.316 193.109 198.653C193.109 198.945 193.217 199.18 193.433 199.358C193.648 199.536 193.997 199.682 194.478 199.795L195.864 200.114C196.667 200.299 197.266 200.585 197.66 200.972C198.054 201.358 198.251 201.86 198.251 202.477C198.251 203 198.099 203.466 197.796 203.875C197.497 204.28 197.078 204.598 196.54 204.83C196.006 205.061 195.387 205.176 194.683 205.176C193.705 205.176 192.908 204.968 192.29 204.551C191.673 204.131 191.294 203.534 191.154 202.761L192.796 202.511C192.898 202.939 193.109 203.263 193.427 203.483C193.745 203.699 194.16 203.807 194.671 203.807C195.228 203.807 195.673 203.691 196.006 203.46C196.34 203.225 196.506 202.939 196.506 202.602C196.506 202.33 196.404 202.1 196.2 201.915C195.999 201.729 195.69 201.589 195.273 201.494L193.796 201.17C192.982 200.985 192.379 200.689 191.989 200.284C191.603 199.879 191.41 199.366 191.41 198.744C191.41 198.229 191.554 197.778 191.842 197.392C192.129 197.006 192.527 196.705 193.035 196.489C193.542 196.269 194.124 196.159 194.779 196.159C195.722 196.159 196.465 196.364 197.006 196.773C197.548 197.178 197.906 197.722 198.08 198.403ZM204.192 196.273V197.636H199.425V196.273H204.192ZM200.704 194.182H202.403V202.438C202.403 202.767 202.452 203.015 202.55 203.182C202.649 203.345 202.776 203.456 202.931 203.517C203.09 203.574 203.263 203.602 203.448 203.602C203.585 203.602 203.704 203.593 203.806 203.574C203.908 203.555 203.988 203.54 204.045 203.528L204.352 204.932C204.253 204.97 204.113 205.008 203.931 205.045C203.749 205.087 203.522 205.11 203.249 205.114C202.802 205.121 202.386 205.042 201.999 204.875C201.613 204.708 201.3 204.451 201.062 204.102C200.823 203.754 200.704 203.316 200.704 202.79V194.182ZM209.739 205.176C208.879 205.176 208.139 204.992 207.518 204.625C206.9 204.254 206.423 203.733 206.086 203.062C205.753 202.388 205.586 201.598 205.586 200.693C205.586 199.799 205.753 199.011 206.086 198.33C206.423 197.648 206.893 197.116 207.495 196.733C208.101 196.35 208.809 196.159 209.62 196.159C210.112 196.159 210.59 196.241 211.052 196.403C211.514 196.566 211.929 196.822 212.296 197.17C212.664 197.519 212.953 197.972 213.165 198.528C213.378 199.081 213.484 199.754 213.484 200.545V201.148H206.546V199.875H211.819C211.819 199.428 211.728 199.032 211.546 198.688C211.364 198.339 211.109 198.064 210.779 197.864C210.453 197.663 210.071 197.562 209.631 197.562C209.154 197.562 208.737 197.68 208.381 197.915C208.029 198.146 207.756 198.449 207.563 198.824C207.374 199.195 207.279 199.598 207.279 200.034V201.028C207.279 201.612 207.381 202.108 207.586 202.517C207.794 202.926 208.084 203.239 208.455 203.455C208.826 203.667 209.26 203.773 209.756 203.773C210.078 203.773 210.372 203.727 210.637 203.636C210.902 203.542 211.131 203.402 211.325 203.216C211.518 203.03 211.665 202.801 211.768 202.528L213.376 202.818C213.247 203.292 213.016 203.706 212.683 204.062C212.353 204.415 211.938 204.689 211.438 204.886C210.942 205.08 210.376 205.176 209.739 205.176ZM215.369 205V196.273H216.999V197.693H217.107C217.289 197.212 217.586 196.837 217.999 196.568C218.412 196.295 218.906 196.159 219.482 196.159C220.066 196.159 220.554 196.295 220.948 196.568C221.346 196.841 221.639 197.216 221.829 197.693H221.92C222.128 197.227 222.46 196.856 222.914 196.58C223.369 196.299 223.91 196.159 224.539 196.159C225.331 196.159 225.977 196.407 226.477 196.903C226.98 197.4 227.232 198.148 227.232 199.148V205H225.533V199.307C225.533 198.716 225.372 198.288 225.05 198.023C224.728 197.758 224.344 197.625 223.897 197.625C223.344 197.625 222.914 197.795 222.607 198.136C222.3 198.473 222.147 198.907 222.147 199.438V205H220.454V199.199C220.454 198.725 220.306 198.345 220.011 198.057C219.715 197.769 219.331 197.625 218.857 197.625C218.535 197.625 218.238 197.71 217.965 197.881C217.696 198.047 217.478 198.28 217.312 198.58C217.149 198.879 217.067 199.225 217.067 199.619V205H215.369ZM236.049 198.403L234.509 198.676C234.445 198.479 234.343 198.292 234.202 198.114C234.066 197.936 233.88 197.79 233.646 197.676C233.411 197.562 233.117 197.506 232.765 197.506C232.284 197.506 231.882 197.614 231.56 197.83C231.238 198.042 231.077 198.316 231.077 198.653C231.077 198.945 231.185 199.18 231.401 199.358C231.617 199.536 231.966 199.682 232.447 199.795L233.833 200.114C234.636 200.299 235.235 200.585 235.629 200.972C236.022 201.358 236.219 201.86 236.219 202.477C236.219 203 236.068 203.466 235.765 203.875C235.466 204.28 235.047 204.598 234.509 204.83C233.975 205.061 233.356 205.176 232.651 205.176C231.674 205.176 230.877 204.968 230.259 204.551C229.642 204.131 229.263 203.534 229.123 202.761L230.765 202.511C230.867 202.939 231.077 203.263 231.396 203.483C231.714 203.699 232.129 203.807 232.64 203.807C233.197 203.807 233.642 203.691 233.975 203.46C234.308 203.225 234.475 202.939 234.475 202.602C234.475 202.33 234.373 202.1 234.168 201.915C233.968 201.729 233.659 201.589 233.242 201.494L231.765 201.17C230.951 200.985 230.348 200.689 229.958 200.284C229.572 199.879 229.379 199.366 229.379 198.744C229.379 198.229 229.522 197.778 229.81 197.392C230.098 197.006 230.496 196.705 231.004 196.489C231.511 196.269 232.093 196.159 232.748 196.159C233.691 196.159 234.433 196.364 234.975 196.773C235.517 197.178 235.875 197.722 236.049 198.403Z" fill="white"/>
<path d="M191.813 95.4275C191.813 90.1517 190.139 86.2273 186.217 82.3084C185.158 81.2521 183.447 81.2521 182.388 82.3084C181.329 83.3673 181.329 85.0817 182.388 86.1407C185.31 89.0602 186.396 91.5763 186.396 95.4275C186.396 99.4061 184.847 103.146 182.033 105.958C179.314 108.674 176.405 110.025 172.749 110.272L176.123 106.895C177.182 105.836 177.182 104.124 176.123 103.065C175.064 102.006 173.353 102.006 172.294 103.065L162.254 113.105L172.294 123.145C172.822 123.673 173.515 123.938 174.208 123.938C174.902 123.938 175.595 123.673 176.123 123.145C177.182 122.086 177.182 120.374 176.123 119.315L172.502 115.697C177.71 115.475 182.095 113.552 185.862 109.79C189.7 105.955 191.813 100.855 191.813 95.4275Z" fill="white"/>
<path d="M156.604 95.5007C156.604 91.5221 158.153 87.7819 160.967 84.968C163.7 82.2353 166.633 80.8838 170.33 80.6509L166.877 84.104C165.818 85.163 165.818 86.8746 166.877 87.9336C167.405 88.4644 168.098 88.7298 168.792 88.7298C169.485 88.7298 170.178 88.4644 170.706 87.9363L180.746 77.8965L170.706 67.8567C169.647 66.7978 167.936 66.7978 166.877 67.8567C165.818 68.9157 165.818 70.6273 166.877 71.6863L170.427 75.2369C165.244 75.4698 160.881 77.3928 157.138 81.1384C153.3 84.9734 151.188 90.0732 151.188 95.5007C151.188 100.777 152.861 104.701 156.783 108.62C157.311 109.148 158.004 109.411 158.698 109.411C159.391 109.411 160.084 109.145 160.613 108.617C161.671 107.558 161.671 105.844 160.613 104.785C157.69 101.868 156.604 99.3519 156.604 95.5007Z" fill="white"/>
<defs>
<clipPath id="clip0_1_1011">
<rect width="270" height="270" fill="white"/>
</clipPath>
</defs>
</svg>
