<svg width="270" height="270" viewBox="0 0 270 270" fill="none" xmlns="http://www.w3.org/2000/svg">
<path d="M213.75 225H33.75C15.1104 225 0 209.89 0 191.25C0 176.357 9.64618 163.717 23.0315 159.238C22.6813 156.834 22.5 154.376 22.5 151.875C22.5 123.916 45.1656 101.25 73.125 101.25C75.6578 101.25 78.1472 101.436 80.5802 101.795C87.999 69.2704 117.103 44.9999 151.875 44.9999C190.74 44.9999 222.524 75.3203 224.862 113.597C250.606 118.756 270 141.488 270 168.75C270 199.816 244.816 225 213.75 225Z" fill="#E0A12E"/>
<path d="M67.4638 141.364V153H65.7081V141.364H67.4638ZM71.5831 147.818V153H69.8842V144.273H71.5149V145.693H71.6229C71.8236 145.231 72.138 144.86 72.5661 144.58C72.9979 144.299 73.5414 144.159 74.1967 144.159C74.7914 144.159 75.3123 144.284 75.7592 144.534C76.2062 144.78 76.5528 145.148 76.799 145.636C77.0452 146.125 77.1683 146.729 77.1683 147.449V153H75.4695V147.653C75.4695 147.021 75.3047 146.527 74.9751 146.17C74.6456 145.811 74.1929 145.631 73.6172 145.631C73.2232 145.631 72.8729 145.716 72.5661 145.886C72.263 146.057 72.0225 146.307 71.8445 146.636C71.6702 146.962 71.5831 147.356 71.5831 147.818ZM83.5206 144.273V145.636H78.7536V144.273H83.5206ZM80.032 142.182H81.7308V150.438C81.7308 150.767 81.7801 151.015 81.8786 151.182C81.977 151.345 82.1039 151.456 82.2592 151.517C82.4183 151.574 82.5907 151.602 82.7763 151.602C82.9126 151.602 83.032 151.593 83.1342 151.574C83.2365 151.555 83.3161 151.54 83.3729 151.528L83.6797 152.932C83.5812 152.97 83.4411 153.008 83.2592 153.045C83.0774 153.087 82.8501 153.11 82.5774 153.114C82.1304 153.121 81.7138 153.042 81.3274 152.875C80.9411 152.708 80.6286 152.451 80.3899 152.102C80.1513 151.754 80.032 151.316 80.032 150.79V142.182ZM89.0675 153.176C88.2076 153.176 87.4671 152.992 86.8459 152.625C86.2285 152.254 85.7512 151.733 85.4141 151.062C85.0807 150.388 84.9141 149.598 84.9141 148.693C84.9141 147.799 85.0807 147.011 85.4141 146.33C85.7512 145.648 86.2209 145.116 86.8232 144.733C87.4292 144.35 88.1375 144.159 88.9482 144.159C89.4406 144.159 89.9179 144.241 90.38 144.403C90.8421 144.566 91.2569 144.822 91.6243 145.17C91.9917 145.519 92.2815 145.972 92.4936 146.528C92.7057 147.081 92.8118 147.754 92.8118 148.545V149.148H85.8743V147.875H91.147C91.147 147.428 91.0561 147.032 90.8743 146.688C90.6925 146.339 90.4368 146.064 90.1072 145.864C89.7815 145.663 89.3989 145.562 88.9595 145.562C88.4822 145.562 88.0656 145.68 87.7095 145.915C87.3572 146.146 87.0845 146.449 86.8913 146.824C86.7019 147.195 86.6072 147.598 86.6072 148.034V149.028C86.6072 149.612 86.7095 150.108 86.9141 150.517C87.1224 150.926 87.4122 151.239 87.7834 151.455C88.1546 151.667 88.5883 151.773 89.0845 151.773C89.4065 151.773 89.7 151.727 89.9652 151.636C90.2304 151.542 90.4595 151.402 90.6527 151.216C90.8459 151.03 90.9936 150.801 91.0959 150.528L92.7038 150.818C92.575 151.292 92.344 151.706 92.0107 152.062C91.6811 152.415 91.2663 152.689 90.7663 152.886C90.2701 153.08 89.7038 153.176 89.0675 153.176ZM94.6967 153V144.273H96.3388V145.659H96.4297C96.5888 145.189 96.8691 144.82 97.2706 144.551C97.6759 144.278 98.1342 144.142 98.6456 144.142C98.7517 144.142 98.8767 144.146 99.0206 144.153C99.1683 144.161 99.2839 144.17 99.3672 144.182V145.807C99.299 145.788 99.1778 145.767 99.0036 145.744C98.8293 145.718 98.6551 145.705 98.4808 145.705C98.0793 145.705 97.7214 145.79 97.407 145.96C97.0964 146.127 96.8501 146.36 96.6683 146.659C96.4865 146.955 96.3956 147.292 96.3956 147.67V153H94.6967ZM103.299 153.193C102.746 153.193 102.246 153.091 101.799 152.886C101.352 152.678 100.998 152.377 100.737 151.983C100.479 151.589 100.35 151.106 100.35 150.534C100.35 150.042 100.445 149.636 100.634 149.318C100.824 149 101.079 148.748 101.401 148.562C101.723 148.377 102.083 148.237 102.481 148.142C102.879 148.047 103.284 147.975 103.697 147.926C104.219 147.866 104.644 147.816 104.969 147.778C105.295 147.737 105.532 147.67 105.68 147.58C105.827 147.489 105.901 147.341 105.901 147.136V147.097C105.901 146.6 105.761 146.216 105.481 145.943C105.204 145.67 104.791 145.534 104.242 145.534C103.67 145.534 103.219 145.661 102.89 145.915C102.564 146.165 102.339 146.443 102.214 146.75L100.617 146.386C100.807 145.856 101.083 145.428 101.447 145.102C101.814 144.773 102.237 144.534 102.714 144.386C103.191 144.235 103.693 144.159 104.219 144.159C104.568 144.159 104.937 144.201 105.327 144.284C105.721 144.364 106.089 144.511 106.43 144.727C106.774 144.943 107.057 145.252 107.276 145.653C107.496 146.051 107.606 146.568 107.606 147.205V153H105.947V151.807H105.879C105.769 152.027 105.604 152.242 105.384 152.455C105.165 152.667 104.882 152.843 104.538 152.983C104.193 153.123 103.78 153.193 103.299 153.193ZM103.668 151.83C104.138 151.83 104.54 151.737 104.873 151.551C105.21 151.366 105.466 151.123 105.64 150.824C105.818 150.521 105.907 150.197 105.907 149.852V148.727C105.846 148.788 105.729 148.845 105.555 148.898C105.384 148.947 105.189 148.991 104.969 149.028C104.75 149.062 104.536 149.095 104.327 149.125C104.119 149.152 103.945 149.174 103.805 149.193C103.475 149.235 103.174 149.305 102.901 149.403C102.632 149.502 102.416 149.644 102.254 149.83C102.094 150.011 102.015 150.254 102.015 150.557C102.015 150.977 102.17 151.295 102.481 151.511C102.791 151.723 103.187 151.83 103.668 151.83ZM113.545 153.176C112.7 153.176 111.973 152.985 111.363 152.602C110.757 152.216 110.291 151.684 109.965 151.006C109.639 150.328 109.477 149.551 109.477 148.676C109.477 147.79 109.643 147.008 109.977 146.33C110.31 145.648 110.78 145.116 111.386 144.733C111.992 144.35 112.706 144.159 113.528 144.159C114.191 144.159 114.781 144.282 115.3 144.528C115.819 144.771 116.238 145.112 116.556 145.551C116.878 145.991 117.069 146.504 117.13 147.091H115.477C115.386 146.682 115.177 146.33 114.852 146.034C114.53 145.739 114.098 145.591 113.556 145.591C113.083 145.591 112.668 145.716 112.312 145.966C111.96 146.212 111.685 146.564 111.488 147.023C111.291 147.477 111.192 148.015 111.192 148.636C111.192 149.273 111.289 149.822 111.482 150.284C111.675 150.746 111.948 151.104 112.3 151.358C112.656 151.612 113.075 151.739 113.556 151.739C113.878 151.739 114.17 151.68 114.431 151.562C114.696 151.441 114.918 151.269 115.096 151.045C115.278 150.822 115.405 150.553 115.477 150.239H117.13C117.069 150.803 116.886 151.307 116.579 151.75C116.272 152.193 115.861 152.542 115.346 152.795C114.835 153.049 114.234 153.176 113.545 153.176ZM123.021 144.273V145.636H118.254V144.273H123.021ZM119.532 142.182H121.231V150.438C121.231 150.767 121.28 151.015 121.379 151.182C121.477 151.345 121.604 151.456 121.759 151.517C121.918 151.574 122.091 151.602 122.276 151.602C122.413 151.602 122.532 151.593 122.634 151.574C122.737 151.555 122.816 151.54 122.873 151.528L123.18 152.932C123.081 152.97 122.941 153.008 122.759 153.045C122.577 153.087 122.35 153.11 122.077 153.114C121.63 153.121 121.214 153.042 120.827 152.875C120.441 152.708 120.129 152.451 119.89 152.102C119.651 151.754 119.532 151.316 119.532 150.79V142.182ZM124.9 153V144.273H126.599V153H124.9ZM125.758 142.926C125.462 142.926 125.209 142.828 124.996 142.631C124.788 142.43 124.684 142.191 124.684 141.915C124.684 141.634 124.788 141.396 124.996 141.199C125.209 140.998 125.462 140.898 125.758 140.898C126.053 140.898 126.305 140.998 126.513 141.199C126.726 141.396 126.832 141.634 126.832 141.915C126.832 142.191 126.726 142.43 126.513 142.631C126.305 142.828 126.053 142.926 125.758 142.926ZM136.35 144.273L133.185 153H131.367L128.197 144.273H130.021L132.231 150.989H132.322L134.526 144.273H136.35ZM141.411 153.176C140.551 153.176 139.811 152.992 139.19 152.625C138.572 152.254 138.095 151.733 137.758 151.062C137.424 150.388 137.258 149.598 137.258 148.693C137.258 147.799 137.424 147.011 137.758 146.33C138.095 145.648 138.565 145.116 139.167 144.733C139.773 144.35 140.481 144.159 141.292 144.159C141.784 144.159 142.262 144.241 142.724 144.403C143.186 144.566 143.601 144.822 143.968 145.17C144.335 145.519 144.625 145.972 144.837 146.528C145.049 147.081 145.156 147.754 145.156 148.545V149.148H138.218V147.875H143.491C143.491 147.428 143.4 147.032 143.218 146.688C143.036 146.339 142.781 146.064 142.451 145.864C142.125 145.663 141.743 145.562 141.303 145.562C140.826 145.562 140.409 145.68 140.053 145.915C139.701 146.146 139.428 146.449 139.235 146.824C139.046 147.195 138.951 147.598 138.951 148.034V149.028C138.951 149.612 139.053 150.108 139.258 150.517C139.466 150.926 139.756 151.239 140.127 151.455C140.498 151.667 140.932 151.773 141.428 151.773C141.75 151.773 142.044 151.727 142.309 151.636C142.574 151.542 142.803 151.402 142.996 151.216C143.19 151.03 143.337 150.801 143.44 150.528L145.048 150.818C144.919 151.292 144.688 151.706 144.354 152.062C144.025 152.415 143.61 152.689 143.11 152.886C142.614 153.08 142.048 153.176 141.411 153.176ZM153.815 153.193C153.262 153.193 152.762 153.091 152.315 152.886C151.868 152.678 151.513 152.377 151.252 151.983C150.995 151.589 150.866 151.106 150.866 150.534C150.866 150.042 150.96 149.636 151.15 149.318C151.339 149 151.595 148.748 151.917 148.562C152.239 148.377 152.599 148.237 152.996 148.142C153.394 148.047 153.799 147.975 154.212 147.926C154.735 147.866 155.159 147.816 155.485 147.778C155.811 147.737 156.048 147.67 156.195 147.58C156.343 147.489 156.417 147.341 156.417 147.136V147.097C156.417 146.6 156.277 146.216 155.996 145.943C155.72 145.67 155.307 145.534 154.758 145.534C154.186 145.534 153.735 145.661 153.406 145.915C153.08 146.165 152.854 146.443 152.729 146.75L151.133 146.386C151.322 145.856 151.599 145.428 151.962 145.102C152.33 144.773 152.752 144.534 153.229 144.386C153.707 144.235 154.209 144.159 154.735 144.159C155.084 144.159 155.453 144.201 155.843 144.284C156.237 144.364 156.604 144.511 156.945 144.727C157.29 144.943 157.572 145.252 157.792 145.653C158.012 146.051 158.121 146.568 158.121 147.205V153H156.462V151.807H156.394C156.284 152.027 156.12 152.242 155.9 152.455C155.68 152.667 155.398 152.843 155.053 152.983C154.709 153.123 154.296 153.193 153.815 153.193ZM154.184 151.83C154.654 151.83 155.055 151.737 155.388 151.551C155.726 151.366 155.981 151.123 156.156 150.824C156.334 150.521 156.423 150.197 156.423 149.852V148.727C156.362 148.788 156.245 148.845 156.07 148.898C155.9 148.947 155.705 148.991 155.485 149.028C155.265 149.062 155.051 149.095 154.843 149.125C154.635 149.152 154.46 149.174 154.32 149.193C153.991 149.235 153.69 149.305 153.417 149.403C153.148 149.502 152.932 149.644 152.769 149.83C152.61 150.011 152.531 150.254 152.531 150.557C152.531 150.977 152.686 151.295 152.996 151.511C153.307 151.723 153.703 151.83 154.184 151.83ZM162.083 147.818V153H160.384V144.273H162.015V145.693H162.123C162.324 145.231 162.638 144.86 163.066 144.58C163.498 144.299 164.041 144.159 164.697 144.159C165.291 144.159 165.812 144.284 166.259 144.534C166.706 144.78 167.053 145.148 167.299 145.636C167.545 146.125 167.668 146.729 167.668 147.449V153H165.969V147.653C165.969 147.021 165.805 146.527 165.475 146.17C165.146 145.811 164.693 145.631 164.117 145.631C163.723 145.631 163.373 145.716 163.066 145.886C162.763 146.057 162.522 146.307 162.344 146.636C162.17 146.962 162.083 147.356 162.083 147.818ZM173.214 153.17C172.509 153.17 171.88 152.991 171.327 152.631C170.778 152.267 170.346 151.75 170.032 151.08C169.721 150.405 169.566 149.597 169.566 148.653C169.566 147.71 169.723 146.903 170.038 146.233C170.356 145.562 170.791 145.049 171.344 144.693C171.897 144.337 172.524 144.159 173.225 144.159C173.767 144.159 174.202 144.25 174.532 144.432C174.865 144.61 175.123 144.818 175.305 145.057C175.49 145.295 175.634 145.506 175.737 145.688H175.839V141.364H177.538V153H175.879V151.642H175.737C175.634 151.828 175.487 152.04 175.293 152.278C175.104 152.517 174.843 152.725 174.509 152.903C174.176 153.081 173.744 153.17 173.214 153.17ZM173.589 151.722C174.077 151.722 174.49 151.593 174.827 151.335C175.168 151.074 175.426 150.712 175.6 150.25C175.778 149.788 175.867 149.25 175.867 148.636C175.867 148.03 175.78 147.5 175.606 147.045C175.432 146.591 175.176 146.237 174.839 145.983C174.502 145.729 174.085 145.602 173.589 145.602C173.077 145.602 172.651 145.735 172.31 146C171.969 146.265 171.712 146.627 171.538 147.085C171.367 147.544 171.282 148.061 171.282 148.636C171.282 149.22 171.369 149.744 171.543 150.21C171.718 150.676 171.975 151.045 172.316 151.318C172.661 151.587 173.085 151.722 173.589 151.722ZM189.725 149.381V144.273H191.43V153H189.759V151.489H189.668C189.468 151.955 189.146 152.343 188.702 152.653C188.263 152.96 187.716 153.114 187.06 153.114C186.5 153.114 186.004 152.991 185.572 152.744C185.144 152.494 184.807 152.125 184.56 151.636C184.318 151.148 184.197 150.544 184.197 149.824V144.273H185.896V149.619C185.896 150.214 186.06 150.687 186.39 151.04C186.719 151.392 187.147 151.568 187.674 151.568C187.992 151.568 188.308 151.489 188.623 151.33C188.941 151.17 189.204 150.93 189.413 150.608C189.625 150.286 189.729 149.877 189.725 149.381ZM200.252 146.403L198.712 146.676C198.648 146.479 198.546 146.292 198.406 146.114C198.269 145.936 198.084 145.79 197.849 145.676C197.614 145.562 197.32 145.506 196.968 145.506C196.487 145.506 196.085 145.614 195.763 145.83C195.442 146.042 195.281 146.316 195.281 146.653C195.281 146.945 195.388 147.18 195.604 147.358C195.82 147.536 196.169 147.682 196.65 147.795L198.036 148.114C198.839 148.299 199.438 148.585 199.832 148.972C200.226 149.358 200.423 149.86 200.423 150.477C200.423 151 200.271 151.466 199.968 151.875C199.669 152.28 199.25 152.598 198.712 152.83C198.178 153.061 197.559 153.176 196.854 153.176C195.877 153.176 195.08 152.968 194.462 152.551C193.845 152.131 193.466 151.534 193.326 150.761L194.968 150.511C195.07 150.939 195.281 151.263 195.599 151.483C195.917 151.699 196.332 151.807 196.843 151.807C197.4 151.807 197.845 151.691 198.178 151.46C198.512 151.225 198.678 150.939 198.678 150.602C198.678 150.33 198.576 150.1 198.371 149.915C198.171 149.729 197.862 149.589 197.445 149.494L195.968 149.17C195.154 148.985 194.551 148.689 194.161 148.284C193.775 147.879 193.582 147.366 193.582 146.744C193.582 146.229 193.726 145.778 194.013 145.392C194.301 145.006 194.699 144.705 195.207 144.489C195.714 144.269 196.296 144.159 196.951 144.159C197.894 144.159 198.637 144.364 199.178 144.773C199.72 145.178 200.078 145.722 200.252 146.403ZM206.052 153.176C205.192 153.176 204.451 152.992 203.83 152.625C203.213 152.254 202.736 151.733 202.398 151.062C202.065 150.388 201.898 149.598 201.898 148.693C201.898 147.799 202.065 147.011 202.398 146.33C202.736 145.648 203.205 145.116 203.808 144.733C204.414 144.35 205.122 144.159 205.933 144.159C206.425 144.159 206.902 144.241 207.364 144.403C207.826 144.566 208.241 144.822 208.609 145.17C208.976 145.519 209.266 145.972 209.478 146.528C209.69 147.081 209.796 147.754 209.796 148.545V149.148H202.859V147.875H208.131C208.131 147.428 208.04 147.032 207.859 146.688C207.677 146.339 207.421 146.064 207.092 145.864C206.766 145.663 206.383 145.562 205.944 145.562C205.467 145.562 205.05 145.68 204.694 145.915C204.342 146.146 204.069 146.449 203.876 146.824C203.686 147.195 203.592 147.598 203.592 148.034V149.028C203.592 149.612 203.694 150.108 203.898 150.517C204.107 150.926 204.397 151.239 204.768 151.455C205.139 151.667 205.573 151.773 206.069 151.773C206.391 151.773 206.684 151.727 206.95 151.636C207.215 151.542 207.444 151.402 207.637 151.216C207.83 151.03 207.978 150.801 208.08 150.528L209.688 150.818C209.559 151.292 209.328 151.706 208.995 152.062C208.665 152.415 208.251 152.689 207.751 152.886C207.254 153.08 206.688 153.176 206.052 153.176ZM211.681 153V144.273H213.323V145.659H213.414C213.573 145.189 213.853 144.82 214.255 144.551C214.66 144.278 215.119 144.142 215.63 144.142C215.736 144.142 215.861 144.146 216.005 144.153C216.153 144.161 216.268 144.17 216.352 144.182V145.807C216.283 145.788 216.162 145.767 215.988 145.744C215.814 145.718 215.639 145.705 215.465 145.705C215.064 145.705 214.706 145.79 214.391 145.96C214.081 146.127 213.835 146.36 213.653 146.659C213.471 146.955 213.38 147.292 213.38 147.67V153H211.681ZM222.448 147.347V148.818H217.289V147.347H222.448ZM65.2251 163.273V164.636H60.2933V163.273H65.2251ZM61.6456 172V162.261C61.6456 161.716 61.7649 161.263 62.0036 160.903C62.2422 160.54 62.5585 160.269 62.9524 160.091C63.3464 159.909 63.7744 159.818 64.2365 159.818C64.5774 159.818 64.8691 159.847 65.1115 159.903C65.3539 159.956 65.5339 160.006 65.6513 160.051L65.2536 161.426C65.174 161.403 65.0717 161.377 64.9467 161.347C64.8217 161.312 64.6702 161.295 64.4922 161.295C64.0793 161.295 63.7839 161.398 63.6058 161.602C63.4316 161.807 63.3445 162.102 63.3445 162.489V172H61.6456ZM66.978 172V163.273H68.62V164.659H68.7109C68.87 164.189 69.1503 163.82 69.5518 163.551C69.9571 163.278 70.4155 163.142 70.9268 163.142C71.0329 163.142 71.1579 163.146 71.3018 163.153C71.4496 163.161 71.5651 163.17 71.6484 163.182V164.807C71.5803 164.788 71.459 164.767 71.2848 164.744C71.1106 164.718 70.9363 164.705 70.7621 164.705C70.3606 164.705 70.0026 164.79 69.6882 164.96C69.3776 165.127 69.1314 165.36 68.9496 165.659C68.7678 165.955 68.6768 166.292 68.6768 166.67V172H66.978ZM73.1186 172V163.273H74.8175V172H73.1186ZM73.9766 161.926C73.6811 161.926 73.4273 161.828 73.2152 161.631C73.0069 161.43 72.9027 161.191 72.9027 160.915C72.9027 160.634 73.0069 160.396 73.2152 160.199C73.4273 159.998 73.6811 159.898 73.9766 159.898C74.272 159.898 74.5239 159.998 74.7322 160.199C74.9444 160.396 75.0504 160.634 75.0504 160.915C75.0504 161.191 74.9444 161.43 74.7322 161.631C74.5239 161.828 74.272 161.926 73.9766 161.926ZM80.8643 172.176C80.0045 172.176 79.264 171.992 78.6428 171.625C78.0253 171.254 77.5481 170.733 77.2109 170.062C76.8776 169.388 76.7109 168.598 76.7109 167.693C76.7109 166.799 76.8776 166.011 77.2109 165.33C77.5481 164.648 78.0178 164.116 78.62 163.733C79.2261 163.35 79.9344 163.159 80.745 163.159C81.2375 163.159 81.7147 163.241 82.1768 163.403C82.639 163.566 83.0537 163.822 83.4212 164.17C83.7886 164.519 84.0784 164.972 84.2905 165.528C84.5026 166.081 84.6087 166.754 84.6087 167.545V168.148H77.6712V166.875H82.9439C82.9439 166.428 82.853 166.032 82.6712 165.688C82.4893 165.339 82.2337 165.064 81.9041 164.864C81.5784 164.663 81.1958 164.562 80.7564 164.562C80.2791 164.562 79.8625 164.68 79.5064 164.915C79.1541 165.146 78.8814 165.449 78.6882 165.824C78.4988 166.195 78.4041 166.598 78.4041 167.034V168.028C78.4041 168.612 78.5064 169.108 78.7109 169.517C78.9193 169.926 79.209 170.239 79.5803 170.455C79.9515 170.667 80.3852 170.773 80.8814 170.773C81.2034 170.773 81.4969 170.727 81.7621 170.636C82.0272 170.542 82.2564 170.402 82.4496 170.216C82.6428 170.03 82.7905 169.801 82.8928 169.528L84.5007 169.818C84.3719 170.292 84.1409 170.706 83.8075 171.062C83.478 171.415 83.0632 171.689 82.5632 171.886C82.067 172.08 81.5007 172.176 80.8643 172.176ZM88.1925 166.818V172H86.4936V163.273H88.1243V164.693H88.2322C88.433 164.231 88.7474 163.86 89.1754 163.58C89.6072 163.299 90.1508 163.159 90.8061 163.159C91.4008 163.159 91.9216 163.284 92.3686 163.534C92.8156 163.78 93.1622 164.148 93.4084 164.636C93.6546 165.125 93.7777 165.729 93.7777 166.449V172H92.0788V166.653C92.0788 166.021 91.9141 165.527 91.5845 165.17C91.255 164.811 90.8023 164.631 90.2266 164.631C89.8326 164.631 89.4822 164.716 89.1754 164.886C88.8724 165.057 88.6319 165.307 88.4538 165.636C88.2796 165.962 88.1925 166.356 88.1925 166.818ZM99.3232 172.17C98.6186 172.17 97.9898 171.991 97.4368 171.631C96.8875 171.267 96.4557 170.75 96.1413 170.08C95.8307 169.405 95.6754 168.597 95.6754 167.653C95.6754 166.71 95.8326 165.903 96.147 165.233C96.4652 164.562 96.9008 164.049 97.4538 163.693C98.0069 163.337 98.6338 163.159 99.3345 163.159C99.8762 163.159 100.312 163.25 100.641 163.432C100.975 163.61 101.232 163.818 101.414 164.057C101.6 164.295 101.744 164.506 101.846 164.688H101.948V160.364H103.647V172H101.988V170.642H101.846C101.744 170.828 101.596 171.04 101.403 171.278C101.213 171.517 100.952 171.725 100.619 171.903C100.285 172.081 99.8535 172.17 99.3232 172.17ZM99.6982 170.722C100.187 170.722 100.6 170.593 100.937 170.335C101.278 170.074 101.535 169.712 101.71 169.25C101.888 168.788 101.977 168.25 101.977 167.636C101.977 167.03 101.889 166.5 101.715 166.045C101.541 165.591 101.285 165.237 100.948 164.983C100.611 164.729 100.194 164.602 99.6982 164.602C99.1868 164.602 98.7607 164.735 98.4197 165C98.0788 165.265 97.8213 165.627 97.647 166.085C97.4766 166.544 97.3913 167.061 97.3913 167.636C97.3913 168.22 97.4785 168.744 97.6527 169.21C97.8269 169.676 98.0845 170.045 98.4254 170.318C98.7701 170.587 99.1944 170.722 99.6982 170.722ZM107.771 160.364V172H106.072V160.364H107.771ZM111.13 175.273C110.876 175.273 110.645 175.252 110.437 175.21C110.228 175.172 110.073 175.131 109.971 175.085L110.38 173.693C110.691 173.777 110.967 173.813 111.21 173.801C111.452 173.79 111.666 173.699 111.852 173.528C112.041 173.358 112.208 173.08 112.352 172.693L112.562 172.114L109.369 163.273H111.187L113.397 170.045H113.488L115.698 163.273H117.522L113.925 173.165C113.759 173.619 113.547 174.004 113.289 174.318C113.031 174.636 112.725 174.875 112.369 175.034C112.013 175.193 111.6 175.273 111.13 175.273ZM123.353 172V163.273H125.052V172H123.353ZM124.211 161.926C123.915 161.926 123.662 161.828 123.45 161.631C123.241 161.43 123.137 161.191 123.137 160.915C123.137 160.634 123.241 160.396 123.45 160.199C123.662 159.998 123.915 159.898 124.211 159.898C124.506 159.898 124.758 159.998 124.967 160.199C125.179 160.396 125.285 160.634 125.285 160.915C125.285 161.191 125.179 161.43 124.967 161.631C124.758 161.828 124.506 161.926 124.211 161.926ZM129.036 166.818V172H127.337V163.273H128.968V164.693H129.076C129.277 164.231 129.591 163.86 130.019 163.58C130.451 163.299 130.995 163.159 131.65 163.159C132.245 163.159 132.765 163.284 133.212 163.534C133.659 163.78 134.006 164.148 134.252 164.636C134.498 165.125 134.621 165.729 134.621 166.449V172H132.923V166.653C132.923 166.021 132.758 165.527 132.428 165.17C132.099 164.811 131.646 164.631 131.07 164.631C130.676 164.631 130.326 164.716 130.019 164.886C129.716 165.057 129.476 165.307 129.298 165.636C129.123 165.962 129.036 166.356 129.036 166.818ZM140.974 163.273V164.636H136.207V163.273H140.974ZM137.485 161.182H139.184V169.438C139.184 169.767 139.233 170.015 139.332 170.182C139.43 170.345 139.557 170.456 139.712 170.517C139.871 170.574 140.044 170.602 140.229 170.602C140.366 170.602 140.485 170.593 140.587 170.574C140.69 170.555 140.769 170.54 140.826 170.528L141.133 171.932C141.034 171.97 140.894 172.008 140.712 172.045C140.531 172.087 140.303 172.11 140.031 172.114C139.584 172.121 139.167 172.042 138.781 171.875C138.394 171.708 138.082 171.451 137.843 171.102C137.604 170.754 137.485 170.316 137.485 169.79V161.182ZM146.521 172.176C145.661 172.176 144.92 171.992 144.299 171.625C143.682 171.254 143.204 170.733 142.867 170.062C142.534 169.388 142.367 168.598 142.367 167.693C142.367 166.799 142.534 166.011 142.867 165.33C143.204 164.648 143.674 164.116 144.276 163.733C144.882 163.35 145.591 163.159 146.401 163.159C146.894 163.159 147.371 163.241 147.833 163.403C148.295 163.566 148.71 163.822 149.077 164.17C149.445 164.519 149.735 164.972 149.947 165.528C150.159 166.081 150.265 166.754 150.265 167.545V168.148H143.327V166.875H148.6C148.6 166.428 148.509 166.032 148.327 165.688C148.146 165.339 147.89 165.064 147.56 164.864C147.235 164.663 146.852 164.562 146.413 164.562C145.935 164.562 145.519 164.68 145.163 164.915C144.81 165.146 144.538 165.449 144.344 165.824C144.155 166.195 144.06 166.598 144.06 167.034V168.028C144.06 168.612 144.163 169.108 144.367 169.517C144.576 169.926 144.865 170.239 145.237 170.455C145.608 170.667 146.041 170.773 146.538 170.773C146.86 170.773 147.153 170.727 147.418 170.636C147.683 170.542 147.913 170.402 148.106 170.216C148.299 170.03 148.447 169.801 148.549 169.528L150.157 169.818C150.028 170.292 149.797 170.706 149.464 171.062C149.134 171.415 148.719 171.689 148.219 171.886C147.723 172.08 147.157 172.176 146.521 172.176ZM152.15 172V163.273H153.792V164.659H153.883C154.042 164.189 154.322 163.82 154.724 163.551C155.129 163.278 155.587 163.142 156.099 163.142C156.205 163.142 156.33 163.146 156.474 163.153C156.621 163.161 156.737 163.17 156.82 163.182V164.807C156.752 164.788 156.631 164.767 156.457 164.744C156.282 164.718 156.108 164.705 155.934 164.705C155.532 164.705 155.174 164.79 154.86 164.96C154.549 165.127 154.303 165.36 154.121 165.659C153.94 165.955 153.849 166.292 153.849 166.67V172H152.15ZM162.96 163.273V164.636H158.028V163.273H162.96ZM159.38 172V162.261C159.38 161.716 159.499 161.263 159.738 160.903C159.977 160.54 160.293 160.269 160.687 160.091C161.081 159.909 161.509 159.818 161.971 159.818C162.312 159.818 162.603 159.847 162.846 159.903C163.088 159.956 163.268 160.006 163.386 160.051L162.988 161.426C162.908 161.403 162.806 161.377 162.681 161.347C162.556 161.312 162.405 161.295 162.227 161.295C161.814 161.295 161.518 161.398 161.34 161.602C161.166 161.807 161.079 162.102 161.079 162.489V172H159.38ZM166.987 172.193C166.433 172.193 165.933 172.091 165.487 171.886C165.04 171.678 164.685 171.377 164.424 170.983C164.166 170.589 164.038 170.106 164.038 169.534C164.038 169.042 164.132 168.636 164.322 168.318C164.511 168 164.767 167.748 165.089 167.562C165.411 167.377 165.771 167.237 166.168 167.142C166.566 167.047 166.971 166.975 167.384 166.926C167.907 166.866 168.331 166.816 168.657 166.778C168.983 166.737 169.219 166.67 169.367 166.58C169.515 166.489 169.589 166.341 169.589 166.136V166.097C169.589 165.6 169.449 165.216 169.168 164.943C168.892 164.67 168.479 164.534 167.93 164.534C167.358 164.534 166.907 164.661 166.577 164.915C166.252 165.165 166.026 165.443 165.901 165.75L164.305 165.386C164.494 164.856 164.771 164.428 165.134 164.102C165.502 163.773 165.924 163.534 166.401 163.386C166.879 163.235 167.38 163.159 167.907 163.159C168.255 163.159 168.625 163.201 169.015 163.284C169.409 163.364 169.776 163.511 170.117 163.727C170.462 163.943 170.744 164.252 170.964 164.653C171.183 165.051 171.293 165.568 171.293 166.205V172H169.634V170.807H169.566C169.456 171.027 169.291 171.242 169.072 171.455C168.852 171.667 168.57 171.843 168.225 171.983C167.88 172.123 167.468 172.193 166.987 172.193ZM167.356 170.83C167.826 170.83 168.227 170.737 168.56 170.551C168.897 170.366 169.153 170.123 169.327 169.824C169.505 169.521 169.594 169.197 169.594 168.852V167.727C169.534 167.788 169.416 167.845 169.242 167.898C169.072 167.947 168.877 167.991 168.657 168.028C168.437 168.062 168.223 168.095 168.015 168.125C167.807 168.152 167.632 168.174 167.492 168.193C167.163 168.235 166.862 168.305 166.589 168.403C166.32 168.502 166.104 168.644 165.941 168.83C165.782 169.011 165.702 169.254 165.702 169.557C165.702 169.977 165.858 170.295 166.168 170.511C166.479 170.723 166.875 170.83 167.356 170.83ZM177.232 172.176C176.388 172.176 175.66 171.985 175.05 171.602C174.444 171.216 173.978 170.684 173.653 170.006C173.327 169.328 173.164 168.551 173.164 167.676C173.164 166.79 173.331 166.008 173.664 165.33C173.997 164.648 174.467 164.116 175.073 163.733C175.679 163.35 176.393 163.159 177.215 163.159C177.878 163.159 178.469 163.282 178.988 163.528C179.507 163.771 179.925 164.112 180.244 164.551C180.566 164.991 180.757 165.504 180.817 166.091H179.164C179.073 165.682 178.865 165.33 178.539 165.034C178.217 164.739 177.785 164.591 177.244 164.591C176.77 164.591 176.355 164.716 175.999 164.966C175.647 165.212 175.372 165.564 175.175 166.023C174.978 166.477 174.88 167.015 174.88 167.636C174.88 168.273 174.977 168.822 175.17 169.284C175.363 169.746 175.636 170.104 175.988 170.358C176.344 170.612 176.763 170.739 177.244 170.739C177.566 170.739 177.857 170.68 178.119 170.562C178.384 170.441 178.605 170.269 178.783 170.045C178.965 169.822 179.092 169.553 179.164 169.239H180.817C180.757 169.803 180.573 170.307 180.266 170.75C179.96 171.193 179.549 171.542 179.033 171.795C178.522 172.049 177.922 172.176 177.232 172.176ZM186.396 172.176C185.536 172.176 184.795 171.992 184.174 171.625C183.557 171.254 183.079 170.733 182.742 170.062C182.409 169.388 182.242 168.598 182.242 167.693C182.242 166.799 182.409 166.011 182.742 165.33C183.079 164.648 183.549 164.116 184.151 163.733C184.757 163.35 185.466 163.159 186.276 163.159C186.769 163.159 187.246 163.241 187.708 163.403C188.17 163.566 188.585 163.822 188.952 164.17C189.32 164.519 189.61 164.972 189.822 165.528C190.034 166.081 190.14 166.754 190.14 167.545V168.148H183.202V166.875H188.475C188.475 166.428 188.384 166.032 188.202 165.688C188.021 165.339 187.765 165.064 187.435 164.864C187.11 164.663 186.727 164.562 186.288 164.562C185.81 164.562 185.394 164.68 185.038 164.915C184.685 165.146 184.413 165.449 184.219 165.824C184.03 166.195 183.935 166.598 183.935 167.034V168.028C183.935 168.612 184.038 169.108 184.242 169.517C184.451 169.926 184.74 170.239 185.112 170.455C185.483 170.667 185.916 170.773 186.413 170.773C186.735 170.773 187.028 170.727 187.293 170.636C187.558 170.542 187.788 170.402 187.981 170.216C188.174 170.03 188.322 169.801 188.424 169.528L190.032 169.818C189.903 170.292 189.672 170.706 189.339 171.062C189.009 171.415 188.594 171.689 188.094 171.886C187.598 172.08 187.032 172.176 186.396 172.176ZM198.151 172L195.583 163.273H197.339L199.049 169.682H199.134L200.85 163.273H202.606L204.31 169.653H204.396L206.094 163.273H207.85L205.288 172H203.555L201.782 165.699H201.651L199.879 172H198.151ZM209.462 172V163.273H211.161V172H209.462ZM210.32 161.926C210.025 161.926 209.771 161.828 209.559 161.631C209.351 161.43 209.246 161.191 209.246 160.915C209.246 160.634 209.351 160.396 209.559 160.199C209.771 159.998 210.025 159.898 210.32 159.898C210.616 159.898 210.868 159.998 211.076 160.199C211.288 160.396 211.394 160.634 211.394 160.915C211.394 161.191 211.288 161.43 211.076 161.631C210.868 161.828 210.616 161.926 210.32 161.926ZM217.521 163.273V164.636H212.754V163.273H217.521ZM214.032 161.182H215.731V169.438C215.731 169.767 215.78 170.015 215.879 170.182C215.977 170.345 216.104 170.456 216.259 170.517C216.418 170.574 216.591 170.602 216.776 170.602C216.913 170.602 217.032 170.593 217.134 170.574C217.237 170.555 217.316 170.54 217.373 170.528L217.68 171.932C217.581 171.97 217.441 172.008 217.259 172.045C217.077 172.087 216.85 172.11 216.577 172.114C216.13 172.121 215.714 172.042 215.327 171.875C214.941 171.708 214.629 171.451 214.39 171.102C214.151 170.754 214.032 170.316 214.032 169.79V161.182ZM221.286 166.818V172H219.587V160.364H221.263V164.693H221.371C221.576 164.223 221.888 163.85 222.309 163.574C222.729 163.297 223.279 163.159 223.957 163.159C224.555 163.159 225.078 163.282 225.525 163.528C225.976 163.775 226.324 164.142 226.57 164.631C226.82 165.116 226.945 165.722 226.945 166.449V172H225.246V166.653C225.246 166.013 225.082 165.517 224.752 165.165C224.423 164.809 223.964 164.631 223.377 164.631C222.976 164.631 222.616 164.716 222.298 164.886C221.983 165.057 221.735 165.307 221.553 165.636C221.375 165.962 221.286 166.356 221.286 166.818ZM66.7131 184.403L65.1733 184.676C65.1089 184.479 65.0066 184.292 64.8665 184.114C64.7301 183.936 64.5445 183.79 64.3097 183.676C64.0748 183.562 63.7813 183.506 63.429 183.506C62.9479 183.506 62.5464 183.614 62.2244 183.83C61.9025 184.042 61.7415 184.316 61.7415 184.653C61.7415 184.945 61.8494 185.18 62.0653 185.358C62.2813 185.536 62.6297 185.682 63.1108 185.795L64.4972 186.114C65.3002 186.299 65.8987 186.585 66.2926 186.972C66.6866 187.358 66.8835 187.86 66.8835 188.477C66.8835 189 66.732 189.466 66.429 189.875C66.1297 190.28 65.7112 190.598 65.1733 190.83C64.6392 191.061 64.0199 191.176 63.3153 191.176C62.3381 191.176 61.5407 190.968 60.9233 190.551C60.3059 190.131 59.9271 189.534 59.7869 188.761L61.429 188.511C61.5313 188.939 61.7415 189.263 62.0597 189.483C62.3778 189.699 62.7926 189.807 63.304 189.807C63.8608 189.807 64.3059 189.691 64.6392 189.46C64.9725 189.225 65.1392 188.939 65.1392 188.602C65.1392 188.33 65.0369 188.1 64.8324 187.915C64.6316 187.729 64.3229 187.589 63.9062 187.494L62.429 187.17C61.6146 186.985 61.0123 186.689 60.6222 186.284C60.2358 185.879 60.0426 185.366 60.0426 184.744C60.0426 184.229 60.1866 183.778 60.4744 183.392C60.7623 183.006 61.16 182.705 61.6676 182.489C62.1752 182.269 62.7566 182.159 63.4119 182.159C64.3551 182.159 65.0975 182.364 65.6392 182.773C66.1809 183.178 66.5388 183.722 66.7131 184.403ZM72.8253 182.273V183.636H68.0582V182.273H72.8253ZM69.3366 180.182H71.0355V188.438C71.0355 188.767 71.0848 189.015 71.1832 189.182C71.2817 189.345 71.4086 189.456 71.5639 189.517C71.723 189.574 71.8954 189.602 72.081 189.602C72.2173 189.602 72.3366 189.593 72.4389 189.574C72.5412 189.555 72.6207 189.54 72.6776 189.528L72.9844 190.932C72.8859 190.97 72.7457 191.008 72.5639 191.045C72.3821 191.087 72.1548 191.11 71.8821 191.114C71.4351 191.121 71.0185 191.042 70.6321 190.875C70.2457 190.708 69.9332 190.451 69.6946 190.102C69.456 189.754 69.3366 189.316 69.3366 188.79V180.182ZM80.233 187.381V182.273H81.9375V191H80.267V189.489H80.1761C79.9754 189.955 79.6534 190.343 79.2102 190.653C78.7708 190.96 78.2235 191.114 77.5682 191.114C77.0076 191.114 76.5114 190.991 76.0795 190.744C75.6515 190.494 75.3144 190.125 75.0682 189.636C74.8258 189.148 74.7045 188.544 74.7045 187.824V182.273H76.4034V187.619C76.4034 188.214 76.5682 188.687 76.8977 189.04C77.2273 189.392 77.6553 189.568 78.1818 189.568C78.5 189.568 78.8163 189.489 79.1307 189.33C79.4489 189.17 79.7121 188.93 79.9205 188.608C80.1326 188.286 80.2367 187.877 80.233 187.381ZM85.919 185.818V191H84.2202V182.273H85.8509V183.693H85.9588C86.1596 183.231 86.474 182.86 86.902 182.58C87.3338 182.299 87.8774 182.159 88.5327 182.159C89.1274 182.159 89.6482 182.284 90.0952 182.534C90.5421 182.78 90.8887 183.148 91.1349 183.636C91.3812 184.125 91.5043 184.729 91.5043 185.449V191H89.8054V185.653C89.8054 185.021 89.6406 184.527 89.3111 184.17C88.9815 183.811 88.5289 183.631 87.9531 183.631C87.5592 183.631 87.2088 183.716 86.902 183.886C86.599 184.057 86.3584 184.307 86.1804 184.636C86.0062 184.962 85.919 185.356 85.919 185.818ZM95.4815 185.818V191H93.7827V182.273H95.4134V183.693H95.5213C95.7221 183.231 96.0365 182.86 96.4645 182.58C96.8963 182.299 97.4399 182.159 98.0952 182.159C98.6899 182.159 99.2107 182.284 99.6577 182.534C100.105 182.78 100.451 183.148 100.697 183.636C100.944 184.125 101.067 184.729 101.067 185.449V191H99.3679V185.653C99.3679 185.021 99.2031 184.527 98.8736 184.17C98.544 183.811 98.0914 183.631 97.5156 183.631C97.1217 183.631 96.7713 183.716 96.4645 183.886C96.1615 184.057 95.9209 184.307 95.7429 184.636C95.5687 184.962 95.4815 185.356 95.4815 185.818ZM103.345 191V182.273H105.044V191H103.345ZM104.203 180.926C103.908 180.926 103.654 180.828 103.442 180.631C103.233 180.43 103.129 180.191 103.129 179.915C103.129 179.634 103.233 179.396 103.442 179.199C103.654 178.998 103.908 178.898 104.203 178.898C104.499 178.898 104.75 178.998 104.959 179.199C105.171 179.396 105.277 179.634 105.277 179.915C105.277 180.191 105.171 180.43 104.959 180.631C104.75 180.828 104.499 180.926 104.203 180.926ZM109.028 185.818V191H107.33V182.273H108.96V183.693H109.068C109.269 183.231 109.583 182.86 110.011 182.58C110.443 182.299 110.987 182.159 111.642 182.159C112.237 182.159 112.758 182.284 113.205 182.534C113.652 182.78 113.998 183.148 114.244 183.636C114.491 184.125 114.614 184.729 114.614 185.449V191H112.915V185.653C112.915 185.021 112.75 184.527 112.42 184.17C112.091 183.811 111.638 183.631 111.062 183.631C110.669 183.631 110.318 183.716 110.011 183.886C109.708 184.057 109.468 184.307 109.29 184.636C109.116 184.962 109.028 185.356 109.028 185.818ZM120.551 194.455C119.858 194.455 119.261 194.364 118.761 194.182C118.265 194 117.86 193.759 117.545 193.46C117.231 193.161 116.996 192.833 116.841 192.477L118.301 191.875C118.403 192.042 118.54 192.218 118.71 192.403C118.884 192.593 119.119 192.754 119.415 192.886C119.714 193.019 120.098 193.085 120.568 193.085C121.212 193.085 121.744 192.928 122.165 192.614C122.585 192.303 122.795 191.807 122.795 191.125V189.409H122.688C122.585 189.595 122.438 189.801 122.244 190.028C122.055 190.256 121.794 190.453 121.46 190.619C121.127 190.786 120.693 190.869 120.159 190.869C119.47 190.869 118.848 190.708 118.295 190.386C117.746 190.061 117.311 189.581 116.989 188.949C116.67 188.312 116.511 187.53 116.511 186.602C116.511 185.674 116.669 184.879 116.983 184.216C117.301 183.553 117.737 183.045 118.29 182.693C118.843 182.337 119.47 182.159 120.17 182.159C120.712 182.159 121.15 182.25 121.483 182.432C121.816 182.61 122.076 182.818 122.261 183.057C122.451 183.295 122.597 183.506 122.699 183.688H122.824V182.273H124.489V191.193C124.489 191.943 124.314 192.559 123.966 193.04C123.617 193.521 123.146 193.877 122.551 194.108C121.96 194.339 121.294 194.455 120.551 194.455ZM120.534 189.46C121.023 189.46 121.436 189.347 121.773 189.119C122.114 188.888 122.371 188.559 122.545 188.131C122.723 187.699 122.812 187.182 122.812 186.58C122.812 185.992 122.725 185.475 122.551 185.028C122.377 184.581 122.121 184.233 121.784 183.983C121.447 183.729 121.03 183.602 120.534 183.602C120.023 183.602 119.597 183.735 119.256 184C118.915 184.261 118.657 184.617 118.483 185.068C118.313 185.519 118.227 186.023 118.227 186.58C118.227 187.152 118.314 187.653 118.489 188.085C118.663 188.517 118.92 188.854 119.261 189.097C119.606 189.339 120.03 189.46 120.534 189.46ZM134.661 194.455C133.967 194.455 133.371 194.364 132.871 194.182C132.375 194 131.969 193.759 131.655 193.46C131.34 193.161 131.106 192.833 130.95 192.477L132.411 191.875C132.513 192.042 132.649 192.218 132.82 192.403C132.994 192.593 133.229 192.754 133.524 192.886C133.823 193.019 134.208 193.085 134.678 193.085C135.321 193.085 135.854 192.928 136.274 192.614C136.695 192.303 136.905 191.807 136.905 191.125V189.409H136.797C136.695 189.595 136.547 189.801 136.354 190.028C136.164 190.256 135.903 190.453 135.57 190.619C135.236 190.786 134.803 190.869 134.268 190.869C133.579 190.869 132.958 190.708 132.405 190.386C131.856 190.061 131.42 189.581 131.098 188.949C130.78 188.312 130.621 187.53 130.621 186.602C130.621 185.674 130.778 184.879 131.092 184.216C131.411 183.553 131.846 183.045 132.399 182.693C132.952 182.337 133.579 182.159 134.28 182.159C134.821 182.159 135.259 182.25 135.592 182.432C135.926 182.61 136.185 182.818 136.371 183.057C136.56 183.295 136.706 183.506 136.808 183.688H136.933V182.273H138.598V191.193C138.598 191.943 138.424 192.559 138.075 193.04C137.727 193.521 137.255 193.877 136.661 194.108C136.07 194.339 135.403 194.455 134.661 194.455ZM134.643 189.46C135.132 189.46 135.545 189.347 135.882 189.119C136.223 188.888 136.481 188.559 136.655 188.131C136.833 187.699 136.922 187.182 136.922 186.58C136.922 185.992 136.835 185.475 136.661 185.028C136.486 184.581 136.231 184.233 135.893 183.983C135.556 183.729 135.14 183.602 134.643 183.602C134.132 183.602 133.706 183.735 133.365 184C133.024 184.261 132.767 184.617 132.592 185.068C132.422 185.519 132.337 186.023 132.337 186.58C132.337 187.152 132.424 187.653 132.598 188.085C132.772 188.517 133.03 188.854 133.371 189.097C133.715 189.339 134.14 189.46 134.643 189.46ZM140.876 191V182.273H142.518V183.659H142.609C142.768 183.189 143.049 182.82 143.45 182.551C143.856 182.278 144.314 182.142 144.825 182.142C144.931 182.142 145.056 182.146 145.2 182.153C145.348 182.161 145.464 182.17 145.547 182.182V183.807C145.479 183.788 145.357 183.767 145.183 183.744C145.009 183.718 144.835 183.705 144.661 183.705C144.259 183.705 143.901 183.79 143.587 183.96C143.276 184.127 143.03 184.36 142.848 184.659C142.666 184.955 142.575 185.292 142.575 185.67V191H140.876ZM149.479 191.193C148.926 191.193 148.426 191.091 147.979 190.886C147.532 190.678 147.178 190.377 146.916 189.983C146.659 189.589 146.53 189.106 146.53 188.534C146.53 188.042 146.625 187.636 146.814 187.318C147.003 187 147.259 186.748 147.581 186.562C147.903 186.377 148.263 186.237 148.661 186.142C149.058 186.047 149.464 185.975 149.876 185.926C150.399 185.866 150.823 185.816 151.149 185.778C151.475 185.737 151.712 185.67 151.859 185.58C152.007 185.489 152.081 185.341 152.081 185.136V185.097C152.081 184.6 151.941 184.216 151.661 183.943C151.384 183.67 150.971 183.534 150.422 183.534C149.85 183.534 149.399 183.661 149.07 183.915C148.744 184.165 148.518 184.443 148.393 184.75L146.797 184.386C146.986 183.856 147.263 183.428 147.626 183.102C147.994 182.773 148.416 182.534 148.893 182.386C149.371 182.235 149.873 182.159 150.399 182.159C150.748 182.159 151.117 182.201 151.507 182.284C151.901 182.364 152.268 182.511 152.609 182.727C152.954 182.943 153.236 183.252 153.456 183.653C153.676 184.051 153.786 184.568 153.786 185.205V191H152.126V189.807H152.058C151.948 190.027 151.784 190.242 151.564 190.455C151.344 190.667 151.062 190.843 150.717 190.983C150.373 191.123 149.96 191.193 149.479 191.193ZM149.848 189.83C150.318 189.83 150.719 189.737 151.053 189.551C151.39 189.366 151.645 189.123 151.82 188.824C151.998 188.521 152.087 188.197 152.087 187.852V186.727C152.026 186.788 151.909 186.845 151.734 186.898C151.564 186.947 151.369 186.991 151.149 187.028C150.929 187.062 150.715 187.095 150.507 187.125C150.299 187.152 150.125 187.174 149.984 187.193C149.655 187.235 149.354 187.305 149.081 187.403C148.812 187.502 148.596 187.644 148.433 187.83C148.274 188.011 148.195 188.254 148.195 188.557C148.195 188.977 148.35 189.295 148.661 189.511C148.971 189.723 149.367 189.83 149.848 189.83ZM156.048 194.273V182.273H157.707V183.688H157.849C157.948 183.506 158.09 183.295 158.276 183.057C158.461 182.818 158.719 182.61 159.048 182.432C159.378 182.25 159.813 182.159 160.355 182.159C161.06 182.159 161.688 182.337 162.241 182.693C162.795 183.049 163.228 183.562 163.543 184.233C163.861 184.903 164.02 185.71 164.02 186.653C164.02 187.597 163.863 188.405 163.548 189.08C163.234 189.75 162.802 190.267 162.253 190.631C161.704 190.991 161.077 191.17 160.372 191.17C159.842 191.17 159.408 191.081 159.071 190.903C158.738 190.725 158.476 190.517 158.287 190.278C158.098 190.04 157.952 189.828 157.849 189.642H157.747V194.273H156.048ZM157.713 186.636C157.713 187.25 157.802 187.788 157.98 188.25C158.158 188.712 158.416 189.074 158.753 189.335C159.09 189.593 159.503 189.722 159.991 189.722C160.499 189.722 160.923 189.587 161.264 189.318C161.605 189.045 161.863 188.676 162.037 188.21C162.215 187.744 162.304 187.22 162.304 186.636C162.304 186.061 162.217 185.544 162.043 185.085C161.872 184.627 161.615 184.265 161.27 184C160.929 183.735 160.503 183.602 159.991 183.602C159.499 183.602 159.082 183.729 158.741 183.983C158.404 184.237 158.149 184.591 157.974 185.045C157.8 185.5 157.713 186.03 157.713 186.636ZM167.622 185.818V191H165.923V179.364H167.599V183.693H167.707C167.912 183.223 168.224 182.85 168.645 182.574C169.065 182.297 169.615 182.159 170.293 182.159C170.891 182.159 171.414 182.282 171.861 182.528C172.312 182.775 172.66 183.142 172.906 183.631C173.156 184.116 173.281 184.722 173.281 185.449V191H171.582V185.653C171.582 185.013 171.418 184.517 171.088 184.165C170.759 183.809 170.3 183.631 169.713 183.631C169.312 183.631 168.952 183.716 168.634 183.886C168.319 184.057 168.071 184.307 167.889 184.636C167.711 184.962 167.622 185.356 167.622 185.818ZM175.548 191V182.273H177.247V191H175.548ZM176.406 180.926C176.111 180.926 175.857 180.828 175.645 180.631C175.437 180.43 175.332 180.191 175.332 179.915C175.332 179.634 175.437 179.396 175.645 179.199C175.857 178.998 176.111 178.898 176.406 178.898C176.702 178.898 176.954 178.998 177.162 179.199C177.374 179.396 177.48 179.634 177.48 179.915C177.48 180.191 177.374 180.43 177.162 180.631C176.954 180.828 176.702 180.926 176.406 180.926ZM183.209 191.176C182.364 191.176 181.637 190.985 181.027 190.602C180.421 190.216 179.955 189.684 179.629 189.006C179.304 188.328 179.141 187.551 179.141 186.676C179.141 185.79 179.307 185.008 179.641 184.33C179.974 183.648 180.444 183.116 181.05 182.733C181.656 182.35 182.37 182.159 183.192 182.159C183.855 182.159 184.446 182.282 184.964 182.528C185.483 182.771 185.902 183.112 186.22 183.551C186.542 183.991 186.733 184.504 186.794 185.091H185.141C185.05 184.682 184.841 184.33 184.516 184.034C184.194 183.739 183.762 183.591 183.22 183.591C182.747 183.591 182.332 183.716 181.976 183.966C181.624 184.212 181.349 184.564 181.152 185.023C180.955 185.477 180.857 186.015 180.857 186.636C180.857 187.273 180.953 187.822 181.146 188.284C181.339 188.746 181.612 189.104 181.964 189.358C182.321 189.612 182.739 189.739 183.22 189.739C183.542 189.739 183.834 189.68 184.095 189.562C184.36 189.441 184.582 189.269 184.76 189.045C184.942 188.822 185.069 188.553 185.141 188.239H186.794C186.733 188.803 186.55 189.307 186.243 189.75C185.936 190.193 185.525 190.542 185.01 190.795C184.499 191.049 183.898 191.176 183.209 191.176ZM195.151 184.403L193.611 184.676C193.546 184.479 193.444 184.292 193.304 184.114C193.168 183.936 192.982 183.79 192.747 183.676C192.512 183.562 192.219 183.506 191.866 183.506C191.385 183.506 190.984 183.614 190.662 183.83C190.34 184.042 190.179 184.316 190.179 184.653C190.179 184.945 190.287 185.18 190.503 185.358C190.719 185.536 191.067 185.682 191.548 185.795L192.935 186.114C193.738 186.299 194.336 186.585 194.73 186.972C195.124 187.358 195.321 187.86 195.321 188.477C195.321 189 195.17 189.466 194.866 189.875C194.567 190.28 194.149 190.598 193.611 190.83C193.077 191.061 192.457 191.176 191.753 191.176C190.776 191.176 189.978 190.968 189.361 190.551C188.743 190.131 188.365 189.534 188.224 188.761L189.866 188.511C189.969 188.939 190.179 189.263 190.497 189.483C190.815 189.699 191.23 189.807 191.741 189.807C192.298 189.807 192.743 189.691 193.077 189.46C193.41 189.225 193.577 188.939 193.577 188.602C193.577 188.33 193.474 188.1 193.27 187.915C193.069 187.729 192.76 187.589 192.344 187.494L190.866 187.17C190.052 186.985 189.45 186.689 189.06 186.284C188.673 185.879 188.48 185.366 188.48 184.744C188.48 184.229 188.624 183.778 188.912 183.392C189.2 183.006 189.598 182.705 190.105 182.489C190.613 182.269 191.194 182.159 191.849 182.159C192.793 182.159 193.535 182.364 194.077 182.773C194.618 183.178 194.976 183.722 195.151 184.403ZM203.963 191.193C203.41 191.193 202.91 191.091 202.463 190.886C202.016 190.678 201.662 190.377 201.401 189.983C201.143 189.589 201.014 189.106 201.014 188.534C201.014 188.042 201.109 187.636 201.298 187.318C201.488 187 201.743 186.748 202.065 186.562C202.387 186.377 202.747 186.237 203.145 186.142C203.543 186.047 203.948 185.975 204.361 185.926C204.884 185.866 205.308 185.816 205.634 185.778C205.959 185.737 206.196 185.67 206.344 185.58C206.491 185.489 206.565 185.341 206.565 185.136V185.097C206.565 184.6 206.425 184.216 206.145 183.943C205.868 183.67 205.455 183.534 204.906 183.534C204.334 183.534 203.884 183.661 203.554 183.915C203.228 184.165 203.003 184.443 202.878 184.75L201.281 184.386C201.471 183.856 201.747 183.428 202.111 183.102C202.478 182.773 202.901 182.534 203.378 182.386C203.855 182.235 204.357 182.159 204.884 182.159C205.232 182.159 205.601 182.201 205.991 182.284C206.385 182.364 206.753 182.511 207.094 182.727C207.438 182.943 207.721 183.252 207.94 183.653C208.16 184.051 208.27 184.568 208.27 185.205V191H206.611V189.807H206.543C206.433 190.027 206.268 190.242 206.048 190.455C205.829 190.667 205.546 190.843 205.202 190.983C204.857 191.123 204.444 191.193 203.963 191.193ZM204.332 189.83C204.802 189.83 205.204 189.737 205.537 189.551C205.874 189.366 206.13 189.123 206.304 188.824C206.482 188.521 206.571 188.197 206.571 187.852V186.727C206.51 186.788 206.393 186.845 206.219 186.898C206.048 186.947 205.853 186.991 205.634 187.028C205.414 187.062 205.2 187.095 204.991 187.125C204.783 187.152 204.609 187.174 204.469 187.193C204.139 187.235 203.838 187.305 203.565 187.403C203.296 187.502 203.08 187.644 202.918 187.83C202.759 188.011 202.679 188.254 202.679 188.557C202.679 188.977 202.834 189.295 203.145 189.511C203.455 189.723 203.851 189.83 204.332 189.83ZM212.232 185.818V191H210.533V182.273H212.163V183.693H212.271C212.472 183.231 212.786 182.86 213.214 182.58C213.646 182.299 214.19 182.159 214.845 182.159C215.44 182.159 215.961 182.284 216.408 182.534C216.855 182.78 217.201 183.148 217.447 183.636C217.694 184.125 217.817 184.729 217.817 185.449V191H216.118V185.653C216.118 185.021 215.953 184.527 215.624 184.17C215.294 183.811 214.841 183.631 214.266 183.631C213.872 183.631 213.521 183.716 213.214 183.886C212.911 184.057 212.671 184.307 212.493 184.636C212.319 184.962 212.232 185.356 212.232 185.818ZM223.362 191.17C222.658 191.17 222.029 190.991 221.476 190.631C220.927 190.267 220.495 189.75 220.18 189.08C219.87 188.405 219.714 187.597 219.714 186.653C219.714 185.71 219.872 184.903 220.186 184.233C220.504 183.562 220.94 183.049 221.493 182.693C222.046 182.337 222.673 182.159 223.374 182.159C223.915 182.159 224.351 182.25 224.68 182.432C225.014 182.61 225.271 182.818 225.453 183.057C225.639 183.295 225.783 183.506 225.885 183.688H225.987V179.364H227.686V191H226.027V189.642H225.885C225.783 189.828 225.635 190.04 225.442 190.278C225.252 190.517 224.991 190.725 224.658 190.903C224.324 191.081 223.893 191.17 223.362 191.17ZM223.737 189.722C224.226 189.722 224.639 189.593 224.976 189.335C225.317 189.074 225.574 188.712 225.749 188.25C225.927 187.788 226.016 187.25 226.016 186.636C226.016 186.03 225.929 185.5 225.754 185.045C225.58 184.591 225.324 184.237 224.987 183.983C224.65 183.729 224.233 183.602 223.737 183.602C223.226 183.602 222.8 183.735 222.459 184C222.118 184.265 221.86 184.627 221.686 185.085C221.516 185.544 221.43 186.061 221.43 186.636C221.43 187.22 221.518 187.744 221.692 188.21C221.866 188.676 222.124 189.045 222.464 189.318C222.809 189.587 223.233 189.722 223.737 189.722ZM105.869 210.193C105.316 210.193 104.816 210.091 104.369 209.886C103.922 209.678 103.568 209.377 103.307 208.983C103.049 208.589 102.92 208.106 102.92 207.534C102.92 207.042 103.015 206.636 103.205 206.318C103.394 206 103.65 205.748 103.972 205.562C104.294 205.377 104.653 205.237 105.051 205.142C105.449 205.047 105.854 204.975 106.267 204.926C106.79 204.866 107.214 204.816 107.54 204.778C107.866 204.737 108.102 204.67 108.25 204.58C108.398 204.489 108.472 204.341 108.472 204.136V204.097C108.472 203.6 108.331 203.216 108.051 202.943C107.775 202.67 107.362 202.534 106.812 202.534C106.241 202.534 105.79 202.661 105.46 202.915C105.134 203.165 104.909 203.443 104.784 203.75L103.188 203.386C103.377 202.856 103.653 202.428 104.017 202.102C104.384 201.773 104.807 201.534 105.284 201.386C105.761 201.235 106.263 201.159 106.79 201.159C107.138 201.159 107.508 201.201 107.898 201.284C108.292 201.364 108.659 201.511 109 201.727C109.345 201.943 109.627 202.252 109.847 202.653C110.066 203.051 110.176 203.568 110.176 204.205V210H108.517V208.807H108.449C108.339 209.027 108.174 209.242 107.955 209.455C107.735 209.667 107.453 209.843 107.108 209.983C106.763 210.123 106.35 210.193 105.869 210.193ZM106.239 208.83C106.708 208.83 107.11 208.737 107.443 208.551C107.78 208.366 108.036 208.123 108.21 207.824C108.388 207.521 108.477 207.197 108.477 206.852V205.727C108.417 205.788 108.299 205.845 108.125 205.898C107.955 205.947 107.759 205.991 107.54 206.028C107.32 206.062 107.106 206.095 106.898 206.125C106.689 206.152 106.515 206.174 106.375 206.193C106.045 206.235 105.744 206.305 105.472 206.403C105.203 206.502 104.987 206.644 104.824 206.83C104.665 207.011 104.585 207.254 104.585 207.557C104.585 207.977 104.741 208.295 105.051 208.511C105.362 208.723 105.758 208.83 106.239 208.83ZM114.138 204.818V210H112.439V201.273H114.07V202.693H114.178C114.378 202.231 114.693 201.86 115.121 201.58C115.553 201.299 116.096 201.159 116.751 201.159C117.346 201.159 117.867 201.284 118.314 201.534C118.761 201.78 119.107 202.148 119.354 202.636C119.6 203.125 119.723 203.729 119.723 204.449V210H118.024V204.653C118.024 204.021 117.859 203.527 117.53 203.17C117.2 202.811 116.748 202.631 116.172 202.631C115.778 202.631 115.428 202.716 115.121 202.886C114.818 203.057 114.577 203.307 114.399 203.636C114.225 203.962 114.138 204.356 114.138 204.818ZM122.001 210V201.273H123.7V210H122.001ZM122.859 199.926C122.564 199.926 122.31 199.828 122.098 199.631C121.89 199.43 121.786 199.191 121.786 198.915C121.786 198.634 121.89 198.396 122.098 198.199C122.31 197.998 122.564 197.898 122.859 197.898C123.155 197.898 123.407 197.998 123.615 198.199C123.827 198.396 123.933 198.634 123.933 198.915C123.933 199.191 123.827 199.43 123.615 199.631C123.407 199.828 123.155 199.926 122.859 199.926ZM125.986 210V201.273H127.616V202.693H127.724C127.906 202.212 128.204 201.837 128.616 201.568C129.029 201.295 129.524 201.159 130.099 201.159C130.683 201.159 131.171 201.295 131.565 201.568C131.963 201.841 132.257 202.216 132.446 202.693H132.537C132.745 202.227 133.077 201.856 133.531 201.58C133.986 201.299 134.527 201.159 135.156 201.159C135.948 201.159 136.594 201.407 137.094 201.903C137.598 202.4 137.849 203.148 137.849 204.148V210H136.151V204.307C136.151 203.716 135.99 203.288 135.668 203.023C135.346 202.758 134.961 202.625 134.514 202.625C133.961 202.625 133.531 202.795 133.224 203.136C132.918 203.473 132.764 203.907 132.764 204.438V210H131.071V204.199C131.071 203.725 130.923 203.345 130.628 203.057C130.332 202.769 129.948 202.625 129.474 202.625C129.152 202.625 128.855 202.71 128.582 202.881C128.313 203.047 128.096 203.28 127.929 203.58C127.766 203.879 127.685 204.225 127.685 204.619V210H125.986ZM142.666 210.193C142.113 210.193 141.613 210.091 141.166 209.886C140.719 209.678 140.365 209.377 140.104 208.983C139.846 208.589 139.717 208.106 139.717 207.534C139.717 207.042 139.812 206.636 140.001 206.318C140.191 206 140.446 205.748 140.768 205.562C141.09 205.377 141.45 205.237 141.848 205.142C142.246 205.047 142.651 204.975 143.064 204.926C143.587 204.866 144.011 204.816 144.337 204.778C144.662 204.737 144.899 204.67 145.047 204.58C145.195 204.489 145.268 204.341 145.268 204.136V204.097C145.268 203.6 145.128 203.216 144.848 202.943C144.571 202.67 144.159 202.534 143.609 202.534C143.037 202.534 142.587 202.661 142.257 202.915C141.931 203.165 141.706 203.443 141.581 203.75L139.984 203.386C140.174 202.856 140.45 202.428 140.814 202.102C141.181 201.773 141.604 201.534 142.081 201.386C142.558 201.235 143.06 201.159 143.587 201.159C143.935 201.159 144.304 201.201 144.695 201.284C145.089 201.364 145.456 201.511 145.797 201.727C146.142 201.943 146.424 202.252 146.643 202.653C146.863 203.051 146.973 203.568 146.973 204.205V210H145.314V208.807H145.246C145.136 209.027 144.971 209.242 144.751 209.455C144.532 209.667 144.25 209.843 143.905 209.983C143.56 210.123 143.147 210.193 142.666 210.193ZM143.036 208.83C143.505 208.83 143.907 208.737 144.24 208.551C144.577 208.366 144.833 208.123 145.007 207.824C145.185 207.521 145.274 207.197 145.274 206.852V205.727C145.214 205.788 145.096 205.845 144.922 205.898C144.751 205.947 144.556 205.991 144.337 206.028C144.117 206.062 143.903 206.095 143.695 206.125C143.486 206.152 143.312 206.174 143.172 206.193C142.842 206.235 142.541 206.305 142.268 206.403C142 206.502 141.784 206.644 141.621 206.83C141.462 207.011 141.382 207.254 141.382 207.557C141.382 207.977 141.537 208.295 141.848 208.511C142.159 208.723 142.554 208.83 143.036 208.83ZM153.31 201.273V202.636H148.543V201.273H153.31ZM149.821 199.182H151.52V207.438C151.52 207.767 151.569 208.015 151.668 208.182C151.766 208.345 151.893 208.456 152.048 208.517C152.207 208.574 152.38 208.602 152.565 208.602C152.702 208.602 152.821 208.593 152.923 208.574C153.026 208.555 153.105 208.54 153.162 208.528L153.469 209.932C153.37 209.97 153.23 210.008 153.048 210.045C152.866 210.087 152.639 210.11 152.366 210.114C151.92 210.121 151.503 210.042 151.116 209.875C150.73 209.708 150.418 209.451 150.179 209.102C149.94 208.754 149.821 208.316 149.821 207.79V199.182ZM155.189 210V201.273H156.888V210H155.189ZM156.047 199.926C155.751 199.926 155.498 199.828 155.286 199.631C155.077 199.43 154.973 199.191 154.973 198.915C154.973 198.634 155.077 198.396 155.286 198.199C155.498 197.998 155.751 197.898 156.047 197.898C156.342 197.898 156.594 197.998 156.803 198.199C157.015 198.396 157.121 198.634 157.121 198.915C157.121 199.191 157.015 199.43 156.803 199.631C156.594 199.828 156.342 199.926 156.047 199.926ZM162.849 210.176C162.031 210.176 161.317 209.989 160.707 209.614C160.098 209.239 159.624 208.714 159.287 208.04C158.95 207.366 158.781 206.578 158.781 205.676C158.781 204.771 158.95 203.979 159.287 203.301C159.624 202.623 160.098 202.097 160.707 201.722C161.317 201.347 162.031 201.159 162.849 201.159C163.668 201.159 164.382 201.347 164.991 201.722C165.601 202.097 166.075 202.623 166.412 203.301C166.749 203.979 166.918 204.771 166.918 205.676C166.918 206.578 166.749 207.366 166.412 208.04C166.075 208.714 165.601 209.239 164.991 209.614C164.382 209.989 163.668 210.176 162.849 210.176ZM162.855 208.75C163.385 208.75 163.825 208.61 164.173 208.33C164.522 208.049 164.779 207.676 164.946 207.21C165.116 206.744 165.202 206.231 165.202 205.67C165.202 205.114 165.116 204.602 164.946 204.136C164.779 203.667 164.522 203.29 164.173 203.006C163.825 202.722 163.385 202.58 162.855 202.58C162.321 202.58 161.878 202.722 161.526 203.006C161.177 203.29 160.918 203.667 160.747 204.136C160.58 204.602 160.497 205.114 160.497 205.67C160.497 206.231 160.58 206.744 160.747 207.21C160.918 207.676 161.177 208.049 161.526 208.33C161.878 208.61 162.321 208.75 162.855 208.75ZM170.513 204.818V210H168.814V201.273H170.445V202.693H170.553C170.753 202.231 171.068 201.86 171.496 201.58C171.928 201.299 172.471 201.159 173.126 201.159C173.721 201.159 174.242 201.284 174.689 201.534C175.136 201.78 175.482 202.148 175.729 202.636C175.975 203.125 176.098 203.729 176.098 204.449V210H174.399V204.653C174.399 204.021 174.234 203.527 173.905 203.17C173.575 202.811 173.123 202.631 172.547 202.631C172.153 202.631 171.803 202.716 171.496 202.886C171.193 203.057 170.952 203.307 170.774 203.636C170.6 203.962 170.513 204.356 170.513 204.818ZM184.916 203.403L183.376 203.676C183.312 203.479 183.21 203.292 183.07 203.114C182.933 202.936 182.748 202.79 182.513 202.676C182.278 202.562 181.984 202.506 181.632 202.506C181.151 202.506 180.75 202.614 180.428 202.83C180.106 203.042 179.945 203.316 179.945 203.653C179.945 203.945 180.053 204.18 180.268 204.358C180.484 204.536 180.833 204.682 181.314 204.795L182.7 205.114C183.503 205.299 184.102 205.585 184.496 205.972C184.89 206.358 185.087 206.86 185.087 207.477C185.087 208 184.935 208.466 184.632 208.875C184.333 209.28 183.914 209.598 183.376 209.83C182.842 210.061 182.223 210.176 181.518 210.176C180.541 210.176 179.744 209.968 179.126 209.551C178.509 209.131 178.13 208.534 177.99 207.761L179.632 207.511C179.734 207.939 179.945 208.263 180.263 208.483C180.581 208.699 180.996 208.807 181.507 208.807C182.064 208.807 182.509 208.691 182.842 208.46C183.176 208.225 183.342 207.939 183.342 207.602C183.342 207.33 183.24 207.1 183.036 206.915C182.835 206.729 182.526 206.589 182.109 206.494L180.632 206.17C179.818 205.985 179.215 205.689 178.825 205.284C178.439 204.879 178.246 204.366 178.246 203.744C178.246 203.229 178.39 202.778 178.678 202.392C178.965 202.006 179.363 201.705 179.871 201.489C180.378 201.269 180.96 201.159 181.615 201.159C182.558 201.159 183.301 201.364 183.842 201.773C184.384 202.178 184.742 202.722 184.916 203.403Z" fill="white"/>
<path d="M143.235 78.4345C139.542 78.0218 135.726 78.0218 132.033 78.4345C129.657 78.7001 127.736 80.5709 127.456 82.9662C127.015 86.7427 127.015 90.5579 127.456 94.3345C127.736 96.7298 129.657 98.6006 132.033 98.8661C135.726 99.2788 139.542 99.2788 143.235 98.8661C145.611 98.6006 147.532 96.7298 147.812 94.3345C148.253 90.5579 148.253 86.7427 147.812 82.9662C147.532 80.5709 145.611 78.7001 143.235 78.4345Z" fill="white"/>
<path d="M143.235 105.518C139.542 105.105 135.726 105.105 132.033 105.518C129.657 105.783 127.736 107.654 127.456 110.05C127.015 113.826 127.015 117.641 127.456 121.418C127.736 123.813 129.657 125.684 132.033 125.949C135.726 126.362 139.542 126.362 143.235 125.949C145.611 125.684 147.532 123.813 147.812 121.418C148.253 117.641 148.253 113.826 147.812 110.05C147.532 107.654 145.611 105.783 143.235 105.518Z" fill="white"/>
<path d="M170.318 78.4345C166.625 78.0218 162.809 78.0218 159.117 78.4345C156.741 78.7001 154.82 80.5709 154.54 82.9662C154.098 86.7427 154.098 90.5579 154.54 94.3345C154.82 96.7298 156.741 98.6006 159.117 98.8661C162.809 99.2788 166.625 99.2788 170.318 98.8661C172.694 98.6006 174.615 96.7298 174.895 94.3345C175.337 90.5579 175.337 86.7427 174.895 82.9662C174.615 80.5709 172.694 78.7001 170.318 78.4345Z" fill="white"/>
<path d="M170.318 105.518C166.625 105.105 162.809 105.105 159.117 105.518C156.741 105.783 154.82 107.654 154.54 110.05C154.098 113.826 154.098 117.641 154.54 121.418C154.82 123.813 156.741 125.684 159.117 125.949C162.809 126.362 166.625 126.362 170.318 125.949C172.694 125.684 174.615 123.813 174.895 121.418C175.337 117.641 175.337 113.826 174.895 110.05C174.615 107.654 172.694 105.783 170.318 105.518Z" fill="white"/>
</svg>
