<svg width="12" height="22" viewBox="0 0 12 22" fill="none" xmlns="http://www.w3.org/2000/svg">
<path d="M8.56671 0.354126C7.13564 0.354126 5.76319 0.922614 4.75128 1.93453C3.73936 2.94644 3.17087 4.3189 3.17087 5.74996V8.75413H0.283374C0.138399 8.75413 0.020874 8.87165 0.020874 9.01663V12.9833C0.020874 13.1283 0.138399 13.2458 0.283374 13.2458H3.17087V21.3833C3.17087 21.5283 3.2884 21.6458 3.43337 21.6458H7.40004C7.54501 21.6458 7.66254 21.5283 7.66254 21.3833V13.2458H10.5756C10.6961 13.2458 10.8011 13.1638 10.8303 13.047L11.8219 9.08029C11.8634 8.91462 11.7381 8.75413 11.5673 8.75413H7.66254V5.74996C7.66254 5.51016 7.7578 5.28018 7.92736 5.11062C8.09693 4.94105 8.32691 4.84579 8.56671 4.84579H11.6C11.745 4.84579 11.8625 4.72827 11.8625 4.58329V0.616626C11.8625 0.471651 11.745 0.354126 11.6 0.354126H8.56671Z" fill="white"/>
</svg>
