<svg width="30" height="30" viewBox="0 0 30 30" fill="none" xmlns="http://www.w3.org/2000/svg">
<path fill-rule="evenodd" clip-rule="evenodd" d="M22.1113 22.8852L22.1119 22.8836L22.1286 22.8412L25 8.09794V8.05005C25 7.68271 24.8667 7.36203 24.5767 7.16967C24.3229 7.0013 24.031 6.98931 23.8264 7.00513C23.61 7.02186 23.4059 7.07687 23.2647 7.12266C23.192 7.14622 23.1312 7.16892 23.0877 7.18609C23.0658 7.19471 23.0481 7.20202 23.0353 7.20747L23.0226 7.21289L7.01309 13.6088L7.00868 13.6104C7.00004 13.6136 6.9886 13.6179 6.97479 13.6234C6.94726 13.6343 6.90978 13.6499 6.86575 13.6703C6.77931 13.7102 6.65987 13.7717 6.53874 13.8562C6.33302 13.9997 5.94128 14.3393 6.00743 14.8778C6.06222 15.3239 6.36413 15.6072 6.56767 15.7538C6.67678 15.8324 6.78116 15.8891 6.85759 15.9262C6.89632 15.945 6.92922 15.9594 6.95372 15.9695C6.96601 15.9746 6.97628 15.9787 6.98422 15.9818L6.9944 15.9856L7.0009 15.9881L9.80187 16.9484C9.79242 17.1274 9.80985 17.3099 9.85645 17.4899L11.2595 22.9101C11.4258 23.5528 11.9967 24.0005 12.6494 24C13.2343 23.9996 13.7531 23.6392 13.9736 23.1015L16.1641 20.7162L19.9261 23.6535L19.9796 23.6773C20.3214 23.8292 20.6408 23.8773 20.9327 23.8367C21.2243 23.7962 21.456 23.6716 21.63 23.5298C21.8013 23.3903 21.9187 23.2328 21.9925 23.1142C22.03 23.054 22.0579 23.0011 22.0773 22.9612C22.087 22.9412 22.0947 22.9243 22.1005 22.9111L22.1077 22.8941L22.1103 22.8878L22.1113 22.8852ZM11.2452 17.117C11.2134 16.9939 11.2634 16.8638 11.369 16.7955L20.8695 10.6512C20.8695 10.6512 21.4283 10.3058 21.4084 10.6512C21.4084 10.6512 21.5081 10.7123 21.2086 10.9967C20.9246 11.2669 14.4374 17.6454 13.781 18.2908C13.7431 18.3281 13.7205 18.3708 13.7071 18.4227L12.6483 22.5373L11.2452 17.117Z" fill="white"/>
<path d="M11.369 16.7955C11.2634 16.8638 11.2134 16.9939 11.2452 17.117L12.6483 22.5373L13.7071 18.4227C13.7205 18.3708 13.7431 18.3281 13.781 18.2908C14.4374 17.6454 20.9246 11.2669 21.2086 10.9967C21.5081 10.7123 21.4084 10.6512 21.4084 10.6512C21.4283 10.3058 20.8695 10.6512 20.8695 10.6512L11.369 16.7955Z" fill="white"/>
</svg>
