<svg width="1030" height="77" viewBox="0 0 1030 77" fill="none" xmlns="http://www.w3.org/2000/svg">
<path d="M27.1667 7H27.185C28.1933 7 29 7.80348 29 8.80783V10.5791C29 11.5835 28.1933 12.387 27.1667 12.3687H27.1483C26.14 12.3687 25.3333 11.5652 25.3333 10.5609V8.80783C25.3333 7.80348 26.14 7 27.1667 7Z" fill="#DFA12E"/>
<path d="M16.2583 13.5557L15.5433 12.8435C14.8283 12.1313 13.6733 12.1496 12.9767 12.8435L12.9583 12.8617C12.2433 13.5739 12.2433 14.7243 12.9583 15.4183L13.6733 16.1304C14.3883 16.8426 15.525 16.8426 16.24 16.1304L16.2583 16.1122C16.9733 15.4183 16.9733 14.2496 16.2583 13.5557Z" fill="#DFA12E"/>
<path d="M10.685 25.1696H8.815C7.80667 25.1696 7 25.973 7 26.9774V26.9957C7 28 7.80667 28.8035 8.815 28.8035H10.6667C11.6933 28.8217 12.5 28.0183 12.5 27.0139V26.9957C12.5 25.973 11.6933 25.1696 10.685 25.1696Z" fill="#DFA12E"/>
<path d="M41.375 12.8617C40.66 12.1496 39.505 12.1496 38.79 12.8435L38.075 13.5557C37.36 14.2678 37.36 15.4183 38.075 16.1122L38.0933 16.1304C38.8083 16.8426 39.9633 16.8426 40.66 16.1304L41.375 15.4183C42.09 14.7061 42.09 13.5739 41.375 12.8617Z" fill="#DFA12E"/>
<path d="M16.1667 26.9957C16.1667 20.9513 21.0983 16.0391 27.1667 16.0391C31.332 16.0391 34.9617 18.3535 36.8287 21.7597C34.7 23.645 33.1095 26.1199 32.3153 28.9273C32.1281 28.9178 31.9396 28.913 31.75 28.913C26.9322 28.913 22.8379 31.998 21.3494 36.2929C18.2388 34.3559 16.1667 30.9136 16.1667 26.9957Z" fill="#DFA12E"/>
<path d="M12.9583 41.1296C13.6733 41.8417 14.8283 41.8417 15.5433 41.1296L16.2583 40.4174C16.9733 39.7052 16.955 38.5548 16.2583 37.8609L16.24 37.8426C15.525 37.1304 14.37 37.1304 13.655 37.8426L12.94 38.5548C12.2433 39.2852 12.2433 40.4174 12.9583 41.1296Z" fill="#DFA12E"/>
<path d="M62 59.0435H26.25C21.6937 59.0435 18 55.3644 18 50.8261C18 47.2446 20.3003 44.1982 23.5097 43.0729C23.5033 42.9189 23.5 42.7642 23.5 42.6087C23.5 36.5576 28.4249 31.6522 34.5 31.6522C34.6896 31.6522 34.8781 31.657 35.0653 31.6664C36.8561 25.3358 42.6965 20.6957 49.625 20.6957C57.9783 20.6957 64.75 27.4406 64.75 35.7609C64.75 36.3325 64.718 36.8968 64.6558 37.4519C69.4479 38.6353 73 42.9479 73 48.087C73 54.1381 68.0751 59.0435 62 59.0435Z" fill="#DFA12E"/>
<path d="M37.7752 61.7826H33.9748C32.9527 61.7826 32.2879 62.854 32.745 63.7647L35.875 70L39.0051 63.7647C39.4622 62.854 38.7974 61.7826 37.7752 61.7826Z" fill="#DFA12E"/>
<path d="M40.5723 68.2898L42.4527 62.671C42.6303 62.1405 43.1287 61.7826 43.6902 61.7826C44.5806 61.7826 45.2093 62.6514 44.9277 63.4928L43.0473 69.1116C42.8698 69.6421 42.3713 70 41.8098 70C40.9195 70 40.2908 69.1312 40.5723 68.2898Z" fill="#DFA12E"/>
<path d="M46.0723 68.2898L47.9527 62.671C48.1303 62.1405 48.6287 61.7826 49.1902 61.7826C50.0806 61.7826 50.7093 62.6514 50.4277 63.4928L48.5473 69.1116C48.3698 69.6421 47.8713 70 47.3098 70C46.4195 70 45.7908 69.1312 46.0723 68.2898Z" fill="#DFA12E"/>
<path d="M53.4527 62.671L51.5723 68.2898C51.2908 69.1312 51.9195 70 52.8098 70C53.3713 70 53.8698 69.6421 54.0473 69.1116L55.9277 63.4928C56.2093 62.6514 55.5806 61.7826 54.6902 61.7826C54.1287 61.7826 53.6303 62.1405 53.4527 62.671Z" fill="#DFA12E"/>
<path d="M1010.33 53.6667H1007.03L1009.89 48.6538C1011.16 46.4316 1009.56 43.6667 1007 43.6667H1003.67V30.3333C1003.67 26.9151 999.135 25.7117 997.439 28.6795L983.161 53.6667H967C961.477 53.6667 957 49.1895 957 43.6667C957 39.3082 959.788 35.601 963.678 34.2315C963.671 34.0442 963.667 33.8559 963.667 33.6667C963.667 26.3029 969.636 20.3333 977 20.3333C977.23 20.3333 977.458 20.3391 977.685 20.3506C979.856 12.6468 986.935 7 995.333 7C1005.46 7 1013.67 15.2081 1013.67 25.3333C1013.67 26.029 1013.63 26.7157 1013.55 27.3912C1019.36 28.8313 1023.67 34.0795 1023.67 40.3333C1023.67 47.6971 1017.7 53.6667 1010.33 53.6667Z" fill="#DFA12E"/>
<path d="M987 53.6667H993.667V70.3333L1007 47H1000.33V30.3333L987 53.6667Z" fill="#DFA12E"/>
<path d="M982.172 70.3333H978.494L978.862 66.2593L975.506 68.6204L973.667 65.3796L977.345 63.6667L973.667 61.9537L975.506 58.713L978.862 61.0741L978.494 57H982.172L981.805 61.0741L985.161 58.713L987 61.9537L983.322 63.6667L987 65.3796L985.161 68.6204L981.805 66.2593L982.172 70.3333Z" fill="#DFA12E"/>
</svg>
