<svg width="22" height="22" viewBox="0 0 22 22" fill="none" xmlns="http://www.w3.org/2000/svg">
<path d="M11 7.20831C8.90589 7.20831 7.2083 8.90589 7.2083 11C7.2083 13.0941 8.90589 14.7916 11 14.7916C13.094 14.7916 14.7916 13.0941 14.7916 11C14.7916 8.90589 13.094 7.20831 11 7.20831Z" fill="white"/>
<path fill-rule="evenodd" clip-rule="evenodd" d="M4.89776 0.595018C8.92057 0.145411 13.0794 0.145411 17.1022 0.595018C19.317 0.842555 21.1034 2.58763 21.3633 4.81019C21.8443 8.9227 21.8443 13.0772 21.3633 17.1898C21.1034 19.4123 19.317 21.1574 17.1022 21.4049C13.0794 21.8545 8.92057 21.8545 4.89776 21.4049C2.68297 21.1574 0.896574 19.4123 0.636625 17.1898C0.15563 13.0772 0.15563 8.9227 0.636625 4.81019C0.896574 2.58763 2.68297 0.842555 4.89776 0.595018ZM16.8333 3.99997C16.189 3.99997 15.6666 4.52231 15.6666 5.16664C15.6666 5.81097 16.189 6.33331 16.8333 6.33331C17.4776 6.33331 18 5.81097 18 5.16664C18 4.52231 17.4776 3.99997 16.8333 3.99997ZM5.4583 11C5.4583 7.93939 7.93939 5.45831 11 5.45831C14.0605 5.45831 16.5416 7.93939 16.5416 11C16.5416 14.0606 14.0605 16.5416 11 16.5416C7.93939 16.5416 5.4583 14.0606 5.4583 11Z" fill="white"/>
</svg>
