<svg width="18" height="17" viewBox="0 0 18 17" fill="none" xmlns="http://www.w3.org/2000/svg">
<path d="M17.0811 8.42207C17.0811 12.8417 13.4919 16.4245 9.06442 16.4245C4.63696 16.4245 1.04779 12.8417 1.04779 8.42207C1.04779 4.00245 4.63696 0.419643 9.06442 0.419643C13.4919 0.419643 17.0811 4.00245 17.0811 8.42207Z" fill="#403B45" stroke="#403B45" stroke-width="0.8" stroke-miterlimit="10" stroke-linecap="round" stroke-linejoin="round"/>
<path fill-rule="evenodd" clip-rule="evenodd" d="M13.5595 5.72098C13.7691 5.93025 13.7691 6.26955 13.5595 6.47882L8.5491 11.4803C8.33945 11.6896 7.99955 11.6896 7.78991 11.4803L4.92683 8.62233C4.71718 8.41306 4.71718 8.07376 4.92683 7.86449C5.13647 7.65521 5.47637 7.65521 5.68602 7.86449L8.1695 10.3436L12.8003 5.72098C13.0099 5.51171 13.3498 5.51171 13.5595 5.72098Z" fill="white"/>
</svg>
