<svg width="36" height="30" viewBox="0 0 36 30" fill="none" xmlns="http://www.w3.org/2000/svg">
<path d="M10.8 0.500122C5.23829 0.500122 0.5 4.65873 0.5 10.0597C0.5 13.7856 2.24469 16.9225 4.55698 19.521C6.86132 22.1105 9.83429 24.2841 12.5219 26.1034L17.1592 29.2423C17.667 29.5861 18.333 29.5861 18.8408 29.2423L23.4781 26.1034C26.1657 24.2841 29.1387 22.1105 31.443 19.521C33.7553 16.9225 35.5 13.7856 35.5 10.0597C35.5 4.65873 30.7617 0.500122 25.2 0.500122C22.3331 0.500122 19.8103 1.8444 18 3.58379C16.1897 1.8444 13.6669 0.500122 10.8 0.500122Z" fill="white"/>
</svg>
