<svg width="38" height="32" viewBox="0 0 38 32" fill="none" xmlns="http://www.w3.org/2000/svg">
<path fill-rule="evenodd" clip-rule="evenodd" d="M9.53506 1.31723C15.8332 0.769746 22.1669 0.769746 28.465 1.31723L31.4854 1.57979C34.3756 1.83102 36.7169 4.03031 37.1483 6.8991C38.0556 12.9325 38.0556 19.0677 37.1483 25.1011C37.0689 25.6289 36.9249 26.1341 36.7247 26.6086C36.592 26.9232 36.1825 26.9709 35.9528 26.7183L27.1099 16.9911C26.7104 16.5516 26.0891 16.3893 25.5256 16.5771L20.464 18.2643L13.1211 10.0036C12.8466 9.69481 12.457 9.51291 12.0441 9.50077C11.6311 9.48864 11.2314 9.64734 10.9393 9.93946L1.11109 19.7677C0.808604 20.0702 0.292723 19.8777 0.268606 19.4506C0.0321346 15.2628 0.226508 11.0568 0.851727 6.8991C1.28312 4.03031 3.62446 1.83102 6.5146 1.57979L9.53506 1.31723ZM23 10.0001C23 8.34327 24.3431 7.00012 26 7.00012C27.6569 7.00012 29 8.34327 29 10.0001C29 11.657 27.6569 13.0001 26 13.0001C24.3431 13.0001 23 11.657 23 10.0001Z" fill="white"/>
<path d="M0.922668 24.1988C0.811961 24.3095 0.759372 24.4657 0.781424 24.6207C0.80422 24.7809 0.827654 24.941 0.851727 25.1011C1.28312 27.9699 3.62446 30.1692 6.5146 30.4204L9.53507 30.683C15.8332 31.2305 22.1669 31.2305 28.465 30.683L31.4854 30.4204C32.3347 30.3466 33.1366 30.1046 33.8565 29.7268C34.1294 29.5836 34.1753 29.2229 33.968 28.9949L25.7665 19.9731C25.6333 19.8266 25.4262 19.7725 25.2384 19.8351L20.4743 21.4231C19.9051 21.6129 19.2775 21.4451 18.8789 20.9967L12.2881 13.582C12.0969 13.367 11.7642 13.3572 11.5608 13.5606L0.922668 24.1988Z" fill="white"/>
</svg>
