<svg width="36" height="36" viewBox="0 0 36 36" fill="none" xmlns="http://www.w3.org/2000/svg">
<path fill-rule="evenodd" clip-rule="evenodd" d="M0.5 18.0001C0.5 8.33514 8.33502 0.500122 18 0.500122C27.665 0.500122 35.5 8.33514 35.5 18.0001C35.5 27.6651 27.665 35.5001 18 35.5001C8.33502 35.5001 0.5 27.6651 0.5 18.0001ZM15.6996 12.6176C13.8325 14.1537 12.5851 16.3142 12.1884 18.6993L10.875 26.5954C10.5718 28.4184 12.6914 29.6422 14.1185 28.4681L20.3001 23.3826C22.1672 21.8465 23.4146 19.6859 23.8113 17.3009L25.1248 9.40473C25.428 7.58178 23.3083 6.358 21.8812 7.53207L15.6996 12.6176Z" fill="white"/>
<path d="M15 18.0001C15 16.3433 16.3431 15.0001 18 15.0001C19.6569 15.0001 21 16.3433 21 18.0001C21 19.657 19.6569 21.0001 18 21.0001C16.3431 21.0001 15 19.657 15 18.0001Z" fill="white"/>
</svg>
