<svg width="1440" height="411" viewBox="0 0 1440 411" fill="none" xmlns="http://www.w3.org/2000/svg">
<path d="M-15.1047 410.456H365.776C430.5 410.456 482.969 358.012 482.969 293.319C482.969 238.377 445.125 192.269 394.07 179.618C394.733 173.683 395.074 167.651 395.074 161.539C395.074 72.586 322.928 0.47551 233.932 0.47551C160.117 0.47551 97.893 50.084 78.8134 117.765C76.8186 117.664 74.8105 117.613 72.7906 117.613C8.06624 117.613 -44.4032 170.057 -44.4032 234.75C-44.4032 236.412 -44.3685 238.067 -44.2999 239.712C-78.4922 251.744 -103 284.312 -103 322.603C-103 371.123 -63.648 410.456 -15.1047 410.456Z" fill="url(#paint0_linear_1_105)"/>
<path d="M365.641 410.456H746.52C811.245 410.456 863.714 358.012 863.714 293.319C863.714 238.377 825.87 192.269 774.815 179.618C775.478 173.683 775.819 167.651 775.819 161.539C775.819 72.586 703.673 0.47551 614.677 0.47551C540.862 0.47551 478.638 50.084 459.559 117.765C457.564 117.664 455.556 117.613 453.536 117.613C388.811 117.613 336.342 170.057 336.342 234.75C336.342 236.412 336.377 238.067 336.445 239.712C302.253 251.744 277.745 284.312 277.745 322.603C277.745 371.123 317.097 410.456 365.641 410.456Z" fill="url(#paint1_linear_1_105)"/>
<path d="M750.138 410.456H1131.02C1195.74 410.456 1248.21 358.012 1248.21 293.319C1248.21 238.377 1210.37 192.269 1159.31 179.618C1159.98 173.683 1160.32 167.651 1160.32 161.539C1160.32 72.586 1088.17 0.47551 999.175 0.47551C925.359 0.47551 863.136 50.084 844.056 117.765C842.061 117.664 840.053 117.613 838.033 117.613C773.309 117.613 720.839 170.057 720.839 234.75C720.839 236.412 720.874 238.067 720.943 239.712C686.75 251.744 662.242 284.312 662.242 322.603C662.242 371.123 701.595 410.456 750.138 410.456Z" fill="url(#paint2_linear_1_105)"/>
<path d="M1129.02 410.456H1509.9C1574.63 410.456 1627.1 358.012 1627.1 293.319C1627.1 238.377 1589.25 192.269 1538.2 179.618C1538.86 173.683 1539.2 167.651 1539.2 161.539C1539.2 72.586 1467.05 0.47551 1378.06 0.47551C1304.24 0.47551 1242.02 50.084 1222.94 117.765C1220.95 117.664 1218.94 117.613 1216.92 117.613C1152.19 117.613 1099.72 170.057 1099.72 234.75C1099.72 236.412 1099.76 238.067 1099.83 239.712C1065.64 251.744 1041.13 284.312 1041.13 322.603C1041.13 371.123 1080.48 410.456 1129.02 410.456Z" fill="url(#paint3_linear_1_105)"/>
<defs>
<linearGradient id="paint0_linear_1_105" x1="762.048" y1="0.47551" x2="762" y2="410.6" gradientUnits="userSpaceOnUse">
<stop stop-color="#E0A12E"/>
<stop offset="1" stop-color="#E0A12E" stop-opacity="0"/>
</linearGradient>
<linearGradient id="paint1_linear_1_105" x1="762.048" y1="0.47551" x2="762" y2="410.6" gradientUnits="userSpaceOnUse">
<stop stop-color="#E0A12E"/>
<stop offset="1" stop-color="#E0A12E" stop-opacity="0"/>
</linearGradient>
<linearGradient id="paint2_linear_1_105" x1="762.048" y1="0.47551" x2="762" y2="410.6" gradientUnits="userSpaceOnUse">
<stop stop-color="#E0A12E"/>
<stop offset="1" stop-color="#E0A12E" stop-opacity="0"/>
</linearGradient>
<linearGradient id="paint3_linear_1_105" x1="762.048" y1="0.47551" x2="762" y2="410.6" gradientUnits="userSpaceOnUse">
<stop stop-color="#E0A12E"/>
<stop offset="1" stop-color="#E0A12E" stop-opacity="0"/>
</linearGradient>
</defs>
</svg>
